<?xml version="1.0" encoding="UTF-8" standalone="no"?>
<!DOCTYPE svg PUBLIC "-//W3C//DTD SVG 1.1//EN" "http://www.w3.org/Graphics/SVG/1.1/DTD/svg11.dtd">
<svg width="100%" height="100%" viewBox="0 0 1772 1772" version="1.1" xmlns="http://www.w3.org/2000/svg" xmlns:xlink="http://www.w3.org/1999/xlink" xml:space="preserve" xmlns:serif="http://www.serif.com/" style="fill-rule:evenodd;clip-rule:evenodd;stroke-linecap:round;stroke-linejoin:round;stroke-miterlimit:1.5;">
    <g transform="matrix(1,0,0,1,-353.088,-266.416)">
        <g>
            <g transform="matrix(0.99922,0,0,1,0.275336,0)">
                <g transform="matrix(1.00078,-0,-0,1,353.088,266.416)">
                    <path d="M1101.85,288.119L1143.55,354.184L1068.45,375.718L1101.85,288.119Z" style="fill:rgb(61,18,68);"/>
                    <path d="M461.783,475.963C637.46,296.354 863.51,255.36 1096.83,336.372" style="fill:none;stroke:rgb(61,18,68);stroke-width:20.83px;"/>
                </g>
            </g>
            <g transform="matrix(0.99922,0,0,1,0.275336,0)">
                <g transform="matrix(1.00078,-0,-0,1,353.088,266.416)">
                    <path d="M476.896,1372.34L461.783,1295.69L539.598,1302.64L476.896,1372.34Z" style="fill:rgb(61,18,68);"/>
                    <path d="M1143.55,1417.47C895.206,1513.66 680.838,1482.35 498.954,1329.13" style="fill:none;stroke:rgb(61,18,68);stroke-width:20.83px;"/>
                </g>
            </g>
            <g transform="matrix(0.99922,0,0,1,0.275336,0)">
                <path d="M1136.72,1887.56C1093.34,1764.67 1023.85,1702.35 945.153,1661.38" style="fill:none;stroke:rgb(61,18,68);stroke-width:20.84px;"/>
            </g>
            <g transform="matrix(0.99922,0,0,1,0.275336,0)">
                <g transform="matrix(1.00078,-0,-0,1,353.088,266.416)">
                    <path d="M1481.34,1112.82L1413.52,1151.6L1395.28,1075.64L1481.34,1112.82Z" style="fill:rgb(61,18,68);"/>
                    <path d="M1455.52,728.944C1487.5,851.781 1483.53,977.128 1433.35,1105.7" style="fill:none;stroke:rgb(61,18,68);stroke-width:20.83px;"/>
                </g>
            </g>
            <g transform="matrix(0.99922,0,0,1,-297.135,-11.1431)">
                <g transform="matrix(1,0,0,1,297.54,14.7193)">
                    <g transform="matrix(0.765698,0,0,0.925691,390.373,112.221)">
                        <rect x="354.293" y="966.832" width="169.677" height="140.351" style="fill:rgb(160,9,117);"/>
                        <path d="M523.97,966.832L354.293,966.832L354.293,1107.18L523.97,1107.18L523.97,966.832ZM507.632,980.335L507.632,1093.68C507.632,1093.68 370.631,1093.68 370.631,1093.68C370.631,1093.68 370.631,980.335 370.631,980.335L507.632,980.335Z" style="fill:rgb(61,18,68);"/>
                    </g>
                    <g transform="matrix(0.765698,0,0,0.925691,544.053,112.221)">
                        <rect x="354.293" y="966.832" width="169.677" height="140.351" style="fill:rgb(67,138,254);"/>
                        <path d="M523.97,966.832L354.293,966.832L354.293,1107.18L523.97,1107.18L523.97,966.832ZM507.632,980.335L507.632,1093.68C507.632,1093.68 370.631,1093.68 370.631,1093.68C370.631,1093.68 370.631,980.335 370.631,980.335L507.632,980.335Z" style="fill:rgb(61,18,68);"/>
                    </g>
                    <g transform="matrix(0.765698,0,0,0.925691,544.053,-41.185)">
                        <rect x="354.293" y="966.832" width="169.677" height="140.351" style="fill:rgb(67,138,254);"/>
                        <path d="M523.97,966.832L354.293,966.832L354.293,1107.18L523.97,1107.18L523.97,966.832ZM507.632,980.335L507.632,1093.68C507.632,1093.68 370.631,1093.68 370.631,1093.68C370.631,1093.68 370.631,980.335 370.631,980.335L507.632,980.335Z" style="fill:rgb(61,18,68);"/>
                    </g>
                    <g transform="matrix(0.765698,0,0,0.925691,236.692,112.221)">
                        <rect x="354.293" y="966.832" width="169.677" height="140.351" style="fill:rgb(160,9,117);"/>
                        <path d="M523.97,966.832L354.293,966.832L354.293,1107.18L523.97,1107.18L523.97,966.832ZM507.632,980.335L507.632,1093.68C507.632,1093.68 370.631,1093.68 370.631,1093.68C370.631,1093.68 370.631,980.335 370.631,980.335L507.632,980.335Z" style="fill:rgb(61,18,68);"/>
                    </g>
                    <g transform="matrix(0.765698,0,0,0.925691,83.0117,112.221)">
                        <rect x="354.293" y="966.832" width="169.677" height="140.351" style="fill:rgb(160,9,117);"/>
                        <path d="M523.97,966.832L354.293,966.832L354.293,1107.18L523.97,1107.18L523.97,966.832ZM507.632,980.335L507.632,1093.68C507.632,1093.68 370.631,1093.68 370.631,1093.68C370.631,1093.68 370.631,980.335 370.631,980.335L507.632,980.335Z" style="fill:rgb(61,18,68);"/>
                    </g>
                    <g transform="matrix(1,0,0,1,-297.54,-14.7193)">
                        <g transform="matrix(1.00078,-0,-0,1,650.731,277.559)">
                            <path d="M72.261,784.329L72.261,834.329" style="fill:none;stroke:rgb(61,18,68);stroke-width:12.5px;stroke-linejoin:miter;stroke-miterlimit:10;"/>
                            <path d="M489.193,790.579L526.693,809.329L489.193,828.079L489.193,790.579Z" style="fill:rgb(61,18,68);"/>
                            <path d="M72.261,809.329L496.693,809.329" style="fill:none;stroke:rgb(61,18,68);stroke-width:12.5px;"/>
                        </g>
                    </g>
                </g>
                <g transform="matrix(1,0,0,1,297.54,168.126)">
                    <g transform="matrix(0.765698,0,0,0.925691,390.373,112.221)">
                        <rect x="354.293" y="966.832" width="169.677" height="140.351" style="fill:rgb(160,9,117);"/>
                        <path d="M523.97,966.832L354.293,966.832L354.293,1107.18L523.97,1107.18L523.97,966.832ZM507.632,980.335L507.632,1093.68C507.632,1093.68 370.631,1093.68 370.631,1093.68C370.631,1093.68 370.631,980.335 370.631,980.335L507.632,980.335Z" style="fill:rgb(61,18,68);"/>
                    </g>
                    <g transform="matrix(0.765698,0,0,0.925691,544.053,112.221)">
                        <rect x="354.293" y="966.832" width="169.677" height="140.351" style="fill:rgb(67,138,254);"/>
                        <path d="M523.97,966.832L354.293,966.832L354.293,1107.18L523.97,1107.18L523.97,966.832ZM507.632,980.335L507.632,1093.68C507.632,1093.68 370.631,1093.68 370.631,1093.68C370.631,1093.68 370.631,980.335 370.631,980.335L507.632,980.335Z" style="fill:rgb(61,18,68);"/>
                    </g>
                    <g transform="matrix(0.765698,0,0,0.925691,236.692,112.221)">
                        <rect x="354.293" y="966.832" width="169.677" height="140.351" style="fill:rgb(160,9,117);"/>
                        <path d="M523.97,966.832L354.293,966.832L354.293,1107.18L523.97,1107.18L523.97,966.832ZM507.632,980.335L507.632,1093.68C507.632,1093.68 370.631,1093.68 370.631,1093.68C370.631,1093.68 370.631,980.335 370.631,980.335L507.632,980.335Z" style="fill:rgb(61,18,68);"/>
                    </g>
                    <g transform="matrix(0.765698,0,0,0.925691,83.0117,112.221)">
                        <rect x="354.293" y="966.832" width="169.677" height="140.351" style="fill:rgb(160,9,117);"/>
                        <path d="M523.97,966.832L354.293,966.832L354.293,1107.18L523.97,1107.18L523.97,966.832ZM507.632,980.335L507.632,1093.68C507.632,1093.68 370.631,1093.68 370.631,1093.68C370.631,1093.68 370.631,980.335 370.631,980.335L507.632,980.335Z" style="fill:rgb(61,18,68);"/>
                    </g>
                    <g transform="matrix(1,0,0,1,-297.54,-14.7193)">
                        <g transform="matrix(1.00078,-0,-0,1,650.731,124.153)">
                            <path d="M72.261,937.736L72.261,987.736" style="fill:none;stroke:rgb(61,18,68);stroke-width:12.5px;stroke-linejoin:miter;stroke-miterlimit:10;"/>
                            <path d="M489.193,943.986L526.693,962.736L489.193,981.486L489.193,943.986Z" style="fill:rgb(61,18,68);"/>
                            <path d="M72.261,962.736L496.693,962.736" style="fill:none;stroke:rgb(61,18,68);stroke-width:12.5px;"/>
                        </g>
                    </g>
                </g>
                <g transform="matrix(1,0,0,1,297.54,321.532)">
                    <g transform="matrix(0.765698,0,0,0.925691,390.373,112.221)">
                        <rect x="354.293" y="966.832" width="169.677" height="140.351" style="fill:rgb(160,9,117);"/>
                        <path d="M523.97,966.832L354.293,966.832L354.293,1107.18L523.97,1107.18L523.97,966.832ZM507.632,980.335L507.632,1093.68C507.632,1093.68 370.631,1093.68 370.631,1093.68C370.631,1093.68 370.631,980.335 370.631,980.335L507.632,980.335Z" style="fill:rgb(61,18,68);"/>
                    </g>
                    <g transform="matrix(0.765698,0,0,0.925691,544.053,112.221)">
                        <rect x="354.293" y="966.832" width="169.677" height="140.351" style="fill:rgb(67,138,254);"/>
                        <path d="M523.97,966.832L354.293,966.832L354.293,1107.18L523.97,1107.18L523.97,966.832ZM507.632,980.335L507.632,1093.68C507.632,1093.68 370.631,1093.68 370.631,1093.68C370.631,1093.68 370.631,980.335 370.631,980.335L507.632,980.335Z" style="fill:rgb(61,18,68);"/>
                    </g>
                    <g transform="matrix(0.765698,0,0,0.925691,236.692,112.221)">
                        <rect x="354.293" y="966.832" width="169.677" height="140.351" style="fill:rgb(160,9,117);"/>
                        <path d="M523.97,966.832L354.293,966.832L354.293,1107.18L523.97,1107.18L523.97,966.832ZM507.632,980.335L507.632,1093.68C507.632,1093.68 370.631,1093.68 370.631,1093.68C370.631,1093.68 370.631,980.335 370.631,980.335L507.632,980.335Z" style="fill:rgb(61,18,68);"/>
                    </g>
                    <g transform="matrix(0.765698,0,0,0.925691,83.0117,112.221)">
                        <rect x="354.293" y="966.832" width="169.677" height="140.351" style="fill:rgb(160,9,117);"/>
                        <path d="M523.97,966.832L354.293,966.832L354.293,1107.18L523.97,1107.18L523.97,966.832ZM507.632,980.335L507.632,1093.68C507.632,1093.68 370.631,1093.68 370.631,1093.68C370.631,1093.68 370.631,980.335 370.631,980.335L507.632,980.335Z" style="fill:rgb(61,18,68);"/>
                    </g>
                    <g transform="matrix(1,0,0,1,-297.54,-14.7193)">
                        <g transform="matrix(1.00078,-0,-0,1,650.731,-29.2533)">
                            <path d="M72.261,1091.14L72.261,1141.14" style="fill:none;stroke:rgb(61,18,68);stroke-width:12.5px;stroke-linejoin:miter;stroke-miterlimit:10;"/>
                            <path d="M489.193,1097.39L526.693,1116.14L489.193,1134.89L489.193,1097.39Z" style="fill:rgb(61,18,68);"/>
                            <path d="M72.261,1116.14L496.693,1116.14" style="fill:none;stroke:rgb(61,18,68);stroke-width:12.5px;"/>
                        </g>
                    </g>
                    <g transform="matrix(1,0,0,1.01115,-297.54,-329.372)">
                        <path d="M1177.84,898.755L1177.84,963.126" style="fill:none;stroke:rgb(61,18,68);stroke-width:12.44px;"/>
                    </g>
                    <g transform="matrix(-1.83697e-16,1,-1.01115,-1.85746e-16,1821.62,-565.884)">
                        <path d="M1177.84,898.755L1177.84,963.126" style="fill:none;stroke:rgb(61,18,68);stroke-width:12.44px;"/>
                    </g>
                </g>
                <g transform="matrix(0.740116,0,0,1.31604,389.821,-273.945)">
                    <rect x="354.293" y="868.11" width="590.551" height="98.721" style="fill:rgb(67,138,254);"/>
                    <path d="M944.844,868.11L354.293,868.11L354.293,966.832L944.844,966.832L944.844,868.11ZM927.942,877.608L927.942,957.333C842.284,957.334 456.853,957.334 371.196,957.334C371.196,957.333 371.196,877.608 371.196,877.608C466.05,877.608 927.942,877.608 927.942,877.608L927.942,877.608Z" style="fill:rgb(61,18,68);"/>
                </g>
            </g>
            <g transform="matrix(0.99922,0,0,1,0.275336,0)">
                <rect x="1535.57" y="1447.52" width="590.551" height="590.551" style="fill:none;"/>
                <g>
                    <g>
                        <g transform="matrix(1.02449,0,0,1.03853,-211.627,-79.1036)">
                            <ellipse cx="1911.98" cy="1541.07" rx="43.232" ry="42.648" style="fill:rgb(67,138,254);"/>
                            <path d="M1911.98,1498.42C1935.84,1498.42 1955.21,1517.53 1955.21,1541.07C1955.21,1564.6 1935.84,1583.71 1911.98,1583.71C1888.12,1583.71 1868.75,1564.6 1868.75,1541.07C1868.75,1517.53 1888.12,1498.42 1911.98,1498.42ZM1911.98,1510.45C1929.11,1510.45 1943,1524.17 1943,1541.07C1943,1557.96 1929.11,1571.68 1911.98,1571.68C1894.86,1571.68 1880.96,1557.96 1880.96,1541.07C1880.96,1524.17 1894.86,1510.45 1911.98,1510.45Z" style="fill:rgb(61,18,68);"/>
                        </g>
                        <g transform="matrix(1.02449,0,0,1.03853,-378.95,68.5342)">
                            <ellipse cx="1911.98" cy="1541.07" rx="43.232" ry="42.648" style="fill:rgb(67,138,254);"/>
                            <path d="M1911.98,1498.42C1935.84,1498.42 1955.21,1517.53 1955.21,1541.07C1955.21,1564.6 1935.84,1583.71 1911.98,1583.71C1888.12,1583.71 1868.75,1564.6 1868.75,1541.07C1868.75,1517.53 1888.12,1498.42 1911.98,1498.42ZM1911.98,1510.45C1929.11,1510.45 1943,1524.17 1943,1541.07C1943,1557.96 1929.11,1571.68 1911.98,1571.68C1894.86,1571.68 1880.96,1557.96 1880.96,1541.07C1880.96,1524.17 1894.86,1510.45 1911.98,1510.45Z" style="fill:rgb(61,18,68);"/>
                        </g>
                        <g transform="matrix(1.02449,0,0,1.03853,-44.3043,68.5342)">
                            <ellipse cx="1911.98" cy="1541.07" rx="43.232" ry="42.648" style="fill:rgb(67,138,254);"/>
                            <path d="M1911.98,1498.42C1935.84,1498.42 1955.21,1517.53 1955.21,1541.07C1955.21,1564.6 1935.84,1583.71 1911.98,1583.71C1888.12,1583.71 1868.75,1564.6 1868.75,1541.07C1868.75,1517.53 1888.12,1498.42 1911.98,1498.42ZM1911.98,1510.45C1929.11,1510.45 1943,1524.17 1943,1541.07C1943,1557.96 1929.11,1571.68 1911.98,1571.68C1894.86,1571.68 1880.96,1557.96 1880.96,1541.07C1880.96,1524.17 1894.86,1510.45 1911.98,1510.45Z" style="fill:rgb(61,18,68);"/>
                        </g>
                        <g transform="matrix(1.02449,0,0,1.03853,123.019,216.172)">
                            <ellipse cx="1911.98" cy="1541.07" rx="43.232" ry="42.648" style="fill:rgb(67,138,254);"/>
                            <path d="M1911.98,1498.42C1935.84,1498.42 1955.21,1517.53 1955.21,1541.07C1955.21,1564.6 1935.84,1583.71 1911.98,1583.71C1888.12,1583.71 1868.75,1564.6 1868.75,1541.07C1868.75,1517.53 1888.12,1498.42 1911.98,1498.42ZM1911.98,1510.45C1929.11,1510.45 1943,1524.17 1943,1541.07C1943,1557.96 1929.11,1571.68 1911.98,1571.68C1894.86,1571.68 1880.96,1557.96 1880.96,1541.07C1880.96,1524.17 1894.86,1510.45 1911.98,1510.45Z" style="fill:rgb(61,18,68);"/>
                        </g>
                        <g transform="matrix(1.02449,0,0,1.03853,-211.627,216.172)">
                            <ellipse cx="1911.98" cy="1541.07" rx="43.232" ry="42.648" style="fill:rgb(67,138,254);"/>
                            <path d="M1911.98,1498.42C1935.84,1498.42 1955.21,1517.53 1955.21,1541.07C1955.21,1564.6 1935.84,1583.71 1911.98,1583.71C1888.12,1583.71 1868.75,1564.6 1868.75,1541.07C1868.75,1517.53 1888.12,1498.42 1911.98,1498.42ZM1911.98,1510.45C1929.11,1510.45 1943,1524.17 1943,1541.07C1943,1557.96 1929.11,1571.68 1911.98,1571.68C1894.86,1571.68 1880.96,1557.96 1880.96,1541.07C1880.96,1524.17 1894.86,1510.45 1911.98,1510.45Z" style="fill:rgb(61,18,68);"/>
                        </g>
                        <g transform="matrix(1.02449,0,0,1.03853,-44.3043,363.81)">
                            <ellipse cx="1911.98" cy="1541.07" rx="43.232" ry="42.648" style="fill:rgb(67,138,254);"/>
                            <path d="M1911.98,1498.42C1935.84,1498.42 1955.21,1517.53 1955.21,1541.07C1955.21,1564.6 1935.84,1583.71 1911.98,1583.71C1888.12,1583.71 1868.75,1564.6 1868.75,1541.07C1868.75,1517.53 1888.12,1498.42 1911.98,1498.42ZM1911.98,1510.45C1929.11,1510.45 1943,1524.17 1943,1541.07C1943,1557.96 1929.11,1571.68 1911.98,1571.68C1894.86,1571.68 1880.96,1557.96 1880.96,1541.07C1880.96,1524.17 1894.86,1510.45 1911.98,1510.45Z" style="fill:rgb(61,18,68);"/>
                        </g>
                    </g>
                    <g>
                        <g transform="matrix(1,0,0,1,1.70745,0)">
                            <g transform="matrix(1.05766,0,0,1.04318,-99.7615,-70.2819)">
                                <g transform="matrix(0.946221,-0,-0,0.958609,426.548,322.762)">
                                    <path d="M1390.21,1468.41L1377.71,1505.91L1365.21,1468.41L1390.21,1468.41Z" style="fill:rgb(61,18,68);"/>
                                    <path d="M1377.71,1299.21L1377.71,1475.91" style="fill:none;stroke:rgb(61,18,68);stroke-width:8.33px;"/>
                                </g>
                            </g>
                            <g transform="matrix(-1.05766,-1.29526e-16,1.27752e-16,-1.04318,3590.72,3408.23)">
                                <g transform="matrix(-0.946221,1.17487e-16,-1.15788e-16,-0.958609,3062.74,3011.77)">
                                    <path d="M1395.82,1336.71L1408.32,1299.21L1420.82,1336.71L1395.82,1336.71Z" style="fill:rgb(61,18,68);"/>
                                    <path d="M1408.32,1505.91L1408.32,1329.21" style="fill:none;stroke:rgb(61,18,68);stroke-width:8.33px;"/>
                                </g>
                            </g>
                        </g>
                        <g transform="matrix(1,0,0,1,169.03,147.638)">
                            <g transform="matrix(1.05766,0,0,1.04318,-99.7615,-70.2819)">
                                <g transform="matrix(0.946221,-0,-0,0.958609,268.347,181.235)">
                                    <path d="M1557.4,1616.04L1544.9,1653.54L1532.4,1616.04L1557.4,1616.04Z" style="fill:rgb(61,18,68);"/>
                                    <path d="M1544.9,1446.85L1544.9,1623.54" style="fill:none;stroke:rgb(61,18,68);stroke-width:8.33px;"/>
                                </g>
                            </g>
                            <g transform="matrix(-1.05766,-1.29526e-16,1.27752e-16,-1.04318,3590.72,3408.23)">
                                <g transform="matrix(-0.946221,1.17487e-16,-1.15788e-16,-0.958609,3220.94,3153.3)">
                                    <path d="M1563.01,1484.35L1575.51,1446.85L1588.01,1484.35L1563.01,1484.35Z" style="fill:rgb(61,18,68);"/>
                                    <path d="M1575.51,1653.54L1575.51,1476.85" style="fill:none;stroke:rgb(61,18,68);stroke-width:8.33px;"/>
                                </g>
                            </g>
                        </g>
                        <g transform="matrix(3.13514e-17,-0.982472,0.504997,5.93353e-17,999.543,3516.45)">
                            <g transform="matrix(1.19686e-16,1.98175,-1.01784,6.319e-17,3308.02,-1280.12)">
                                <path d="M1499.75,1537.7L1537.25,1550.2L1499.75,1562.7L1499.75,1537.7Z" style="fill:rgb(61,18,68);"/>
                                <path d="M1437.27,1550.2L1507.25,1550.2" style="fill:none;stroke:rgb(61,18,68);stroke-width:8.33px;stroke-dasharray:16.67,16.67,16.67,16.67;"/>
                            </g>
                        </g>
                        <g transform="matrix(3.13514e-17,-0.982472,0.504997,5.93353e-17,831.454,3368.81)">
                            <g transform="matrix(1.19686e-16,1.98175,-1.01784,6.319e-17,3157.75,-947.264)">
                                <path d="M1331.79,1390.06L1369.29,1402.56L1331.79,1415.06L1331.79,1390.06Z" style="fill:rgb(61,18,68);"/>
                                <path d="M1269.31,1402.56L1339.29,1402.56" style="fill:none;stroke:rgb(61,18,68);stroke-width:8.33px;stroke-dasharray:16.67,16.67,16.67,16.67;"/>
                            </g>
                        </g>
                        <g transform="matrix(8.89666e-17,0.982472,-0.504997,2.50902e-18,2661.95,-30.8634)">
                            <g transform="matrix(5.06097e-18,-1.98175,1.01784,1.79316e-16,302.583,4572.04)">
                                <path d="M1453.27,1415.06L1415.77,1402.56L1453.27,1390.06L1453.27,1415.06Z" style="fill:rgb(61,18,68);"/>
                                <path d="M1515.75,1402.56L1445.77,1402.56" style="fill:none;stroke:rgb(61,18,68);stroke-width:8.33px;stroke-dasharray:16.67,16.67,16.67,16.67;"/>
                            </g>
                        </g>
                        <g transform="matrix(8.89666e-17,0.982472,-0.504997,2.50902e-18,2829.48,116.774)">
                            <g transform="matrix(5.06097e-18,-1.98175,1.01784,1.79316e-16,152.311,4903.77)">
                                <path d="M1620.66,1562.7L1583.16,1550.2L1620.66,1537.7L1620.66,1562.7Z" style="fill:rgb(61,18,68);"/>
                                <path d="M1683.14,1550.2L1613.16,1550.2" style="fill:none;stroke:rgb(61,18,68);stroke-width:8.33px;stroke-dasharray:16.67,16.67,16.67,16.67;"/>
                            </g>
                        </g>
                    </g>
                </g>
            </g>
            <g transform="matrix(0.99922,0,0,1,0.275336,0)">
                <g transform="matrix(0.984795,0,0,0.979489,27.8341,5.76172)">
                    <path d="M1535.58,475.497L1537.17,853.539C1726.95,675.971 1903.89,532.235 2126.12,580.259L2124.54,272.199L2068.2,272.199C1970.61,424.084 1737.81,525.158 1535.58,475.497Z" style="fill:rgb(67,138,254);fill-opacity:0.33;stroke:rgb(61,18,68);stroke-width:8.49px;"/>
                </g>
                <g transform="matrix(0.970486,0,0,0.965256,54.0599,12.7826)">
                    <path d="M1537.17,560.92L1537.17,781.115C1732.29,610.452 1928.18,491.219 2126.12,507.834L2126.12,287.639C1978.4,466.955 1786.44,565.951 1537.17,560.92Z" style="fill:rgb(67,138,254);fill-opacity:0.66;stroke:rgb(61,18,68);stroke-width:8.61px;"/>
                </g>
                <g>
                    <g transform="matrix(0.83475,0,0,0.755541,1147.01,-275.91)">
                        <path d="M1172.94,717.799L465.483,717.799L465.483,1499.43L1172.94,1499.43L1172.94,717.799ZM1157.96,734.344L1157.96,1482.88C1157.96,1482.88 581.398,1482.88 480.47,1482.88C480.47,1482.88 480.47,845.818 480.47,734.344C480.47,734.344 1157.96,734.344 1157.96,734.344L1157.96,734.344Z" style="fill:rgb(61,18,68);"/>
                    </g>
                    <g>
                        <g transform="matrix(0.978891,0,0,0.979808,-131.028,14.089)">
                            <g transform="matrix(1,0,0,1,745.464,144.834)">
                                <path d="M1535.57,561.692L1554,561.692" style="fill:none;stroke:rgb(61,18,68);stroke-width:8.51px;"/>
                            </g>
                            <g transform="matrix(1,0,0,1,745.464,-298.08)">
                                <path d="M1535.57,561.692L1554,561.692" style="fill:none;stroke:rgb(61,18,68);stroke-width:8.51px;"/>
                            </g>
                            <g transform="matrix(1,0,0,1,745.464,71.0146)">
                                <path d="M1535.57,561.692L1554,561.692" style="fill:none;stroke:rgb(61,18,68);stroke-width:8.51px;"/>
                            </g>
                            <g transform="matrix(1,0,0,1,745.464,-2.80425)">
                                <path d="M1535.57,561.692L1554,561.692" style="fill:none;stroke:rgb(61,18,68);stroke-width:8.51px;"/>
                            </g>
                            <g transform="matrix(1,0,0,1,745.464,-76.6231)">
                                <path d="M1535.57,561.692L1554,561.692" style="fill:none;stroke:rgb(61,18,68);stroke-width:8.51px;"/>
                            </g>
                            <g transform="matrix(1,0,0,1,745.464,292.471)">
                                <path d="M1535.57,561.692L1554,561.692" style="fill:none;stroke:rgb(61,18,68);stroke-width:8.51px;"/>
                            </g>
                            <g transform="matrix(1,0,0,1,745.464,218.652)">
                                <path d="M1535.57,561.692L1554,561.692" style="fill:none;stroke:rgb(61,18,68);stroke-width:8.51px;"/>
                            </g>
                            <g transform="matrix(1,0,0,1,745.464,-150.442)">
                                <path d="M1535.57,561.692L1554,561.692" style="fill:none;stroke:rgb(61,18,68);stroke-width:8.51px;"/>
                            </g>
                            <g transform="matrix(1,0,0,1,745.464,-224.261)">
                                <path d="M1535.57,561.692L1554,561.692" style="fill:none;stroke:rgb(61,18,68);stroke-width:8.51px;"/>
                            </g>
                        </g>
                        <g transform="matrix(5.99398e-17,0.979808,-0.978891,5.9996e-17,2377.94,-1962.6)">
                            <g transform="matrix(1,0,0,1,745.464,144.834)">
                                <path d="M1535.57,561.692L1554,561.692" style="fill:none;stroke:rgb(61,18,68);stroke-width:8.51px;"/>
                            </g>
                            <g transform="matrix(1,0,0,1,745.464,-298.08)">
                                <path d="M1535.57,561.692L1554,561.692" style="fill:none;stroke:rgb(61,18,68);stroke-width:8.51px;"/>
                            </g>
                            <g transform="matrix(1,0,0,1,745.464,71.0146)">
                                <path d="M1535.57,561.692L1554,561.692" style="fill:none;stroke:rgb(61,18,68);stroke-width:8.51px;"/>
                            </g>
                            <g transform="matrix(1,0,0,1,745.464,-2.80425)">
                                <path d="M1535.57,561.692L1554,561.692" style="fill:none;stroke:rgb(61,18,68);stroke-width:8.51px;"/>
                            </g>
                            <g transform="matrix(1,0,0,1,745.464,-76.6231)">
                                <path d="M1535.57,561.692L1554,561.692" style="fill:none;stroke:rgb(61,18,68);stroke-width:8.51px;"/>
                            </g>
                            <g transform="matrix(1,0,0,1,745.464,292.471)">
                                <path d="M1535.57,561.692L1554,561.692" style="fill:none;stroke:rgb(61,18,68);stroke-width:8.51px;"/>
                            </g>
                            <g transform="matrix(1,0,0,1,745.464,218.652)">
                                <path d="M1535.57,561.692L1554,561.692" style="fill:none;stroke:rgb(61,18,68);stroke-width:8.51px;"/>
                            </g>
                            <g transform="matrix(1,0,0,1,745.464,-150.442)">
                                <path d="M1535.57,561.692L1554,561.692" style="fill:none;stroke:rgb(61,18,68);stroke-width:8.51px;"/>
                            </g>
                            <g transform="matrix(1,0,0,1,745.464,-224.261)">
                                <path d="M1535.57,561.692L1554,561.692" style="fill:none;stroke:rgb(61,18,68);stroke-width:8.51px;"/>
                            </g>
                        </g>
                        <g transform="matrix(5.99398e-17,0.979808,-0.978891,5.9996e-17,2377.94,-1402.02)">
                            <g transform="matrix(1,0,0,1,745.464,144.834)">
                                <path d="M1535.57,561.692L1554,561.692" style="fill:none;stroke:rgb(61,18,68);stroke-width:8.51px;"/>
                            </g>
                            <g transform="matrix(1,0,0,1,745.464,-298.08)">
                                <path d="M1535.57,561.692L1554,561.692" style="fill:none;stroke:rgb(61,18,68);stroke-width:8.51px;"/>
                            </g>
                            <g transform="matrix(1,0,0,1,745.464,71.0146)">
                                <path d="M1535.57,561.692L1554,561.692" style="fill:none;stroke:rgb(61,18,68);stroke-width:8.51px;"/>
                            </g>
                            <g transform="matrix(1,0,0,1,745.464,-2.80425)">
                                <path d="M1535.57,561.692L1554,561.692" style="fill:none;stroke:rgb(61,18,68);stroke-width:8.51px;"/>
                            </g>
                            <g transform="matrix(1,0,0,1,745.464,-76.6231)">
                                <path d="M1535.57,561.692L1554,561.692" style="fill:none;stroke:rgb(61,18,68);stroke-width:8.51px;"/>
                            </g>
                            <g transform="matrix(1,0,0,1,745.464,292.471)">
                                <path d="M1535.57,561.692L1554,561.692" style="fill:none;stroke:rgb(61,18,68);stroke-width:8.51px;"/>
                            </g>
                            <g transform="matrix(1,0,0,1,745.464,218.652)">
                                <path d="M1535.57,561.692L1554,561.692" style="fill:none;stroke:rgb(61,18,68);stroke-width:8.51px;"/>
                            </g>
                            <g transform="matrix(1,0,0,1,745.464,-150.442)">
                                <path d="M1535.57,561.692L1554,561.692" style="fill:none;stroke:rgb(61,18,68);stroke-width:8.51px;"/>
                            </g>
                            <g transform="matrix(1,0,0,1,745.464,-224.261)">
                                <path d="M1535.57,561.692L1554,561.692" style="fill:none;stroke:rgb(61,18,68);stroke-width:8.51px;"/>
                            </g>
                        </g>
                        <g transform="matrix(0.978891,0,0,0.979808,-691.079,14.089)">
                            <g transform="matrix(1,0,0,1,745.464,144.834)">
                                <path d="M1535.57,561.692L1554,561.692" style="fill:none;stroke:rgb(61,18,68);stroke-width:8.51px;"/>
                            </g>
                            <g transform="matrix(1,0,0,1,745.464,-298.08)">
                                <path d="M1535.57,561.692L1554,561.692" style="fill:none;stroke:rgb(61,18,68);stroke-width:8.51px;"/>
                            </g>
                            <g transform="matrix(1,0,0,1,745.464,71.0146)">
                                <path d="M1535.57,561.692L1554,561.692" style="fill:none;stroke:rgb(61,18,68);stroke-width:8.51px;"/>
                            </g>
                            <g transform="matrix(1,0,0,1,745.464,-2.80425)">
                                <path d="M1535.57,561.692L1554,561.692" style="fill:none;stroke:rgb(61,18,68);stroke-width:8.51px;"/>
                            </g>
                            <g transform="matrix(1,0,0,1,745.464,-76.6231)">
                                <path d="M1535.57,561.692L1554,561.692" style="fill:none;stroke:rgb(61,18,68);stroke-width:8.51px;"/>
                            </g>
                            <g transform="matrix(1,0,0,1,745.464,292.471)">
                                <path d="M1535.57,561.692L1554,561.692" style="fill:none;stroke:rgb(61,18,68);stroke-width:8.51px;"/>
                            </g>
                            <g transform="matrix(1,0,0,1,745.464,218.652)">
                                <path d="M1535.57,561.692L1554,561.692" style="fill:none;stroke:rgb(61,18,68);stroke-width:8.51px;"/>
                            </g>
                            <g transform="matrix(1,0,0,1,745.464,-150.442)">
                                <path d="M1535.57,561.692L1554,561.692" style="fill:none;stroke:rgb(61,18,68);stroke-width:8.51px;"/>
                            </g>
                            <g transform="matrix(1,0,0,1,745.464,-224.261)">
                                <path d="M1535.57,561.692L1554,561.692" style="fill:none;stroke:rgb(61,18,68);stroke-width:8.51px;"/>
                            </g>
                        </g>
                    </g>
                </g>
                <g>
                    <g transform="matrix(1,0,0,1,178.944,164.018)">
                        <path d="M1651.46,402.328L1651.46,419.797" style="fill:none;stroke:rgb(61,18,68);stroke-width:8.34px;"/>
                        <g transform="matrix(-1.83697e-16,1,-1,-1.83697e-16,2062.52,-1240.39)">
                            <path d="M1651.46,402.328L1651.46,419.797" style="fill:none;stroke:rgb(61,18,68);stroke-width:8.34px;"/>
                        </g>
                    </g>
                    <g transform="matrix(1,0,0,1,187.678,112.649)">
                        <path d="M1651.46,402.328L1651.46,419.797" style="fill:none;stroke:rgb(61,18,68);stroke-width:8.34px;"/>
                        <g transform="matrix(-1.83697e-16,1,-1,-1.83697e-16,2062.52,-1240.39)">
                            <path d="M1651.46,402.328L1651.46,419.797" style="fill:none;stroke:rgb(61,18,68);stroke-width:8.34px;"/>
                        </g>
                    </g>
                    <g transform="matrix(1,0,0,1,247.741,112.01)">
                        <path d="M1651.46,402.328L1651.46,419.797" style="fill:none;stroke:rgb(61,18,68);stroke-width:8.34px;"/>
                        <g transform="matrix(-1.83697e-16,1,-1,-1.83697e-16,2062.52,-1240.39)">
                            <path d="M1651.46,402.328L1651.46,419.797" style="fill:none;stroke:rgb(61,18,68);stroke-width:8.34px;"/>
                        </g>
                    </g>
                    <g transform="matrix(1,0,0,1,445.16,64.1546)">
                        <path d="M1651.46,402.328L1651.46,419.797" style="fill:none;stroke:rgb(61,18,68);stroke-width:8.34px;"/>
                        <g transform="matrix(-1.83697e-16,1,-1,-1.83697e-16,2062.52,-1240.39)">
                            <path d="M1651.46,402.328L1651.46,419.797" style="fill:none;stroke:rgb(61,18,68);stroke-width:8.34px;"/>
                        </g>
                    </g>
                    <g transform="matrix(1,0,0,1,61.3498,138.692)">
                        <path d="M1651.46,402.328L1651.46,419.797" style="fill:none;stroke:rgb(61,18,68);stroke-width:8.34px;"/>
                        <g transform="matrix(-1.83697e-16,1,-1,-1.83697e-16,2062.52,-1240.39)">
                            <path d="M1651.46,402.328L1651.46,419.797" style="fill:none;stroke:rgb(61,18,68);stroke-width:8.34px;"/>
                        </g>
                    </g>
                    <g transform="matrix(1,0,0,1,287.577,72.8889)">
                        <path d="M1651.46,402.328L1651.46,419.797" style="fill:none;stroke:rgb(61,18,68);stroke-width:8.34px;"/>
                        <g transform="matrix(-1.83697e-16,1,-1,-1.83697e-16,2062.52,-1240.39)">
                            <path d="M1651.46,402.328L1651.46,419.797" style="fill:none;stroke:rgb(61,18,68);stroke-width:8.34px;"/>
                        </g>
                    </g>
                    <g transform="matrix(1,0,0,1,43.8812,228.721)">
                        <path d="M1651.46,402.328L1651.46,419.797" style="fill:none;stroke:rgb(61,18,68);stroke-width:8.34px;"/>
                        <g transform="matrix(-1.83697e-16,1,-1,-1.83697e-16,2062.52,-1240.39)">
                            <path d="M1651.46,402.328L1651.46,419.797" style="fill:none;stroke:rgb(61,18,68);stroke-width:8.34px;"/>
                        </g>
                    </g>
                    <g transform="matrix(1,0,0,1,230.273,74.2416)">
                        <path d="M1651.46,402.328L1651.46,419.797" style="fill:none;stroke:rgb(61,18,68);stroke-width:8.34px;"/>
                        <g transform="matrix(-1.83697e-16,1,-1,-1.83697e-16,2062.52,-1240.39)">
                            <path d="M1651.46,402.328L1651.46,419.797" style="fill:none;stroke:rgb(61,18,68);stroke-width:8.34px;"/>
                        </g>
                    </g>
                    <g transform="matrix(1,0,0,1,-29.553,208.124)">
                        <path d="M1651.46,402.328L1651.46,419.797" style="fill:none;stroke:rgb(61,18,68);stroke-width:8.34px;"/>
                        <g transform="matrix(-1.83697e-16,1,-1,-1.83697e-16,2062.52,-1240.39)">
                            <path d="M1651.46,402.328L1651.46,419.797" style="fill:none;stroke:rgb(61,18,68);stroke-width:8.34px;"/>
                        </g>
                    </g>
                    <g transform="matrix(1,0,0,1,-70.0041,147.426)">
                        <path d="M1651.46,402.328L1651.46,419.797" style="fill:none;stroke:rgb(61,18,68);stroke-width:8.34px;"/>
                        <g transform="matrix(-1.83697e-16,1,-1,-1.83697e-16,2062.52,-1240.39)">
                            <path d="M1651.46,402.328L1651.46,419.797" style="fill:none;stroke:rgb(61,18,68);stroke-width:8.34px;"/>
                        </g>
                    </g>
                    <g transform="matrix(1,0,0,1,245.508,92.2187)">
                        <path d="M1651.46,402.328L1651.46,419.797" style="fill:none;stroke:rgb(61,18,68);stroke-width:8.34px;"/>
                        <g transform="matrix(-1.83697e-16,1,-1,-1.83697e-16,2062.52,-1240.39)">
                            <path d="M1651.46,402.328L1651.46,419.797" style="fill:none;stroke:rgb(61,18,68);stroke-width:8.34px;"/>
                        </g>
                    </g>
                    <g transform="matrix(1,0,0,1,430.588,-22.434)">
                        <path d="M1651.46,402.328L1651.46,419.797" style="fill:none;stroke:rgb(61,18,68);stroke-width:8.34px;"/>
                        <g transform="matrix(-1.83697e-16,1,-1,-1.83697e-16,2062.52,-1240.39)">
                            <path d="M1651.46,402.328L1651.46,419.797" style="fill:none;stroke:rgb(61,18,68);stroke-width:8.34px;"/>
                        </g>
                    </g>
                    <g transform="matrix(1,0,0,1,338.547,21.9519)">
                        <path d="M1651.46,402.328L1651.46,419.797" style="fill:none;stroke:rgb(61,18,68);stroke-width:8.34px;"/>
                        <g transform="matrix(-1.83697e-16,1,-1,-1.83697e-16,2062.52,-1240.39)">
                            <path d="M1651.46,402.328L1651.46,419.797" style="fill:none;stroke:rgb(61,18,68);stroke-width:8.34px;"/>
                        </g>
                    </g>
                    <g transform="matrix(1,0,0,1,379.585,81.6232)">
                        <path d="M1651.46,402.328L1651.46,419.797" style="fill:none;stroke:rgb(61,18,68);stroke-width:8.34px;"/>
                        <g transform="matrix(-1.83697e-16,1,-1,-1.83697e-16,2062.52,-1240.39)">
                            <path d="M1651.46,402.328L1651.46,419.797" style="fill:none;stroke:rgb(61,18,68);stroke-width:8.34px;"/>
                        </g>
                    </g>
                    <g transform="matrix(1,0,0,1,313.78,99.0919)">
                        <path d="M1651.46,402.328L1651.46,419.797" style="fill:none;stroke:rgb(61,18,68);stroke-width:8.34px;"/>
                        <g transform="matrix(-1.83697e-16,1,-1,-1.83697e-16,2062.52,-1240.39)">
                            <path d="M1651.46,402.328L1651.46,419.797" style="fill:none;stroke:rgb(61,18,68);stroke-width:8.34px;"/>
                        </g>
                    </g>
                    <g transform="matrix(1,0,0,1,151.001,117.531)">
                        <path d="M1651.46,402.328L1651.46,419.797" style="fill:none;stroke:rgb(61,18,68);stroke-width:8.34px;"/>
                        <g transform="matrix(-1.83697e-16,1,-1,-1.83697e-16,2062.52,-1240.39)">
                            <path d="M1651.46,402.328L1651.46,419.797" style="fill:none;stroke:rgb(61,18,68);stroke-width:8.34px;"/>
                        </g>
                    </g>
                    <g transform="matrix(1,0,0,1,78.8185,190.656)">
                        <path d="M1651.46,402.328L1651.46,419.797" style="fill:none;stroke:rgb(61,18,68);stroke-width:8.34px;"/>
                        <g transform="matrix(-1.83697e-16,1,-1,-1.83697e-16,2062.52,-1240.39)">
                            <path d="M1651.46,402.328L1651.46,419.797" style="fill:none;stroke:rgb(61,18,68);stroke-width:8.34px;"/>
                        </g>
                    </g>
                    <g transform="matrix(1,0,0,1,157.267,146.549)">
                        <path d="M1651.46,402.328L1651.46,419.797" style="fill:none;stroke:rgb(61,18,68);stroke-width:8.34px;"/>
                        <g transform="matrix(-1.83697e-16,1,-1,-1.83697e-16,2062.52,-1240.39)">
                            <path d="M1651.46,402.328L1651.46,419.797" style="fill:none;stroke:rgb(61,18,68);stroke-width:8.34px;"/>
                        </g>
                    </g>
                    <g transform="matrix(1,0,0,1,214.599,112.649)">
                        <path d="M1651.46,402.328L1651.46,419.797" style="fill:none;stroke:rgb(61,18,68);stroke-width:8.34px;"/>
                        <g transform="matrix(-1.83697e-16,1,-1,-1.83697e-16,2062.52,-1240.39)">
                            <path d="M1651.46,402.328L1651.46,419.797" style="fill:none;stroke:rgb(61,18,68);stroke-width:8.34px;"/>
                        </g>
                    </g>
                    <g transform="matrix(1,0,0,1,170.115,190.669)">
                        <path d="M1651.46,402.328L1651.46,419.797" style="fill:none;stroke:rgb(61,18,68);stroke-width:8.34px;"/>
                        <g transform="matrix(-1.83697e-16,1,-1,-1.83697e-16,2062.52,-1240.39)">
                            <path d="M1651.46,402.328L1651.46,419.797" style="fill:none;stroke:rgb(61,18,68);stroke-width:8.34px;"/>
                        </g>
                    </g>
                    <g transform="matrix(1,0,0,1,103.686,135)">
                        <path d="M1651.46,402.328L1651.46,419.797" style="fill:none;stroke:rgb(61,18,68);stroke-width:8.34px;"/>
                        <g transform="matrix(-1.83697e-16,1,-1,-1.83697e-16,2062.52,-1240.39)">
                            <path d="M1651.46,402.328L1651.46,419.797" style="fill:none;stroke:rgb(61,18,68);stroke-width:8.34px;"/>
                        </g>
                    </g>
                    <g transform="matrix(1,0,0,1,203.312,142.126)">
                        <path d="M1651.46,402.328L1651.46,419.797" style="fill:none;stroke:rgb(61,18,68);stroke-width:8.34px;"/>
                        <g transform="matrix(-1.83697e-16,1,-1,-1.83697e-16,2062.52,-1240.39)">
                            <path d="M1651.46,402.328L1651.46,419.797" style="fill:none;stroke:rgb(61,18,68);stroke-width:8.34px;"/>
                        </g>
                    </g>
                    <g transform="matrix(1,0,0,1,287.577,117.531)">
                        <path d="M1651.46,402.328L1651.46,419.797" style="fill:none;stroke:rgb(61,18,68);stroke-width:8.34px;"/>
                        <g transform="matrix(-1.83697e-16,1,-1,-1.83697e-16,2062.52,-1240.39)">
                            <path d="M1651.46,402.328L1651.46,419.797" style="fill:none;stroke:rgb(61,18,68);stroke-width:8.34px;"/>
                        </g>
                    </g>
                    <g transform="matrix(1,0,0,1,5.38426,246.189)">
                        <path d="M1651.46,402.328L1651.46,419.797" style="fill:none;stroke:rgb(61,18,68);stroke-width:8.34px;"/>
                        <g transform="matrix(-1.83697e-16,1,-1,-1.83697e-16,2062.52,-1240.39)">
                            <path d="M1651.46,402.328L1651.46,419.797" style="fill:none;stroke:rgb(61,18,68);stroke-width:8.34px;"/>
                        </g>
                    </g>
                    <g transform="matrix(1,0,0,1,258.586,66.8738)">
                        <path d="M1651.46,402.328L1651.46,419.797" style="fill:none;stroke:rgb(61,18,68);stroke-width:8.34px;"/>
                        <g transform="matrix(-1.83697e-16,1,-1,-1.83697e-16,2062.52,-1240.39)">
                            <path d="M1651.46,402.328L1651.46,419.797" style="fill:none;stroke:rgb(61,18,68);stroke-width:8.34px;"/>
                        </g>
                    </g>
                    <g transform="matrix(1,0,0,1,-12.0844,156.16)">
                        <path d="M1651.46,402.328L1651.46,419.797" style="fill:none;stroke:rgb(61,18,68);stroke-width:8.34px;"/>
                        <g transform="matrix(-1.83697e-16,1,-1,-1.83697e-16,2062.52,-1240.39)">
                            <path d="M1651.46,402.328L1651.46,419.797" style="fill:none;stroke:rgb(61,18,68);stroke-width:8.34px;"/>
                        </g>
                    </g>
                    <g transform="matrix(1,0,0,1,141.439,176.949)">
                        <path d="M1651.46,402.328L1651.46,419.797" style="fill:none;stroke:rgb(61,18,68);stroke-width:8.34px;"/>
                        <g transform="matrix(-1.83697e-16,1,-1,-1.83697e-16,2062.52,-1240.39)">
                            <path d="M1651.46,402.328L1651.46,419.797" style="fill:none;stroke:rgb(61,18,68);stroke-width:8.34px;"/>
                        </g>
                    </g>
                    <g transform="matrix(1,0,0,1,-87.4727,263.658)">
                        <path d="M1651.46,402.328L1651.46,419.797" style="fill:none;stroke:rgb(61,18,68);stroke-width:8.34px;"/>
                        <g transform="matrix(-1.83697e-16,1,-1,-1.83697e-16,2062.52,-1240.39)">
                            <path d="M1651.46,402.328L1651.46,419.797" style="fill:none;stroke:rgb(61,18,68);stroke-width:8.34px;"/>
                        </g>
                    </g>
                    <g transform="matrix(1,0,0,1,412.781,-66.2783)">
                        <path d="M1651.46,402.328L1651.46,419.797" style="fill:none;stroke:rgb(61,18,68);stroke-width:8.34px;"/>
                        <g transform="matrix(-1.83697e-16,1,-1,-1.83697e-16,2062.52,-1240.39)">
                            <path d="M1651.46,402.328L1651.46,419.797" style="fill:none;stroke:rgb(61,18,68);stroke-width:8.34px;"/>
                        </g>
                    </g>
                    <g transform="matrix(1,0,0,1,370.851,-21.8358)">
                        <path d="M1651.46,402.328L1651.46,419.797" style="fill:none;stroke:rgb(61,18,68);stroke-width:8.34px;"/>
                        <g transform="matrix(-1.83697e-16,1,-1,-1.83697e-16,2062.52,-1240.39)">
                            <path d="M1651.46,402.328L1651.46,419.797" style="fill:none;stroke:rgb(61,18,68);stroke-width:8.34px;"/>
                        </g>
                    </g>
                </g>
                <g transform="matrix(0.974972,-5.49302e-17,5.49302e-17,0.974972,48.7196,13.5982)">
                    <path d="M2126.12,400.687L1535.57,673.968" style="fill:none;stroke:rgb(32,1,23);stroke-width:8.55px;"/>
                </g>
            </g>
            <g transform="matrix(0.99922,0,0,1,44.4778,25.1418)">
                <g transform="matrix(1,0,0,1,672.915,1753.94)">
                    <g transform="matrix(0.0312477,0,0,0.0312489,0,0)">
                        <path d="M56,678C56,333 1651,56 3584,56C5518,56 7112,333 7112,678L7112,3131C7112,3476 5518,3752 3584,3752C1651,3752 56,3476 56,3131L56,678Z" style="fill:rgb(160,9,117);"/>
                    </g>
                    <rect x="0" y="0" width="224.483" height="258.991" style="fill:none;"/>
                    <clipPath id="_clip1">
                        <rect x="0" y="0" width="224.483" height="258.991"/>
                    </clipPath>
                    <g clip-path="url(#_clip1)">
                        <g transform="matrix(0.0312477,0,0,0.0312489,0,0)">
                            <path d="M56,678C56,333 1651,56 3584,56C5518,56 7112,333 7112,678L7112,3131C7112,3476 5518,3752 3584,3752C1651,3752 56,3476 56,3131L56,678Z" style="fill:none;stroke:rgb(61,18,68);stroke-width:133px;stroke-linecap:butt;stroke-linejoin:miter;stroke-miterlimit:8;"/>
                        </g>
                        <g transform="matrix(0.0312477,0,0,0.0312489,0,0)">
                            <path d="M56,5129C56,4782 1651,4504 3584,4504C5518,4504 7112,4782 7112,5129L7112,7592C7112,7939 5518,8216 3584,8216C1651,8216 56,7939 56,7592L56,5129Z" style="fill:rgb(160,9,117);"/>
                        </g>
                        <g transform="matrix(0.0312477,0,0,0.0312489,0,0)">
                            <path d="M56,5129C56,4782 1651,4504 3584,4504C5518,4504 7112,4782 7112,5129L7112,7592C7112,7939 5518,8216 3584,8216C1651,8216 56,7939 56,7592L56,5129Z" style="fill:none;stroke:rgb(61,18,68);stroke-width:133px;stroke-linecap:butt;stroke-linejoin:miter;stroke-miterlimit:8;"/>
                        </g>
                        <g transform="matrix(0.0312477,0,0,0.0312489,0,0)">
                            <path d="M7112,5128C7112,5440 5518,5752 3584,5752C1651,5752 56,5440 56,5128" style="fill:rgb(160,9,117);"/>
                        </g>
                        <g transform="matrix(0.0312477,0,0,0.0312489,0,0)">
                            <path d="M7112,5128C7112,5440 5518,5752 3584,5752C1651,5752 56,5440 56,5128" style="fill:none;stroke:rgb(61,18,68);stroke-width:133px;stroke-linecap:butt;stroke-linejoin:miter;stroke-miterlimit:8;"/>
                        </g>
                        <g transform="matrix(0.0312477,0,0,0.0312489,0,0)">
                            <path d="M56,5129C56,4782 1651,4504 3584,4504C5518,4504 7112,4782 7112,5129L7112,7592C7112,7939 5518,8216 3584,8216C1651,8216 56,7939 56,7592L56,5129Z" style="fill:rgb(160,9,117);"/>
                        </g>
                        <g transform="matrix(0.0312477,0,0,0.0312489,0,0)">
                            <path d="M56,5129C56,4782 1651,4504 3584,4504C5518,4504 7112,4782 7112,5129L7112,7592C7112,7939 5518,8216 3584,8216C1651,8216 56,7939 56,7592L56,5129Z" style="fill:none;stroke:rgb(61,18,68);stroke-width:133px;stroke-linecap:butt;stroke-linejoin:miter;stroke-miterlimit:8;"/>
                        </g>
                        <g transform="matrix(0.0312477,0,0,0.0312489,0,0)">
                            <path d="M56,2886C56,2541 1651,2264 3584,2264C5518,2264 7112,2541 7112,2886L7112,5371C7112,5716 5518,5992 3584,5992C1651,5992 56,5716 56,5371L56,2886Z" style="fill:rgb(160,9,117);"/>
                        </g>
                        <g transform="matrix(0.0312477,0,0,0.0312489,0,0)">
                            <path d="M56,2886C56,2541 1651,2264 3584,2264C5518,2264 7112,2541 7112,2886L7112,5371C7112,5716 5518,5992 3584,5992C1651,5992 56,5716 56,5371L56,2886Z" style="fill:none;stroke:rgb(61,18,68);stroke-width:133px;stroke-linecap:butt;stroke-linejoin:miter;stroke-miterlimit:8;"/>
                        </g>
                        <g transform="matrix(0.0312477,0,0,0.0312489,0,0)">
                            <path d="M7112,2888C7112,3235 5518,3512 3584,3512C1651,3512 56,3235 56,2888" style="fill:rgb(160,9,117);"/>
                        </g>
                        <g transform="matrix(0.0312477,0,0,0.0312489,0,0)">
                            <path d="M7112,2888C7112,3235 5518,3512 3584,3512C1651,3512 56,3235 56,2888" style="fill:none;stroke:rgb(61,18,68);stroke-width:133px;stroke-linecap:butt;stroke-linejoin:miter;stroke-miterlimit:8;"/>
                        </g>
                        <g transform="matrix(0.0312477,0,0,0.0312489,0,0)">
                            <path d="M56,2886C56,2541 1651,2264 3584,2264C5518,2264 7112,2541 7112,2886L7112,5371C7112,5716 5518,5992 3584,5992C1651,5992 56,5716 56,5371L56,2886Z" style="fill:rgb(160,9,117);"/>
                        </g>
                        <g transform="matrix(0.0312477,0,0,0.0312489,0,0)">
                            <path d="M56,2886C56,2541 1651,2264 3584,2264C5518,2264 7112,2541 7112,2886L7112,5371C7112,5716 5518,5992 3584,5992C1651,5992 56,5716 56,5371L56,2886Z" style="fill:none;stroke:rgb(61,18,68);stroke-width:133px;stroke-linecap:butt;stroke-linejoin:miter;stroke-miterlimit:8;"/>
                        </g>
                        <g transform="matrix(0.0312477,0,0,0.0312489,0,0)">
                            <path d="M56,678C56,333 1651,56 3584,56C5518,56 7112,333 7112,678L7112,3131C7112,3476 5518,3752 3584,3752C1651,3752 56,3476 56,3131L56,678Z" style="fill:rgb(160,9,117);"/>
                        </g>
                        <g transform="matrix(0.0312477,0,0,0.0312489,0,0)">
                            <path d="M56,678C56,333 1651,56 3584,56C5518,56 7112,333 7112,678L7112,3131C7112,3476 5518,3752 3584,3752C1651,3752 56,3476 56,3131L56,678Z" style="fill:none;stroke:rgb(61,18,68);stroke-width:133px;stroke-linecap:butt;stroke-linejoin:miter;stroke-miterlimit:8;"/>
                        </g>
                        <g transform="matrix(0.0312477,0,0,0.0312489,0,0)">
                            <path d="M7112,680C7112,1027 5518,1304 3584,1304C1651,1304 56,1027 56,680" style="fill:rgb(160,9,117);"/>
                        </g>
                        <g transform="matrix(0.0312477,0,0,0.0312489,0,0)">
                            <path d="M7112,680C7112,1027 5518,1304 3584,1304C1651,1304 56,1027 56,680" style="fill:none;stroke:rgb(61,18,68);stroke-width:133px;stroke-linecap:butt;stroke-linejoin:miter;stroke-miterlimit:8;"/>
                        </g>
                    </g>
                </g>
                <g transform="matrix(1,0,0,1,724.653,1841.43)">
                    <g transform="matrix(0.0312477,0,0,0.0312489,0,0)">
                        <path d="M5784,2846L5181,3464L4577,2846L4914,2846C4800,2618 4572,2474 4322,2474C4161,2474 4006,2535 3886,2645L3272,2645C3546,2049 4238,1794 4818,2074C5128,2224 5357,2506 5446,2846L5784,2846Z" style="fill:rgb(67,138,254);stroke:rgb(61,18,68);stroke-width:133.39px;stroke-linecap:butt;stroke-miterlimit:2;"/>
                    </g>
                    <g transform="matrix(0.0312477,0,0,0.0312489,0,0)">
                        <path d="M2856,3459L3461,2840L4064,3459L3724,3459C3838,3687 4066,3830 4315,3831C4476,3831 4632,3770 4752,3660L5368,3660C5094,4256 4401,4511 3820,4230C3510,4080 3281,3798 3192,3459L2856,3459Z" style="fill:rgb(67,138,254);stroke:rgb(61,18,68);stroke-width:133.34px;stroke-linecap:butt;stroke-linejoin:miter;stroke-miterlimit:8;"/>
                    </g>
                    <g transform="matrix(0.0312477,0,0,0.0312489,0,0)">
                        <path d="M7195,5400C7999,5381 8635,4697 8616,3873C8599,3145 8074,2537 7372,2431C7298,1964 7048,1546 6676,1266C6291,987 5810,883 5348,980C4894,260 4046,-88 3232,112C2439,322 1847,999 1730,1831C1202,1845 710,2107 394,2542C20,3075 -48,3772 215,4371C484,4961 1046,5352 1680,5390L7195,5400ZM1705,4797C1284,4770 911,4510 731,4119C556,3720 601,3256 849,2900C1102,2550 1524,2374 1943,2441L2274,2498L2274,2124C2277,1448 2725,859 3363,692C4004,533 4667,850 4960,1455L5073,1685L5306,1601C5656,1474 6044,1529 6346,1749C6646,1975 6824,2334 6825,2716L6825,3014L7205,3014C7687,3033 8063,3449 8045,3943C8028,4416 7656,4793 7195,4806L1705,4797Z" style="fill:rgb(67,138,254);stroke:rgb(61,18,68);stroke-width:133.39px;stroke-linecap:butt;stroke-miterlimit:2;"/>
                    </g>
                </g>
            </g>
            <g transform="matrix(0.99922,0,0,1,542.068,290.819)">
                <g transform="matrix(104.167,0,0,104.167,505.299,1728.5)">
                    <path d="M0.075,-0L0.075,-0.487L0.156,-0.487L0.156,-0L0.075,-0ZM0.067,-0.698L0.165,-0.698L0.165,-0.607L0.067,-0.607L0.067,-0.698Z" style="fill:rgb(61,18,68);fill-rule:nonzero;"/>
                </g>
                <g transform="matrix(104.167,0,0,104.167,529.465,1728.5)">
                    <path d="M0.617,-0.499C0.725,-0.499 0.779,-0.435 0.779,-0.306L0.779,-0L0.698,-0L0.698,-0.302C0.698,-0.347 0.69,-0.379 0.675,-0.4C0.659,-0.421 0.634,-0.431 0.599,-0.431C0.558,-0.431 0.526,-0.417 0.503,-0.39C0.48,-0.363 0.468,-0.325 0.468,-0.278L0.468,-0L0.387,-0L0.387,-0.302C0.387,-0.347 0.379,-0.38 0.363,-0.401C0.347,-0.421 0.322,-0.431 0.287,-0.431C0.246,-0.431 0.214,-0.417 0.191,-0.39C0.168,-0.363 0.156,-0.325 0.156,-0.278L0.156,-0L0.075,-0L0.075,-0.487L0.155,-0.487L0.155,-0.41C0.17,-0.439 0.19,-0.461 0.216,-0.476C0.242,-0.491 0.272,-0.499 0.306,-0.499C0.381,-0.499 0.431,-0.467 0.455,-0.403C0.469,-0.433 0.49,-0.457 0.519,-0.473C0.548,-0.491 0.58,-0.499 0.617,-0.499Z" style="fill:rgb(61,18,68);fill-rule:nonzero;"/>
                </g>
                <g transform="matrix(104.167,0,0,104.167,618.215,1728.5)">
                    <path d="M0.32,-0.499C0.363,-0.499 0.4,-0.488 0.433,-0.467C0.466,-0.446 0.491,-0.416 0.509,-0.378C0.527,-0.339 0.536,-0.295 0.536,-0.244C0.536,-0.193 0.527,-0.149 0.509,-0.112C0.491,-0.074 0.466,-0.045 0.434,-0.024C0.401,-0.003 0.363,0.007 0.32,0.007C0.282,0.007 0.249,-0.001 0.221,-0.018C0.192,-0.035 0.171,-0.058 0.156,-0.089L0.156,0.18L0.075,0.18L0.075,-0.487L0.156,-0.487L0.156,-0.403C0.171,-0.434 0.192,-0.457 0.221,-0.474C0.249,-0.491 0.282,-0.499 0.32,-0.499ZM0.304,-0.06C0.351,-0.06 0.388,-0.076 0.414,-0.108C0.44,-0.14 0.453,-0.185 0.453,-0.244C0.453,-0.303 0.44,-0.348 0.414,-0.382C0.388,-0.414 0.351,-0.431 0.304,-0.431C0.257,-0.431 0.22,-0.415 0.195,-0.383C0.169,-0.351 0.156,-0.305 0.156,-0.246C0.156,-0.187 0.169,-0.141 0.195,-0.109C0.22,-0.076 0.257,-0.06 0.304,-0.06Z" style="fill:rgb(61,18,68);fill-rule:nonzero;"/>
                </g>
                <g transform="matrix(104.167,0,0,104.167,678.84,1728.5)">
                    <path d="M0.277,0.007C0.231,0.007 0.191,-0.003 0.156,-0.024C0.121,-0.045 0.094,-0.074 0.075,-0.113C0.056,-0.151 0.046,-0.195 0.046,-0.246C0.046,-0.297 0.056,-0.341 0.075,-0.38C0.094,-0.418 0.121,-0.447 0.156,-0.468C0.191,-0.489 0.231,-0.499 0.277,-0.499C0.323,-0.499 0.364,-0.489 0.399,-0.468C0.434,-0.447 0.462,-0.418 0.481,-0.38C0.5,-0.341 0.509,-0.297 0.509,-0.246C0.509,-0.195 0.5,-0.151 0.481,-0.113C0.462,-0.074 0.434,-0.045 0.399,-0.024C0.364,-0.003 0.323,0.007 0.277,0.007ZM0.277,-0.06C0.325,-0.06 0.362,-0.076 0.388,-0.108C0.413,-0.139 0.426,-0.185 0.426,-0.246C0.426,-0.305 0.413,-0.351 0.387,-0.384C0.361,-0.416 0.324,-0.432 0.277,-0.432C0.23,-0.432 0.193,-0.416 0.167,-0.384C0.141,-0.351 0.128,-0.305 0.128,-0.246C0.128,-0.186 0.141,-0.14 0.167,-0.108C0.192,-0.076 0.229,-0.06 0.277,-0.06Z" style="fill:rgb(61,18,68);fill-rule:nonzero;"/>
                </g>
                <g transform="matrix(104.167,0,0,104.167,736.653,1728.5)">
                    <path d="M0.351,-0.429L0.298,-0.424C0.248,-0.419 0.212,-0.404 0.19,-0.377C0.167,-0.35 0.156,-0.317 0.156,-0.278L0.156,-0L0.075,-0L0.075,-0.487L0.154,-0.487L0.154,-0.402C0.181,-0.459 0.235,-0.49 0.315,-0.497L0.344,-0.499L0.351,-0.429Z" style="fill:rgb(61,18,68);fill-rule:nonzero;"/>
                </g>
                <g transform="matrix(104.167,0,0,104.167,777.486,1728.5)">
                    <path d="M0.289,-0.058C0.304,-0.058 0.318,-0.059 0.333,-0.061L0.329,0.003C0.314,0.006 0.297,0.007 0.279,0.007C0.22,0.007 0.176,-0.008 0.147,-0.039C0.117,-0.07 0.102,-0.112 0.102,-0.167L0.102,-0.423L0.007,-0.423L0.007,-0.487L0.102,-0.487L0.102,-0.635L0.183,-0.635L0.183,-0.487L0.321,-0.487L0.321,-0.423L0.183,-0.423L0.183,-0.173C0.183,-0.096 0.218,-0.058 0.289,-0.058Z" style="fill:rgb(61,18,68);fill-rule:nonzero;"/>
                </g>
            </g>
            <g transform="matrix(0.99922,0,0,1,-152.545,-190.848)">
                <g transform="matrix(104.167,0,0,104.167,505.299,1728.5)">
                    <path d="M0.289,-0.058C0.304,-0.058 0.318,-0.059 0.333,-0.061L0.329,0.003C0.314,0.006 0.297,0.007 0.279,0.007C0.22,0.007 0.176,-0.008 0.147,-0.039C0.117,-0.07 0.102,-0.112 0.102,-0.167L0.102,-0.423L0.007,-0.423L0.007,-0.487L0.102,-0.487L0.102,-0.635L0.183,-0.635L0.183,-0.487L0.321,-0.487L0.321,-0.423L0.183,-0.423L0.183,-0.173C0.183,-0.096 0.218,-0.058 0.289,-0.058Z" style="fill:rgb(61,18,68);fill-rule:nonzero;"/>
                </g>
                <g transform="matrix(104.167,0,0,104.167,540.715,1728.5)">
                    <path d="M0.351,-0.429L0.298,-0.424C0.248,-0.419 0.212,-0.404 0.19,-0.377C0.167,-0.35 0.156,-0.317 0.156,-0.278L0.156,-0L0.075,-0L0.075,-0.487L0.154,-0.487L0.154,-0.402C0.181,-0.459 0.235,-0.49 0.315,-0.497L0.344,-0.499L0.351,-0.429Z" style="fill:rgb(61,18,68);fill-rule:nonzero;"/>
                </g>
                <g transform="matrix(104.167,0,0,104.167,577.069,1728.5)">
                    <path d="M0.273,-0.499C0.335,-0.499 0.381,-0.483 0.411,-0.452C0.442,-0.42 0.457,-0.372 0.457,-0.307L0.457,-0L0.378,-0L0.378,-0.083C0.365,-0.054 0.346,-0.032 0.32,-0.017C0.294,-0.001 0.264,0.007 0.23,0.007C0.199,0.007 0.17,0.001 0.143,-0.012C0.117,-0.025 0.096,-0.042 0.081,-0.065C0.066,-0.088 0.058,-0.113 0.058,-0.14C0.058,-0.177 0.067,-0.205 0.086,-0.226C0.105,-0.246 0.135,-0.261 0.178,-0.27C0.221,-0.279 0.28,-0.283 0.356,-0.283L0.378,-0.283L0.378,-0.316C0.378,-0.357 0.37,-0.386 0.353,-0.405C0.336,-0.423 0.309,-0.432 0.272,-0.432C0.216,-0.432 0.16,-0.415 0.105,-0.38L0.078,-0.439C0.103,-0.457 0.134,-0.471 0.17,-0.483C0.205,-0.494 0.24,-0.499 0.273,-0.499ZM0.241,-0.057C0.281,-0.057 0.314,-0.07 0.34,-0.098C0.365,-0.125 0.378,-0.159 0.378,-0.202L0.378,-0.231L0.36,-0.231C0.301,-0.231 0.257,-0.229 0.226,-0.224C0.195,-0.219 0.173,-0.21 0.161,-0.199C0.148,-0.187 0.141,-0.17 0.141,-0.147C0.141,-0.121 0.151,-0.1 0.17,-0.083C0.189,-0.066 0.212,-0.057 0.241,-0.057Z" style="fill:rgb(61,18,68);fill-rule:nonzero;"/>
                </g>
                <g transform="matrix(104.167,0,0,104.167,632.278,1728.5)">
                    <path d="M0.32,-0.499C0.437,-0.499 0.495,-0.435 0.495,-0.306L0.495,-0L0.414,-0L0.414,-0.301C0.414,-0.346 0.405,-0.379 0.388,-0.4C0.37,-0.421 0.342,-0.431 0.303,-0.431C0.258,-0.431 0.223,-0.417 0.196,-0.39C0.169,-0.363 0.156,-0.326 0.156,-0.279L0.156,-0L0.075,-0L0.075,-0.487L0.155,-0.487L0.155,-0.407C0.171,-0.437 0.193,-0.46 0.222,-0.475C0.251,-0.491 0.283,-0.499 0.32,-0.499Z" style="fill:rgb(61,18,68);fill-rule:nonzero;"/>
                </g>
                <g transform="matrix(104.167,0,0,104.167,691.444,1728.5)">
                    <path d="M0.24,0.007C0.158,0.007 0.093,-0.014 0.045,-0.056L0.072,-0.116C0.098,-0.095 0.125,-0.081 0.152,-0.071C0.179,-0.063 0.209,-0.058 0.243,-0.058C0.279,-0.058 0.307,-0.064 0.326,-0.077C0.344,-0.089 0.354,-0.107 0.354,-0.13C0.354,-0.149 0.348,-0.165 0.335,-0.176C0.322,-0.187 0.301,-0.196 0.272,-0.203L0.19,-0.222C0.149,-0.231 0.117,-0.247 0.095,-0.27C0.073,-0.293 0.062,-0.321 0.062,-0.354C0.062,-0.397 0.079,-0.432 0.113,-0.459C0.147,-0.486 0.192,-0.499 0.249,-0.499C0.283,-0.499 0.315,-0.494 0.346,-0.483C0.377,-0.471 0.402,-0.456 0.423,-0.435L0.396,-0.376C0.351,-0.414 0.302,-0.433 0.249,-0.433C0.215,-0.433 0.189,-0.427 0.17,-0.413C0.151,-0.401 0.141,-0.382 0.141,-0.359C0.141,-0.34 0.147,-0.324 0.159,-0.313C0.17,-0.301 0.189,-0.292 0.215,-0.286L0.298,-0.266C0.343,-0.255 0.377,-0.239 0.399,-0.218C0.421,-0.196 0.432,-0.168 0.432,-0.133C0.432,-0.09 0.415,-0.056 0.381,-0.031C0.346,-0.006 0.299,0.007 0.24,0.007Z" style="fill:rgb(61,18,68);fill-rule:nonzero;"/>
                </g>
                <g transform="matrix(104.167,0,0,104.167,741.444,1728.5)">
                    <path d="M0.183,-0.487L0.321,-0.487L0.321,-0.423L0.183,-0.423L0.183,-0L0.102,-0L0.102,-0.423L0.007,-0.423L0.007,-0.487L0.102,-0.487L0.102,-0.503C0.102,-0.568 0.118,-0.617 0.151,-0.65C0.183,-0.683 0.233,-0.702 0.3,-0.706L0.34,-0.708L0.346,-0.645L0.3,-0.642C0.259,-0.639 0.23,-0.628 0.211,-0.608C0.192,-0.587 0.183,-0.556 0.183,-0.514L0.183,-0.487Z" style="fill:rgb(61,18,68);fill-rule:nonzero;"/>
                </g>
                <g transform="matrix(104.167,0,0,104.167,775.09,1728.5)">
                    <path d="M0.277,0.007C0.231,0.007 0.191,-0.003 0.156,-0.024C0.121,-0.045 0.094,-0.074 0.075,-0.113C0.056,-0.151 0.046,-0.195 0.046,-0.246C0.046,-0.297 0.056,-0.341 0.075,-0.38C0.094,-0.418 0.121,-0.447 0.156,-0.468C0.191,-0.489 0.231,-0.499 0.277,-0.499C0.323,-0.499 0.364,-0.489 0.399,-0.468C0.434,-0.447 0.462,-0.418 0.481,-0.38C0.5,-0.341 0.509,-0.297 0.509,-0.246C0.509,-0.195 0.5,-0.151 0.481,-0.113C0.462,-0.074 0.434,-0.045 0.399,-0.024C0.364,-0.003 0.323,0.007 0.277,0.007ZM0.277,-0.06C0.325,-0.06 0.362,-0.076 0.388,-0.108C0.413,-0.139 0.426,-0.185 0.426,-0.246C0.426,-0.305 0.413,-0.351 0.387,-0.384C0.361,-0.416 0.324,-0.432 0.277,-0.432C0.23,-0.432 0.193,-0.416 0.167,-0.384C0.141,-0.351 0.128,-0.305 0.128,-0.246C0.128,-0.186 0.141,-0.14 0.167,-0.108C0.192,-0.076 0.229,-0.06 0.277,-0.06Z" style="fill:rgb(61,18,68);fill-rule:nonzero;"/>
                </g>
                <g transform="matrix(104.167,0,0,104.167,832.903,1728.5)">
                    <path d="M0.351,-0.429L0.298,-0.424C0.248,-0.419 0.212,-0.404 0.19,-0.377C0.167,-0.35 0.156,-0.317 0.156,-0.278L0.156,-0L0.075,-0L0.075,-0.487L0.154,-0.487L0.154,-0.402C0.181,-0.459 0.235,-0.49 0.315,-0.497L0.344,-0.499L0.351,-0.429Z" style="fill:rgb(61,18,68);fill-rule:nonzero;"/>
                </g>
                <g transform="matrix(104.167,0,0,104.167,869.674,1728.5)">
                    <path d="M0.617,-0.499C0.725,-0.499 0.779,-0.435 0.779,-0.306L0.779,-0L0.698,-0L0.698,-0.302C0.698,-0.347 0.69,-0.379 0.675,-0.4C0.659,-0.421 0.634,-0.431 0.599,-0.431C0.558,-0.431 0.526,-0.417 0.503,-0.39C0.48,-0.363 0.468,-0.325 0.468,-0.278L0.468,-0L0.387,-0L0.387,-0.302C0.387,-0.347 0.379,-0.38 0.363,-0.401C0.347,-0.421 0.322,-0.431 0.287,-0.431C0.246,-0.431 0.214,-0.417 0.191,-0.39C0.168,-0.363 0.156,-0.325 0.156,-0.278L0.156,-0L0.075,-0L0.075,-0.487L0.155,-0.487L0.155,-0.41C0.17,-0.439 0.19,-0.461 0.216,-0.476C0.242,-0.491 0.272,-0.499 0.306,-0.499C0.381,-0.499 0.431,-0.467 0.455,-0.403C0.469,-0.433 0.49,-0.457 0.519,-0.473C0.548,-0.491 0.58,-0.499 0.617,-0.499Z" style="fill:rgb(61,18,68);fill-rule:nonzero;"/>
                </g>
            </g>
            <g transform="matrix(0.99922,0,0,1,1228.89,-785.336)">
                <g transform="matrix(104.167,0,0,104.167,505.299,1728.5)">
                    <path d="M0.424,-0.486L0.505,-0.486L0.295,-0L0.219,-0L0.01,-0.486L0.096,-0.486L0.259,-0.088L0.424,-0.486Z" style="fill:rgb(61,18,68);fill-rule:nonzero;"/>
                </g>
                <g transform="matrix(104.167,0,0,104.167,558.84,1728.5)">
                    <path d="M0.075,-0L0.075,-0.487L0.156,-0.487L0.156,-0L0.075,-0ZM0.067,-0.698L0.165,-0.698L0.165,-0.607L0.067,-0.607L0.067,-0.698Z" style="fill:rgb(61,18,68);fill-rule:nonzero;"/>
                </g>
                <g transform="matrix(104.167,0,0,104.167,583.007,1728.5)">
                    <path d="M0.24,0.007C0.158,0.007 0.093,-0.014 0.045,-0.056L0.072,-0.116C0.098,-0.095 0.125,-0.081 0.152,-0.071C0.179,-0.063 0.209,-0.058 0.243,-0.058C0.279,-0.058 0.307,-0.064 0.326,-0.077C0.344,-0.089 0.354,-0.107 0.354,-0.13C0.354,-0.149 0.348,-0.165 0.335,-0.176C0.322,-0.187 0.301,-0.196 0.272,-0.203L0.19,-0.222C0.149,-0.231 0.117,-0.247 0.095,-0.27C0.073,-0.293 0.062,-0.321 0.062,-0.354C0.062,-0.397 0.079,-0.432 0.113,-0.459C0.147,-0.486 0.192,-0.499 0.249,-0.499C0.283,-0.499 0.315,-0.494 0.346,-0.483C0.377,-0.471 0.402,-0.456 0.423,-0.435L0.396,-0.376C0.351,-0.414 0.302,-0.433 0.249,-0.433C0.215,-0.433 0.189,-0.427 0.17,-0.413C0.151,-0.401 0.141,-0.382 0.141,-0.359C0.141,-0.34 0.147,-0.324 0.159,-0.313C0.17,-0.301 0.189,-0.292 0.215,-0.286L0.298,-0.266C0.343,-0.255 0.377,-0.239 0.399,-0.218C0.421,-0.196 0.432,-0.168 0.432,-0.133C0.432,-0.09 0.415,-0.056 0.381,-0.031C0.346,-0.006 0.299,0.007 0.24,0.007Z" style="fill:rgb(61,18,68);fill-rule:nonzero;"/>
                </g>
                <g transform="matrix(104.167,0,0,104.167,633.007,1728.5)">
                    <path d="M0.485,-0.487L0.485,-0L0.406,-0L0.406,-0.083C0.391,-0.054 0.369,-0.031 0.342,-0.016C0.314,-0.001 0.283,0.007 0.248,0.007C0.19,0.007 0.146,-0.009 0.117,-0.042C0.088,-0.074 0.073,-0.122 0.073,-0.185L0.073,-0.487L0.154,-0.487L0.154,-0.187C0.154,-0.144 0.163,-0.112 0.18,-0.092C0.197,-0.071 0.225,-0.061 0.262,-0.061C0.305,-0.061 0.339,-0.075 0.365,-0.102C0.391,-0.13 0.404,-0.167 0.404,-0.212L0.404,-0.487L0.485,-0.487Z" style="fill:rgb(61,18,68);fill-rule:nonzero;"/>
                </g>
                <g transform="matrix(104.167,0,0,104.167,691.444,1728.5)">
                    <path d="M0.273,-0.499C0.335,-0.499 0.381,-0.483 0.411,-0.452C0.442,-0.42 0.457,-0.372 0.457,-0.307L0.457,-0L0.378,-0L0.378,-0.083C0.365,-0.054 0.346,-0.032 0.32,-0.017C0.294,-0.001 0.264,0.007 0.23,0.007C0.199,0.007 0.17,0.001 0.143,-0.012C0.117,-0.025 0.096,-0.042 0.081,-0.065C0.066,-0.088 0.058,-0.113 0.058,-0.14C0.058,-0.177 0.067,-0.205 0.086,-0.226C0.105,-0.246 0.135,-0.261 0.178,-0.27C0.221,-0.279 0.28,-0.283 0.356,-0.283L0.378,-0.283L0.378,-0.316C0.378,-0.357 0.37,-0.386 0.353,-0.405C0.336,-0.423 0.309,-0.432 0.272,-0.432C0.216,-0.432 0.16,-0.415 0.105,-0.38L0.078,-0.439C0.103,-0.457 0.134,-0.471 0.17,-0.483C0.205,-0.494 0.24,-0.499 0.273,-0.499ZM0.241,-0.057C0.281,-0.057 0.314,-0.07 0.34,-0.098C0.365,-0.125 0.378,-0.159 0.378,-0.202L0.378,-0.231L0.36,-0.231C0.301,-0.231 0.257,-0.229 0.226,-0.224C0.195,-0.219 0.173,-0.21 0.161,-0.199C0.148,-0.187 0.141,-0.17 0.141,-0.147C0.141,-0.121 0.151,-0.1 0.17,-0.083C0.189,-0.066 0.212,-0.057 0.241,-0.057Z" style="fill:rgb(61,18,68);fill-rule:nonzero;"/>
                </g>
                <g transform="matrix(104.167,0,0,104.167,746.653,1728.5)">
                    <rect x="0.075" y="-0.705" width="0.081" height="0.705" style="fill:rgb(61,18,68);fill-rule:nonzero;"/>
                </g>
                <g transform="matrix(104.167,0,0,104.167,770.819,1728.5)">
                    <path d="M0.075,-0L0.075,-0.487L0.156,-0.487L0.156,-0L0.075,-0ZM0.067,-0.698L0.165,-0.698L0.165,-0.607L0.067,-0.607L0.067,-0.698Z" style="fill:rgb(61,18,68);fill-rule:nonzero;"/>
                </g>
                <g transform="matrix(104.167,0,0,104.167,794.986,1728.5)">
                    <path d="M0.148,-0.064L0.461,-0.064L0.461,-0L0.048,-0L0.048,-0.056L0.352,-0.423L0.058,-0.423L0.058,-0.487L0.45,-0.487L0.45,-0.428L0.148,-0.064Z" style="fill:rgb(61,18,68);fill-rule:nonzero;"/>
                </g>
                <g transform="matrix(104.167,0,0,104.167,846.236,1728.5)">
                    <path d="M0.483,-0.231L0.127,-0.231C0.13,-0.174 0.145,-0.132 0.173,-0.102C0.201,-0.074 0.241,-0.059 0.292,-0.059C0.349,-0.059 0.401,-0.078 0.448,-0.117L0.475,-0.058C0.454,-0.038 0.426,-0.022 0.393,-0.011C0.36,0.001 0.326,0.007 0.291,0.007C0.215,0.007 0.155,-0.015 0.112,-0.06C0.068,-0.105 0.046,-0.166 0.046,-0.245C0.046,-0.295 0.056,-0.339 0.075,-0.378C0.094,-0.416 0.122,-0.446 0.157,-0.467C0.192,-0.488 0.231,-0.499 0.276,-0.499C0.341,-0.499 0.391,-0.478 0.428,-0.436C0.465,-0.393 0.483,-0.335 0.483,-0.261L0.483,-0.231ZM0.277,-0.436C0.234,-0.436 0.2,-0.423 0.174,-0.396C0.149,-0.369 0.134,-0.332 0.129,-0.283L0.412,-0.283C0.411,-0.332 0.398,-0.37 0.375,-0.397C0.352,-0.423 0.319,-0.436 0.277,-0.436Z" style="fill:rgb(61,18,68);fill-rule:nonzero;"/>
                </g>
            </g>
            <g transform="matrix(0.99922,0,0,1,1341.72,-207.544)">
                <g transform="matrix(104.167,0,0,104.167,505.299,1728.5)">
                    <path d="M0.617,-0.499C0.725,-0.499 0.779,-0.435 0.779,-0.306L0.779,-0L0.698,-0L0.698,-0.302C0.698,-0.347 0.69,-0.379 0.675,-0.4C0.659,-0.421 0.634,-0.431 0.599,-0.431C0.558,-0.431 0.526,-0.417 0.503,-0.39C0.48,-0.363 0.468,-0.325 0.468,-0.278L0.468,-0L0.387,-0L0.387,-0.302C0.387,-0.347 0.379,-0.38 0.363,-0.401C0.347,-0.421 0.322,-0.431 0.287,-0.431C0.246,-0.431 0.214,-0.417 0.191,-0.39C0.168,-0.363 0.156,-0.325 0.156,-0.278L0.156,-0L0.075,-0L0.075,-0.487L0.155,-0.487L0.155,-0.41C0.17,-0.439 0.19,-0.461 0.216,-0.476C0.242,-0.491 0.272,-0.499 0.306,-0.499C0.381,-0.499 0.431,-0.467 0.455,-0.403C0.469,-0.433 0.49,-0.457 0.519,-0.473C0.548,-0.491 0.58,-0.499 0.617,-0.499Z" style="fill:rgb(61,18,68);fill-rule:nonzero;"/>
                </g>
                <g transform="matrix(104.167,0,0,104.167,594.049,1728.5)">
                    <path d="M0.277,0.007C0.231,0.007 0.191,-0.003 0.156,-0.024C0.121,-0.045 0.094,-0.074 0.075,-0.113C0.056,-0.151 0.046,-0.195 0.046,-0.246C0.046,-0.297 0.056,-0.341 0.075,-0.38C0.094,-0.418 0.121,-0.447 0.156,-0.468C0.191,-0.489 0.231,-0.499 0.277,-0.499C0.323,-0.499 0.364,-0.489 0.399,-0.468C0.434,-0.447 0.462,-0.418 0.481,-0.38C0.5,-0.341 0.509,-0.297 0.509,-0.246C0.509,-0.195 0.5,-0.151 0.481,-0.113C0.462,-0.074 0.434,-0.045 0.399,-0.024C0.364,-0.003 0.323,0.007 0.277,0.007ZM0.277,-0.06C0.325,-0.06 0.362,-0.076 0.388,-0.108C0.413,-0.139 0.426,-0.185 0.426,-0.246C0.426,-0.305 0.413,-0.351 0.387,-0.384C0.361,-0.416 0.324,-0.432 0.277,-0.432C0.23,-0.432 0.193,-0.416 0.167,-0.384C0.141,-0.351 0.128,-0.305 0.128,-0.246C0.128,-0.186 0.141,-0.14 0.167,-0.108C0.192,-0.076 0.229,-0.06 0.277,-0.06Z" style="fill:rgb(61,18,68);fill-rule:nonzero;"/>
                </g>
                <g transform="matrix(104.167,0,0,104.167,651.861,1728.5)">
                    <path d="M0.507,-0.705L0.507,-0L0.426,-0L0.426,-0.089C0.411,-0.058 0.39,-0.035 0.362,-0.018C0.333,-0.001 0.3,0.007 0.262,0.007C0.219,0.007 0.182,-0.004 0.149,-0.025C0.116,-0.046 0.091,-0.076 0.073,-0.115C0.055,-0.153 0.046,-0.197 0.046,-0.248C0.046,-0.298 0.055,-0.342 0.073,-0.38C0.091,-0.418 0.116,-0.447 0.149,-0.468C0.182,-0.489 0.219,-0.499 0.262,-0.499C0.3,-0.499 0.333,-0.491 0.362,-0.474C0.39,-0.457 0.411,-0.434 0.426,-0.403L0.426,-0.705L0.507,-0.705ZM0.278,-0.06C0.325,-0.06 0.362,-0.076 0.388,-0.109C0.413,-0.141 0.426,-0.187 0.426,-0.246C0.426,-0.305 0.413,-0.351 0.388,-0.383C0.362,-0.415 0.325,-0.431 0.278,-0.431C0.231,-0.431 0.194,-0.415 0.168,-0.383C0.141,-0.351 0.128,-0.306 0.128,-0.248C0.128,-0.189 0.141,-0.142 0.168,-0.11C0.194,-0.077 0.231,-0.06 0.278,-0.06Z" style="fill:rgb(61,18,68);fill-rule:nonzero;"/>
                </g>
                <g transform="matrix(104.167,0,0,104.167,712.486,1728.5)">
                    <path d="M0.483,-0.231L0.127,-0.231C0.13,-0.174 0.145,-0.132 0.173,-0.102C0.201,-0.074 0.241,-0.059 0.292,-0.059C0.349,-0.059 0.401,-0.078 0.448,-0.117L0.475,-0.058C0.454,-0.038 0.426,-0.022 0.393,-0.011C0.36,0.001 0.326,0.007 0.291,0.007C0.215,0.007 0.155,-0.015 0.112,-0.06C0.068,-0.105 0.046,-0.166 0.046,-0.245C0.046,-0.295 0.056,-0.339 0.075,-0.378C0.094,-0.416 0.122,-0.446 0.157,-0.467C0.192,-0.488 0.231,-0.499 0.276,-0.499C0.341,-0.499 0.391,-0.478 0.428,-0.436C0.465,-0.393 0.483,-0.335 0.483,-0.261L0.483,-0.231ZM0.277,-0.436C0.234,-0.436 0.2,-0.423 0.174,-0.396C0.149,-0.369 0.134,-0.332 0.129,-0.283L0.412,-0.283C0.411,-0.332 0.398,-0.37 0.375,-0.397C0.352,-0.423 0.319,-0.436 0.277,-0.436Z" style="fill:rgb(61,18,68);fill-rule:nonzero;"/>
                </g>
                <g transform="matrix(104.167,0,0,104.167,767.382,1728.5)">
                    <rect x="0.075" y="-0.705" width="0.081" height="0.705" style="fill:rgb(61,18,68);fill-rule:nonzero;"/>
                </g>
            </g>
        </g>
    </g>
</svg>
