<?xml version="1.0" encoding="UTF-8" standalone="no"?>
<!DOCTYPE svg PUBLIC "-//W3C//DTD SVG 1.1//EN" "http://www.w3.org/Graphics/SVG/1.1/DTD/svg11.dtd">
<svg width="100%" height="100%" viewBox="0 0 827 827" version="1.1" xmlns="http://www.w3.org/2000/svg" xmlns:xlink="http://www.w3.org/1999/xlink" xml:space="preserve" xmlns:serif="http://www.serif.com/" style="fill-rule:evenodd;clip-rule:evenodd;stroke-linecap:round;stroke-linejoin:round;stroke-miterlimit:1.5;">
    <g transform="matrix(1,0,0,1,-255.689,-1269.61)">
        <g transform="matrix(1,0,0,1,-468.169,-382.725)">
            <g transform="matrix(1.07446,0,0,1.11504,-148.771,1087.09)">
                <rect x="812.154" y="506.932" width="769.475" height="741.473" style="fill:none;"/>
            </g>
            <g transform="matrix(1,0,0,1,12.2384,55.9096)">
                <g transform="matrix(1,0,0,0.680706,-74.386,688)">
                    <path d="M949.947,2097.2L949.947,2135.94C949.947,2148.16 953.253,2159.89 959.136,2168.53C965.02,2177.18 973,2182.03 981.321,2182.03C998.123,2182.03 1018.7,2182.03 1035.2,2182.03C1043.02,2182.03 1050.52,2186.59 1056.05,2194.72C1061.58,2202.84 1064.68,2213.85 1064.68,2225.34C1064.68,2225.34 1064.68,2225.34 1064.68,2225.34C1064.68,2249.26 1051.48,2268.65 1035.2,2268.65C986.438,2268.65 889.569,2268.65 841.136,2268.65C825.13,2268.65 812.154,2287.71 812.154,2311.22C812.154,2311.23 812.154,2311.23 812.154,2311.23C812.154,2334.74 825.13,2353.8 841.136,2353.8C901.397,2353.8 1040.53,2353.8 1111.9,2353.8C1123.56,2353.8 1134.74,2347 1142.99,2334.89C1151.23,2322.77 1155.87,2306.34 1155.87,2289.21L1155.87,2073.02" style="fill:none;stroke:rgb(160,9,117);stroke-width:14.61px;"/>
                </g>
                <g transform="matrix(1,0,0,1,-74.386,1131.5)">
                    <g>
                        <g transform="matrix(0.0178674,0,0,0.0207994,811.153,596.72)">
                            <path d="M4971,13701C5001,13421 5031,13141 4805,12675C4579,12209 3957,11513 3616,10906C3275,10298 2913,9709 2760,9031C2607,8352 2522,7556 2701,6837C2879,6117 3335,5280 3830,4714C4325,4148 5017,3731 5673,3440C6329,3149 7054,2968 7766,2968C8477,2968 9313,3173 9941,3440C10570,3708 11107,4128 11535,4572C11963,5017 12301,5520 12510,6106C12718,6691 12827,7427 12783,8087C12739,8748 12464,9524 12248,10069C12032,10613 11743,10949 11487,11354C11231,11759 10887,12215 10714,12498C10542,12781 10502,12846 10453,13052C10403,13259 10415,13622 10417,13736L4983,13701L4971,13701Z" style="fill:none;stroke:rgb(67,138,254);stroke-width:644.7px;stroke-linecap:butt;stroke-linejoin:miter;stroke-miterlimit:8;"/>
                        </g>
                        <g>
                            <g transform="matrix(0.0178674,0,0,0.0207994,811.153,596.72)">
                                <path d="M4872,14704C4872,14506 5034,14344 5232,14344L10304,14344C10503,14344 10664,14506 10664,14704C10664,14903 10503,15064 10304,15064L5232,15064C5034,15064 4872,14903 4872,14704Z" style="fill:rgb(160,9,117);stroke:rgb(61,18,68);stroke-width:214.9px;stroke-linecap:butt;stroke-miterlimit:2;"/>
                            </g>
                            <g transform="matrix(0.0178674,0,0,0.0207994,811.153,595.76)">
                                <path d="M4872,15704C4872,15501 5037,15336 5240,15336L10296,15336C10500,15336 10664,15501 10664,15704C10664,15908 10500,16072 10296,16072L5240,16072C5037,16072 4872,15908 4872,15704Z" style="fill:rgb(160,9,117);stroke:rgb(61,18,68);stroke-width:214.9px;stroke-linecap:butt;stroke-miterlimit:2;"/>
                            </g>
                            <g transform="matrix(0.0178674,0,0,0.0207994,811.153,595.797)">
                                <path d="M4872,16664C4872,16461 5037,16296 5240,16296L10296,16296C10500,16296 10664,16461 10664,16664C10664,16868 10500,17032 10296,17032L5240,17032C5037,17032 4872,16868 4872,16664Z" style="fill:rgb(160,9,117);stroke:rgb(61,18,68);stroke-width:214.9px;stroke-linecap:butt;stroke-miterlimit:2;"/>
                            </g>
                            <g transform="matrix(-2.06674,-2.53102e-16,1.22465e-16,-1,2712.86,3051.02)">
                                <path d="M852.991,2052.16C852.991,2052.16 865.462,2075.79 872.148,2088.46C872.809,2089.71 873.03,2091.68 872.705,2093.41C872.38,2095.13 871.575,2096.27 870.678,2096.27C861.581,2096.27 843.711,2096.27 834.889,2096.27C834.059,2096.27 833.313,2095.22 833.012,2093.62C832.711,2092.02 832.916,2090.2 833.528,2089.04C840.132,2076.53 852.991,2052.16 852.991,2052.16Z" style="fill:rgb(160,9,117);stroke:rgb(61,18,68);stroke-width:2.57px;"/>
                            </g>
                        </g>
                    </g>
                    <g transform="matrix(1,0,0,1,47.9245,-782.328)">
                        <g transform="matrix(0.0178674,0,0,0.0207994,763.229,1379.05)">
                            <path d="M7776,1704C7657,1704 7560,1608 7560,1488L7560,272C7560,153 7657,56 7776,56C7896,56 7992,153 7992,272L7992,1488C7992,1608 7896,1704 7776,1704Z" style="fill:rgb(67,138,254);stroke:rgb(160,9,117);stroke-width:133px;stroke-linecap:butt;stroke-linejoin:miter;stroke-miterlimit:8;"/>
                        </g>
                        <g transform="matrix(0.0178674,0,0,0.0207994,763.229,1379.05)">
                            <path d="M2876,3731C2962,3645 2962,3506 2876,3420L2017,2560C1931,2474 1792,2474 1707,2560C1621,2646 1621,2784 1706,2870L2566,3730C2651,3816 2790,3816 2876,3731Z" style="fill:rgb(67,138,254);stroke:rgb(160,9,117);stroke-width:133px;stroke-linecap:butt;stroke-linejoin:miter;stroke-miterlimit:8;"/>
                        </g>
                        <g transform="matrix(0.0178674,0,0,0.0207994,763.229,1379.05)">
                            <path d="M3433,13494C3503,13592 3480,13729 3381,13800L2392,14506C2293,14576 2156,14553 2085,14455C2015,14356 2038,14219 2137,14149L3127,13442C3225,13372 3362,13395 3433,13494Z" style="fill:rgb(67,138,254);stroke:rgb(160,9,117);stroke-width:133px;stroke-linecap:butt;stroke-linejoin:miter;stroke-miterlimit:8;"/>
                        </g>
                        <g transform="matrix(0.0178674,0,0,0.0207994,763.229,1379.05)">
                            <path d="M56,8992C56,9112 153,9208 272,9208L1488,9208C1608,9208 1704,9112 1704,8992C1704,8873 1608,8776 1488,8776L272,8776C153,8776 56,8873 56,8992Z" style="fill:rgb(67,138,254);stroke:rgb(160,9,117);stroke-width:133px;stroke-linecap:butt;stroke-linejoin:miter;stroke-miterlimit:8;"/>
                        </g>
                        <g transform="matrix(0.0178674,0,0,0.0207994,763.229,1379.05)">
                            <path d="M12881,3667C12796,3582 12795,3443 12881,3357L13741,2497C13826,2411 13965,2411 14051,2497C14137,2582 14137,2721 14051,2807L13192,3667C13106,3753 12967,3753 12881,3667Z" style="fill:rgb(67,138,254);stroke:rgb(160,9,117);stroke-width:133px;stroke-linecap:butt;stroke-linejoin:miter;stroke-miterlimit:8;"/>
                        </g>
                        <g transform="matrix(0.0178674,0,0,0.0207994,763.229,1379.05)">
                            <path d="M12325,13430C12254,13529 12277,13666 12376,13736L13366,14443C13465,14513 13602,14490 13672,14391C13742,14293 13719,14156 13621,14085L12631,13379C12532,13309 12395,13332 12325,13430Z" style="fill:rgb(67,138,254);stroke:rgb(160,9,117);stroke-width:133px;stroke-linecap:butt;stroke-linejoin:miter;stroke-miterlimit:8;"/>
                        </g>
                        <g transform="matrix(0.0178674,0,0,0.0207994,763.229,1379.05)">
                            <path d="M15704,8936C15704,9060 15604,9160 15480,9160L14264,9160C14141,9160 14040,9060 14040,8936C14040,8813 14141,8712 14264,8712L15480,8712C15604,8712 15704,8813 15704,8936Z" style="fill:rgb(67,138,254);stroke:rgb(160,9,117);stroke-width:133px;stroke-linecap:butt;stroke-linejoin:miter;stroke-miterlimit:8;"/>
                        </g>
                    </g>
                    <g>
                        <g transform="matrix(0.835586,0,0,0.86692,212.654,-682.052)">
                            <g transform="matrix(0.0374011,0,0,0.0435386,731.861,1258.32)">
                                <path d="M14699,15188L18624,15188L18624,16711L20542,16711C20828,16711 21060,16943 21060,17229L21060,18020L12356,18020L12356,17229C12356,16943 12589,16711 12875,16711L14699,16711L14699,15188Z" style="fill:rgb(160,9,117);"/>
                                <path d="M14699,15188L18624,15188L18624,16711L20542,16711C20828,16711 21060,16943 21060,17229L21060,18020L12356,18020L12356,17229C12356,16943 12589,16711 12875,16711L14699,16711L14699,15188ZM14832.3,15298.4L18490.7,15298.4C18490.7,15298.4 18490.7,16711 18490.7,16711C18490.7,16772 18550.4,16821.4 18624,16821.4L20542,16821.4C20762,16821.4 20926.7,17009 20926.7,17229C20926.7,17229 20926.7,17909.6 20926.7,17909.6C20926.7,17909.6 12489.3,17909.6 12489.3,17909.6C12489.3,17909.6 12489.3,17229 12489.3,17229C12489.3,17009 12655,16821.4 12875,16821.4L14699,16821.4C14772.6,16821.4 14832.3,16772 14832.3,16711L14832.3,15298.4Z" style="fill:rgb(61,18,68);"/>
                            </g>
                            <g transform="matrix(1.19676,0,0,1.15351,380.167,-141.454)">
                                <path d="M1056.31,1492.08C1056.31,1482.68 1048.68,1475.05 1039.28,1475.05L594.815,1475.05C585.415,1475.05 577.783,1482.68 577.783,1492.08L577.783,1796.25C577.783,1805.64 585.415,1813.28 594.815,1813.28L1039.28,1813.28C1048.68,1813.28 1056.31,1805.64 1056.31,1796.25L1056.31,1492.08ZM616.361,1501.02C608.501,1501.02 602.129,1507.39 602.129,1515.25L602.129,1748.76C602.129,1756.62 608.501,1762.99 616.361,1762.99L1017.73,1762.99C1025.59,1762.99 1031.97,1756.62 1031.97,1748.76L1031.97,1515.25C1031.97,1511.47 1030.47,1507.85 1027.8,1505.18C1025.13,1502.52 1021.51,1501.02 1017.73,1501.02L616.361,1501.02Z" style="fill:rgb(160,9,117);"/>
                                <path d="M1056.31,1492.08C1056.31,1482.68 1048.68,1475.05 1039.28,1475.05L594.815,1475.05C585.415,1475.05 577.783,1482.68 577.783,1492.08L577.783,1796.25C577.783,1805.64 585.415,1813.28 594.815,1813.28L1039.28,1813.28C1048.68,1813.28 1056.31,1805.64 1056.31,1796.25L1056.31,1492.08ZM1052.14,1492.08L1052.14,1796.25C1052.14,1803.35 1046.38,1809.11 1039.28,1809.11C1039.28,1809.11 594.815,1809.11 594.815,1809.11C587.715,1809.11 581.95,1803.35 581.95,1796.25C581.95,1796.25 581.95,1492.08 581.95,1492.08C581.95,1484.98 587.715,1479.22 594.815,1479.22L1039.28,1479.22C1046.38,1479.22 1052.14,1484.98 1052.14,1492.08ZM616.361,1496.85C606.2,1496.85 597.962,1505.09 597.962,1515.25L597.962,1748.76C597.962,1758.92 606.2,1767.16 616.361,1767.16L1017.73,1767.16C1027.9,1767.16 1036.13,1758.92 1036.13,1748.76L1036.13,1515.25C1036.13,1510.37 1034.19,1505.69 1030.74,1502.24C1027.29,1498.79 1022.61,1496.85 1017.73,1496.85L616.361,1496.85ZM616.361,1501.02C608.501,1501.02 602.129,1507.39 602.129,1515.25L602.129,1748.76C602.129,1756.62 608.501,1762.99 616.361,1762.99L1017.73,1762.99C1025.59,1762.99 1031.97,1756.62 1031.97,1748.76L1031.97,1515.25C1031.97,1511.47 1030.47,1507.85 1027.8,1505.18C1025.13,1502.52 1021.51,1501.02 1017.73,1501.02L616.361,1501.02Z" style="fill:rgb(61,18,68);"/>
                            </g>
                        </g>
                        <g transform="matrix(2.03979,0,0,2.37443,837.445,488.551)">
                            <g transform="matrix(0.0149989,0,0,0.0149995,0,0)">
                                <path d="M13948,9628L13948,10717C13948,11229 15107,11740 16544,11740C17982,11740 19140,11229 19140,10717L19140,9628L16544,10550L13948,9628Z" style="fill:rgb(67,138,254);"/>
                            </g>
                            <g transform="matrix(0.0149989,0,0,0.0149995,0,0)">
                                <path d="M16548,10153L20596,8733L16548,7284L12500,8733L13020,8918L13020,10627C13020,10729 13104,10812 13206,10812C13308,10812 13392,10729 13392,10627L13392,9048L16548,10153Z" style="fill:rgb(67,138,254);"/>
                            </g>
                        </g>
                    </g>
                </g>
            </g>
        </g>
    </g>
</svg>
