<?xml version="1.0" encoding="UTF-8" standalone="no"?>
<!DOCTYPE svg PUBLIC "-//W3C//DTD SVG 1.1//EN" "http://www.w3.org/Graphics/SVG/1.1/DTD/svg11.dtd">
<svg width="100%" height="100%" viewBox="0 0 1280 720" version="1.1" xmlns="http://www.w3.org/2000/svg" xmlns:xlink="http://www.w3.org/1999/xlink" xml:space="preserve" xmlns:serif="http://www.serif.com/" style="fill-rule:evenodd;clip-rule:evenodd;stroke-miterlimit:8;">
    <g transform="matrix(3.69986,0,0,3.69986,153.209,32.5743)">
        <rect x="0" y="0" width="263.14" height="176.994" style="fill:none;"/>
        <clipPath id="_clip1">
            <rect x="0" y="0" width="263.14" height="176.994"/>
        </clipPath>
        <g clip-path="url(#_clip1)">
            <g transform="matrix(0.00749944,0,0,0.00749973,0,0)">
                <path d="M11128,8737C11128,9780 11602,10778 12442,11503C11264,13246 11896,15511 13852,16560C13951,16614 14053,16663 14157,16709C13617,18323 14647,20021 16458,20502C16489,20510 16520,20518 16551,20525C16681,22296 18397,23638 20384,23521C22280,23411 23755,22006 23752,20312L23752,2468C23752,1136 22540,56 21046,56C19864,57 18819,741 18465,1746C16328,1328 14214,2534 13745,4440C13684,4690 13653,4945 13653,5201L13653,5233C12115,5860 11129,7230 11128,8737Z" style="fill:none;stroke:rgb(68,138,255);stroke-width:133px;"/>
            </g>
            <g transform="matrix(0.00749944,0,0,0.00749973,0,0)">
                <path d="M25320,2976C25320,2433 25761,1992 26304,1992C26848,1992 27288,2433 27288,2976C27288,3520 26848,3960 26304,3960C25761,3960 25320,3520 25320,2976" style="fill:rgb(160,9,117);"/>
            </g>
            <g transform="matrix(0.00749944,0,0,0.00749973,0,0)">
                <path d="M24952,12840C24952,12160 25504,11608 26184,11608C26865,11608 27416,12160 27416,12840C27416,13521 26865,14072 26184,14072C25504,14072 24952,13521 24952,12840" style="fill:rgb(160,9,117);"/>
            </g>
            <g transform="matrix(0.0149989,0,0,0.0149995,0,0)">
                <path d="M15908,6264C15908,5812 16274,5444 16724,5444C17175,5444 17540,5812 17540,6264C17540,6717 17175,7084 16724,7084C16274,7084 15908,6717 15908,6264" style="fill:rgb(160,9,117);"/>
            </g>
            <g transform="matrix(0.00749944,0,0,0.00749973,0,0)">
                <path d="M28104,5392C28104,4487 28839,3752 29744,3752C30650,3752 31384,4487 31384,5392C31384,6298 30650,7032 29744,7032C28839,7032 28104,6298 28104,5392" style="fill:rgb(160,9,117);"/>
            </g>
            <g transform="matrix(0.00749944,0,0,0.00749973,0,0)">
                <path d="M29075,17170C29800,16863 30637,17201 30944,17926C31251,18651 30913,19488 30188,19795C29463,20102 28626,19764 28319,19039C28012,18314 28351,17477 29075,17170" style="fill:rgb(160,9,117);"/>
            </g>
            <g transform="matrix(0.00749944,0,0,0.00749973,0,0)">
                <path d="M22600,2936L26186,2964" style="fill:none;stroke:rgb(160,9,117);stroke-width:799.98px;stroke-linecap:round;"/>
            </g>
            <g transform="matrix(0.00749944,0,0,0.00749973,0,0)">
                <path d="M22056,9015L26528,8952" style="fill:none;stroke:rgb(160,9,117);stroke-width:799.98px;stroke-linecap:round;"/>
            </g>
            <g transform="matrix(0.00749944,0,0,0.00749973,0,0)">
                <path d="M19864,9040C19864,8497 20305,8056 20848,8056C21392,8056 21832,8497 21832,9040C21832,9584 21392,10024 20848,10024C20305,10024 19864,9584 19864,9040" style="fill:none;stroke:rgb(68,138,255);stroke-width:599.99px;"/>
            </g>
            <g transform="matrix(0.00749944,0,0,0.00749973,0,0)">
                <path d="M16312,11768L21883,11802" style="fill:none;stroke:rgb(160,9,117);stroke-width:799.98px;stroke-linecap:round;"/>
            </g>
            <g transform="matrix(0.00749944,0,0,0.00749973,0,0)">
                <path d="M24958,12776L23240,12776" style="fill:none;stroke:rgb(160,9,117);stroke-width:799.98px;stroke-linecap:round;"/>
            </g>
            <g transform="matrix(0.00749944,0,0,0.00749973,0,0)">
                <path d="M23238,12780L21880,11800" style="fill:none;stroke:rgb(160,9,117);stroke-width:799.98px;stroke-linecap:round;"/>
            </g>
            <g transform="matrix(0.00749944,0,0,0.00749973,0,0)">
                <path d="M17080,15983L26158,15896" style="fill:none;stroke:rgb(160,9,117);stroke-width:799.98px;stroke-linecap:round;"/>
            </g>
            <g transform="matrix(0.00749944,0,0,0.00749973,0,0)">
                <path d="M26184,15833L29634,12520" style="fill:none;stroke:rgb(160,9,117);stroke-width:799.98px;stroke-linecap:round;"/>
            </g>
            <g transform="matrix(0.00749944,0,0,0.00749973,0,0)">
                <path d="M29624,12520L31802,12520" style="fill:none;stroke:rgb(160,9,117);stroke-width:799.98px;stroke-linecap:round;"/>
            </g>
            <g transform="matrix(0.00749944,0,0,0.00749973,0,0)">
                <path d="M22376,19495L24787,18536" style="fill:none;stroke:rgb(160,9,117);stroke-width:799.98px;stroke-linecap:round;"/>
            </g>
            <g transform="matrix(0.00749944,0,0,0.00749973,0,0)">
                <path d="M25048,18488L28203,18488" style="fill:none;stroke:rgb(160,9,117);stroke-width:799.98px;stroke-linecap:round;"/>
            </g>
            <g transform="matrix(0.00749944,0,0,0.00749973,0,0)">
                <path d="M20424,2968C20424,2429 20861,1992 21400,1992C21939,1992 22376,2429 22376,2968C22376,3507 21939,3944 21400,3944C20861,3944 20424,3507 20424,2968" style="fill:none;stroke:rgb(68,138,255);stroke-width:599.99px;"/>
            </g>
            <g transform="matrix(0.00749944,0,0,0.00749973,0,0)">
                <path d="M26488,8937L28583,6552" style="fill:none;stroke:rgb(160,9,117);stroke-width:799.98px;stroke-linecap:round;"/>
            </g>
            <g transform="matrix(0.00749944,0,0,0.00749973,0,0)">
                <path d="M14952,15904C14952,15361 15393,14920 15936,14920C16480,14920 16920,15361 16920,15904C16920,16448 16480,16888 15936,16888C15393,16888 14952,16448 14952,15904" style="fill:none;stroke:rgb(68,138,255);stroke-width:599.99px;"/>
            </g>
            <g transform="matrix(0.00749944,0,0,0.00749973,0,0)">
                <path d="M20272,20266C20101,19753 20380,19199 20893,19028C21407,18858 21961,19136 22131,19650C22302,20163 22023,20718 21510,20888C20996,21058 20442,20780 20272,20266" style="fill:none;stroke:rgb(68,138,255);stroke-width:599.99px;"/>
            </g>
            <g transform="matrix(0.00749944,0,0,0.00749973,0,0)">
                <path d="M14088,11800C14088,11261 14529,10824 15072,10824C15616,10824 16056,11261 16056,11800C16056,12339 15616,12776 15072,12776C14529,12776 14088,12339 14088,11800" style="fill:none;stroke:rgb(68,138,255);stroke-width:599.99px;"/>
            </g>
            <g transform="matrix(0.00749944,0,0,0.00749973,0,0)">
                <path d="M14283,5590C15803,5310 17270,5915 17795,7038" style="fill:none;stroke:rgb(68,138,255);stroke-width:67px;"/>
            </g>
            <g transform="matrix(0.00749944,0,0,0.00749973,0,0)">
                <path d="M16865,20283C17265,18790 18441,17725 19681,17733" style="fill:none;stroke:rgb(68,138,255);stroke-width:67px;"/>
            </g>
            <g transform="matrix(0.00749944,0,0,0.00749973,0,0)">
                <path d="M17725,16913C18021,17221 18226,17578 18325,17958" style="fill:none;stroke:rgb(68,138,255);stroke-width:67px;"/>
            </g>
            <g transform="matrix(0.00749944,0,0,0.00749973,0,0)">
                <path d="M17771,4698C18242,3841 18985,3250 19787,3092" style="fill:none;stroke:rgb(68,138,255);stroke-width:67px;"/>
            </g>
            <g transform="matrix(0.00749944,0,0,0.00749973,0,0)">
                <path d="M18637,2017C18933,2325 19138,2682 19237,3062" style="fill:none;stroke:rgb(68,138,255);stroke-width:67px;"/>
            </g>
            <g transform="matrix(0.00749944,0,0,0.00749973,0,0)">
                <path d="M6560,9161C5931,9161 5437,8653 5437,8040C5437,7427 5946,6919 6560,6919C7190,6919 7684,7427 7684,8040C7684,8653 7175,9161 6560,9161ZM9093,7337C9033,7128 8958,6934 8853,6755L9093,6052L8554,5514L7849,5753C7669,5649 7475,5574 7265,5514L6935,4856L6186,4856L5856,5514C5646,5574 5452,5649 5272,5753L4567,5514L4028,6052L4268,6755C4163,6934 4088,7128 4028,7337L3368,7666L3368,8414L4028,8742C4088,8952 4163,9146 4268,9325L4028,10028L4552,10551L5257,10312C5437,10416 5631,10491 5841,10551L6171,11208L6920,11208L7250,10551C7460,10491 7654,10416 7834,10312L8539,10551L9078,10028L8838,9325C8943,9146 9033,8937 9093,8742L9752,8414L9752,7666L9093,7337Z" style="fill:rgb(160,9,117);"/>
            </g>
            <g transform="matrix(0.00749944,0,0,0.00749973,0,0)">
                <path d="M3176,14601C2549,14601 2055,14093 2055,13480C2055,12852 2564,12359 3176,12359C3804,12359 4298,12867 4298,13480C4298,14093 3804,14601 3176,14601ZM5464,12195L5703,11492L5165,10954L4462,11193C4283,11089 4073,11014 3879,10954L3550,10296L2803,10296L2474,10954C2265,11014 2070,11089 1891,11193L1188,10954L665,11477L889,12180C785,12359 710,12568 650,12763L-8,13091L-8,13839L650,14167C710,14377 785,14571 889,14750L665,15453L1188,15976L1891,15752C2070,15856 2265,15931 2474,15991L2803,16648L3550,16648L3879,15991C4088,15931 4283,15856 4462,15752L5165,15991L5688,15453L5464,14765C5568,14586 5643,14392 5703,14182L6360,13854L6360,13106L5703,12777C5643,12568 5568,12374 5464,12195Z" style="fill:rgb(160,9,117);"/>
            </g>
        </g>
    </g>
    <g transform="matrix(3.69986,0,0,3.69986,321.309,365.722)">
        <rect x="0" y="0" width="43.317" height="43.198" style="fill:none;fill-rule:nonzero;"/>
        <g transform="matrix(0.0281573,0,0,0.0280815,0.319288,0.318416)">
            <path d="M760,952C655,952 568,866 568,760C568,655 655,568 760,568C866,568 952,655 952,760C952,866 866,952 760,952ZM1192,640C1183,605 1168,572 1151,541L1191,421L1100,330L980,370C948,352 914,338 879,328L824,216L696,216L640,328C605,338 572,352 541,370L421,330L330,421L370,541C352,573 338,607 328,642L216,696L216,824L328,880C338,916 352,949 370,980L330,1100L421,1191L541,1151C573,1168 607,1183 642,1192L698,1304L826,1304L882,1192C917,1183 951,1168 981,1151L1101,1191L1192,1100L1152,980C1170,948 1184,914 1194,879L1306,823L1306,695L1192,640Z" style="fill:rgb(68,138,255);fill-rule:nonzero;"/>
        </g>
    </g>
</svg>
