<?xml version="1.0" encoding="UTF-8" standalone="no"?>
<!DOCTYPE svg PUBLIC "-//W3C//DTD SVG 1.1//EN" "http://www.w3.org/Graphics/SVG/1.1/DTD/svg11.dtd">
<svg width="100%" height="100%" viewBox="0 0 850 850" version="1.1" xmlns="http://www.w3.org/2000/svg" xmlns:xlink="http://www.w3.org/1999/xlink" xml:space="preserve" xmlns:serif="http://www.serif.com/" style="fill-rule:evenodd;clip-rule:evenodd;stroke-miterlimit:8;">
    <g id="Box" transform="matrix(3.91745,0,0,3.91745,11.6771,93.5602)">
        <rect x="0" y="0" width="210.464" height="169.434" style="fill:none;"/>
    </g>
    <g transform="matrix(0.0293787,0,0,0.0293798,11.6771,93.5602)">
        <path d="M8904,5928L8904,16713L18376,22456L18376,11672L8904,5928Z" style="fill:none;stroke:rgb(45,62,80);stroke-width:133px;"/>
    </g>
    <g transform="matrix(0.0293787,0,0,0.0293798,11.6771,93.5602)">
        <path d="M18456,22440L18456,11656L27944,5912L27944,16697L18456,22440Z" style="fill:none;stroke:rgb(45,62,80);stroke-width:133px;"/>
    </g>
    <g transform="matrix(0.0293787,0,0,0.0293798,11.6771,93.5602)">
        <path d="M8904,5893L18380,86L27913,5814L18437,11621L8904,5893Z" style="fill:none;stroke:rgb(45,62,80);stroke-width:133px;"/>
    </g>
    <g transform="matrix(0.0293787,0,0,0.0293798,11.6771,93.5602)">
        <path d="M24704,11872L24708,9771L26758,8586L26755,10686L24704,11872Z" style="fill:none;stroke:rgb(45,62,80);stroke-width:133px;"/>
    </g>
    <g transform="matrix(3.91745,0,0,3.91745,11.6771,93.5602)">
        <rect x="0" y="0" width="210.464" height="169.434" style="fill:none;"/>
    </g>
    <g transform="matrix(0.0354727,0,0,0.0412604,11.3359,-75.9041)">
        <path d="M56,10571C56,10401 838,10264 1784,10264C2731,10264 3512,10401 3512,10571L3512,11782C3512,11952 2731,12088 1784,12088C838,12088 56,11952 56,11782L56,10571Z" style="fill:none;stroke:rgb(116,5,84);stroke-width:133px;"/>
    </g>
    <g transform="matrix(0.0354727,0,0,0.0412604,11.3359,-75.9041)">
        <path d="M56,12761C56,12592 838,12456 1784,12456C2731,12456 3512,12592 3512,12761L3512,13960C3512,14129 2731,14264 1784,14264C838,14264 56,14129 56,13960L56,12761Z" style="fill:rgb(160,9,117);"/>
    </g>
    <g transform="matrix(0.0354727,0,0,0.0412604,11.3359,-75.9041)">
        <path d="M56,12761C56,12592 838,12456 1784,12456C2731,12456 3512,12592 3512,12761L3512,13960C3512,14129 2731,14264 1784,14264C838,14264 56,14129 56,13960L56,12761Z" style="fill:none;stroke:rgb(116,5,84);stroke-width:133px;"/>
    </g>
    <g transform="matrix(0.0354727,0,0,0.0412604,11.3359,-75.9041)">
        <path d="M3512,12760C3512,12912 2731,13064 1784,13064C838,13064 56,12912 56,12760" style="fill:rgb(160,9,117);"/>
    </g>
    <g transform="matrix(0.0354727,0,0,0.0412604,11.3359,-75.9041)">
        <path d="M3512,12760C3512,12912 2731,13064 1784,13064C838,13064 56,12912 56,12760" style="fill:none;stroke:rgb(116,5,84);stroke-width:133px;"/>
    </g>
    <g transform="matrix(0.0354727,0,0,0.0412604,11.3359,-75.9041)">
        <path d="M56,12761C56,12592 838,12456 1784,12456C2731,12456 3512,12592 3512,12761L3512,13960C3512,14129 2731,14264 1784,14264C838,14264 56,14129 56,13960L56,12761Z" style="fill:rgb(160,9,117);"/>
    </g>
    <g transform="matrix(0.0354727,0,0,0.0412604,11.3359,-75.9041)">
        <path d="M56,12761C56,12592 838,12456 1784,12456C2731,12456 3512,12592 3512,12761L3512,13960C3512,14129 2731,14264 1784,14264C838,14264 56,14129 56,13960L56,12761Z" style="fill:none;stroke:rgb(116,5,84);stroke-width:133px;"/>
    </g>
    <g transform="matrix(0.0354727,0,0,0.0412604,11.3359,-75.9041)">
        <path d="M56,11656C56,11488 838,11352 1784,11352C2731,11352 3512,11488 3512,11656L3512,12872C3512,13041 2731,13176 1784,13176C838,13176 56,13041 56,12872L56,11656Z" style="fill:rgb(160,9,117);"/>
    </g>
    <g transform="matrix(0.0354727,0,0,0.0412604,11.3359,-75.9041)">
        <path d="M56,11656C56,11488 838,11352 1784,11352C2731,11352 3512,11488 3512,11656L3512,12872C3512,13041 2731,13176 1784,13176C838,13176 56,13041 56,12872L56,11656Z" style="fill:none;stroke:rgb(116,5,84);stroke-width:133px;"/>
    </g>
    <g transform="matrix(0.0354727,0,0,0.0412604,11.3359,-75.9041)">
        <path d="M3512,11656C3512,11825 2731,11960 1784,11960C838,11960 56,11825 56,11656" style="fill:rgb(160,9,117);"/>
    </g>
    <g transform="matrix(0.0354727,0,0,0.0412604,11.3359,-75.9041)">
        <path d="M3512,11656C3512,11825 2731,11960 1784,11960C838,11960 56,11825 56,11656" style="fill:none;stroke:rgb(116,5,84);stroke-width:133px;"/>
    </g>
    <g transform="matrix(0.0354727,0,0,0.0412604,11.3359,-75.9041)">
        <path d="M56,11656C56,11488 838,11352 1784,11352C2731,11352 3512,11488 3512,11656L3512,12872C3512,13041 2731,13176 1784,13176C838,13176 56,13041 56,12872L56,11656Z" style="fill:rgb(160,9,117);"/>
    </g>
    <g transform="matrix(0.0354727,0,0,0.0412604,11.3359,-75.9041)">
        <path d="M56,11656C56,11488 838,11352 1784,11352C2731,11352 3512,11488 3512,11656L3512,12872C3512,13041 2731,13176 1784,13176C838,13176 56,13041 56,12872L56,11656Z" style="fill:none;stroke:rgb(116,5,84);stroke-width:133px;"/>
    </g>
    <g transform="matrix(0.0354727,0,0,0.0412604,11.3359,-75.9041)">
        <path d="M56,10571C56,10401 838,10264 1784,10264C2731,10264 3512,10401 3512,10571L3512,11782C3512,11952 2731,12088 1784,12088C838,12088 56,11952 56,11782L56,10571Z" style="fill:rgb(160,9,117);"/>
    </g>
    <g transform="matrix(0.0354727,0,0,0.0412604,11.3359,-75.9041)">
        <path d="M56,10571C56,10401 838,10264 1784,10264C2731,10264 3512,10401 3512,10571L3512,11782C3512,11952 2731,12088 1784,12088C838,12088 56,11952 56,11782L56,10571Z" style="fill:none;stroke:rgb(116,5,84);stroke-width:133px;"/>
    </g>
    <g transform="matrix(0.0354727,0,0,0.0412604,11.3359,-75.9041)">
        <path d="M3512,10568C3512,10737 2731,10872 1784,10872C838,10872 56,10737 56,10568" style="fill:rgb(160,9,117);"/>
    </g>
    <g transform="matrix(0.0354727,0,0,0.0412604,11.3359,-75.9041)">
        <path d="M3512,10568C3512,10737 2731,10872 1784,10872C838,10872 56,10737 56,10568" style="fill:none;stroke:rgb(116,5,84);stroke-width:133px;"/>
    </g>
    <g transform="matrix(0.0293787,0,0,0.0293798,19.6771,99.5602)">
        <path d="M3768,13802L3473,14104L3176,13802L3342,13802C3286,13690 3174,13620 3051,13620C2972,13620 2896,13650 2837,13703L2536,13703C2670,13412 3010,13287 3295,13424C3446,13497 3559,13635 3602,13802L3768,13802Z" style="fill:rgb(68,138,255);"/>
    </g>
    <g transform="matrix(0.0293787,0,0,0.0293798,19.6771,99.5602)">
        <path d="M2344,14103L2641,13800L2937,14103L2770,14103C2826,14215 2938,14285 3060,14285C3139,14285 3215,14255 3274,14201L3576,14201C3442,14493 3102,14618 2817,14481C2665,14407 2553,14269 2509,14103L2344,14103Z" style="fill:rgb(68,138,255);"/>
    </g>
    <g transform="matrix(0.0293787,0,0,0.0293798,19.6771,99.5602)">
        <path d="M4478,15048C4873,15039 5186,14703 5176,14298C5168,13941 4910,13642 4565,13590C4528,13361 4405,13156 4223,13019C4033,12881 3797,12830 3570,12878C3346,12524 2929,12354 2530,12452C2140,12555 1849,12888 1791,13296C1532,13303 1290,13431 1134,13645C950,13906 917,14249 1046,14543C1179,14832 1455,15025 1767,15043L4478,15048ZM1779,14752C1572,14739 1388,14611 1300,14419C1214,14223 1236,13995 1358,13821C1483,13649 1690,13562 1896,13596L2058,13623L2058,13439C2060,13108 2280,12819 2594,12736C2909,12659 3235,12814 3379,13111L3434,13224L3549,13183C3721,13120 3912,13148 4060,13256C4208,13367 4295,13543 4296,13731L4296,13877L4482,13877C4720,13886 4905,14090 4896,14333C4887,14565 4704,14750 4478,14756L1779,14752Z" style="fill:rgb(68,138,255);"/>
    </g>
    <g transform="matrix(0.0380851,-0.0199093,0.0114886,0.0219768,-283.397,636.989)">
        <path d="M24932,6808L25075,6959L25208,7120L25329,7285L25438,7458L25535,7635L25621,7818L25694,8005L25757,8198L25808,8395L25846,8596L25874,8799L25890,9007L25894,9219L25888,9432L25870,9648L25841,9866L25801,10086L25750,10307L25687,10530L25614,10753L25530,10978L25435,11204L25329,11428L25213,11653L25086,11877L24949,12100L24800,12323L24642,12545L24473,12764L24292,12982L24103,13197L23993,13314L23896,13223L24005,13107L24003,13108L24191,12894L24190,12896L24369,12680L24368,12682L24536,12465L24534,12467L24691,12247L24690,12249L24837,12028L24836,12030L24972,11809L24970,11811L25096,11589L25095,11591L25210,11368L25209,11370L25314,11148L25313,11151L25407,10928L25406,10930L25489,10708L25488,10711L25560,10490L25559,10492L25621,10272L25620,10276L25670,10058L25670,10060L25710,9843L25709,9847L25737,9632L25737,9635L25755,9423L25755,9427L25761,9217L25761,9220L25757,9012L25757,9016L25741,8812L25741,8815L25714,8615L25715,8619L25677,8422L25678,8426L25628,8233L25629,8237L25568,8048L25569,8052L25497,7869L25499,7873L25415,7694L25417,7697L25322,7523L25324,7527L25217,7358L25220,7362L25102,7200L25104,7203L24974,7046L24977,7049L24835,6899L24932,6808ZM24852,13068L23854,13365L24087,12351C24095,12315 24131,12292 24167,12301C24203,12309 24225,12345 24217,12380L24010,13283L23926,13204L24814,12940C24849,12930 24886,12950 24896,12985C24907,13021 24887,13058 24852,13068Z" style="fill:rgb(68,138,255);fill-rule:nonzero;stroke:rgb(68,138,255);stroke-width:85.51px;stroke-linejoin:round;stroke-miterlimit:2;"/>
    </g>
    <g transform="matrix(3.91745,0,0,3.91745,187.559,282.534)">
        <g transform="matrix(0.0131877,0,0,0.0077534,-42.6851,-1.01594)">
            <path d="M7504,4000L7510,3802L7527,3599L7556,3397L7594,3192L7645,2988L7705,2783L7777,2579L7858,2374L7950,2171L8051,1968L8164,1766L8286,1566L8419,1367L8560,1169L8711,974L8787,883L8890,968L8815,1058L8816,1056L8666,1249L8668,1247L8528,1443L8529,1441L8398,1638L8399,1636L8278,1834L8280,1832L8169,2032L8170,2029L8070,2229L8071,2227L7980,2428L7981,2425L7901,2627L7902,2625L7831,2826L7832,2822L7773,3024L7774,3022L7724,3223L7725,3219L7687,3420L7687,3417L7659,3616L7660,3612L7643,3811L7643,3808L7637,4005L7504,4000ZM7946,1181L8923,823L8753,1850C8747,1886 8713,1911 8677,1905C8640,1899 8616,1864 8622,1828L8772,914L8861,988L7992,1306C7957,1319 7919,1301 7906,1267C7893,1232 7911,1194 7946,1181Z" style="fill:rgb(68,138,255);fill-rule:nonzero;stroke:rgb(68,138,255);stroke-width:70.79px;stroke-linejoin:round;stroke-miterlimit:2;"/>
        </g>
        <g transform="matrix(0.00749944,0,0,0.00749973,0,0)">
            <path d="M16606,12177L16369,12316L16125,12447L15877,12569L15624,12683L15368,12787L15107,12882L14844,12969L14578,13048L14310,13117L14041,13178L13770,13229L13498,13272L13226,13307L12954,13332L12681,13348L12410,13355L12140,13354L11872,13344L11606,13326L11341,13298L11081,13261L10824,13216L10570,13161L10321,13098L10076,13026L9837,12944L9603,12854L9375,12755L9153,12647L8938,12530L8731,12404L8643,12344L8717,12233L8805,12292L8802,12291L9006,12416L9003,12414L9215,12529L9213,12528L9432,12635L9429,12633L9655,12731L9652,12730L9883,12819L9881,12818L10118,12899L10115,12899L10357,12970L10355,12969L10602,13032L10599,13031L10850,13085L10848,13085L11103,13130L11101,13129L11359,13165L11357,13165L11619,13193L11616,13193L11880,13211L11878,13211L12144,13221L12142,13221L12410,13222L12408,13222L12677,13215L12675,13215L12945,13199L12942,13199L13212,13174L13210,13174L13480,13140L13478,13141L13748,13098L13746,13098L14015,13047L14013,13047L14280,12987L14278,12988L14544,12919L14542,12920L14806,12842L14804,12842L15065,12756L15062,12757L15320,12662L15318,12663L15572,12560L15570,12561L15821,12448L15819,12449L16065,12328L16063,12329L16305,12199L16303,12200L16539,12062L16606,12177ZM9022,13152L8570,12214L9608,12283C9645,12285 9673,12317 9671,12354C9668,12390 9636,12418 9600,12416L8675,12355L8740,12259L9142,13094C9158,13127 9144,13167 9111,13183C9078,13199 9038,13185 9022,13152Z" style="fill:rgb(68,138,255);fill-rule:nonzero;stroke:rgb(68,138,255);stroke-width:102.11px;stroke-linejoin:round;stroke-miterlimit:2;"/>
        </g>
        <g transform="matrix(0.00749944,0,0,0.00749973,0,0)">
            <path d="M3,7369L175,7501L366,7623L572,7734L793,7834L1028,7923L1275,8000L1537,8066L1808,8119L2091,8162L2385,8192L2687,8210L2998,8217L3317,8211L3642,8194L3974,8163L4179,8137L4162,8005L3958,8030L3960,8030L3631,8061L3634,8061L3311,8078L3313,8078L2997,8084L3000,8084L2691,8077L2693,8077L2394,8059L2397,8059L2106,8029L2109,8030L1829,7988L1832,7988L1564,7935L1568,7936L1310,7871L1313,7872L1069,7796L1073,7797L842,7710L846,7712L629,7614L633,7616L431,7507L435,7509L249,7390L254,7394L84,7264L3,7369ZM3475,8686L4302,8054L3345,7646C3311,7632 3272,7647 3257,7681C3243,7715 3259,7754 3292,7769L4144,8132L4130,8018L3394,8580C3365,8603 3359,8645 3382,8674C3404,8703 3446,8709 3475,8686Z" style="fill:rgb(68,138,255);fill-rule:nonzero;stroke:rgb(68,138,255);stroke-width:102.11px;stroke-linejoin:round;stroke-miterlimit:2;"/>
        </g>
    </g>
    <g transform="matrix(0.0128013,0.00749544,-0.000194655,0.0170767,331.027,371.272)">
        <rect x="56" y="1928" width="3200" height="2816" style="fill:rgb(160,9,117);"/>
    </g>
    <g transform="matrix(0.0128013,0.00749544,-0.000194655,0.0170767,331.027,371.272)">
        <rect x="3416" y="1928" width="3200" height="2816" style="fill:rgb(160,9,117);"/>
    </g>
    <g transform="matrix(0.0128013,0.00749544,-0.000194655,0.0170767,331.027,371.272)">
        <rect x="6776" y="1928" width="3200" height="2816" style="fill:rgb(160,9,117);"/>
    </g>
    <g transform="matrix(0.0128013,0.00749544,-0.000194655,0.0170767,331.027,371.272)">
        <rect x="56" y="4904" width="3200" height="2816" style="fill:rgb(160,9,117);"/>
    </g>
    <g transform="matrix(0.0128013,0.00749544,-0.000194655,0.0170767,331.027,371.272)">
        <rect x="3416" y="4904" width="3200" height="2816" style="fill:rgb(160,9,117);"/>
    </g>
    <g transform="matrix(0.0128013,0.00749544,-0.000194655,0.0170767,331.027,371.272)">
        <rect x="6776" y="4904" width="3200" height="2816" style="fill:rgb(160,9,117);"/>
    </g>
    <g transform="matrix(0.0128013,0.00749544,-0.000194655,0.0170767,331.027,371.272)">
        <rect x="56" y="7832" width="3200" height="2816" style="fill:rgb(160,9,117);"/>
    </g>
    <g transform="matrix(0.0128013,0.00749544,-0.000194655,0.0170767,331.027,371.272)">
        <rect x="3416" y="7832" width="3200" height="2816" style="fill:rgb(160,9,117);"/>
    </g>
    <g transform="matrix(0.0128013,0.00749544,-0.000194655,0.0170767,331.027,371.272)">
        <rect x="6776" y="7832" width="3200" height="2816" style="fill:rgb(160,9,117);"/>
    </g>
    <g transform="matrix(0.0128013,0.00749544,-0.000194655,0.0170767,331.027,371.272)">
        <rect x="56" y="56" width="9808" height="1376" style="fill:rgb(68,138,255);"/>
    </g>
    <g transform="matrix(1.70697,0.999466,-0.0259549,2.27698,331.027,371.272)">
        <rect x="0" y="0" width="74.874" height="79.917" style="fill:none;"/>
    </g>
    <g transform="matrix(0.0128013,0.00749544,-0.000194655,0.0170767,331.027,371.272)">
        <g>
            <rect x="56" y="56" width="9808" height="1376" style="fill:none;stroke:black;stroke-width:133px;"/>
        </g>
    </g>
    <g transform="matrix(1.46586,0,0,1.46586,402.875,149.306)">
        <rect x="0" y="0" width="207.225" height="144.715" style="fill:none;"/>
    </g>
    <g transform="matrix(0.0109931,0,0,0.0109936,402.875,149.306)">
        <path d="M1475,9879L26144,9879L26144,9946L1475,9946L1475,9879ZM1608,10312L808,9912L1608,9512L1608,10312ZM26011,9512L26811,9912L26011,10312L26011,9512Z" style="fill:rgb(68,138,255);fill-rule:nonzero;stroke:rgb(68,138,255);stroke-width:421.29px;stroke-linejoin:round;stroke-miterlimit:2;"/>
    </g>
    <g transform="matrix(0.0109931,0,0,0.0109936,402.875,149.306)">
        <path d="M13885,17806L13951,1475L13885,1475L13818,17806L13885,17806ZM13452,17671L13848,18473L14252,17674L13452,17671ZM14318,1610L13921,808L13518,1607L14318,1610Z" style="fill:rgb(68,138,255);fill-rule:nonzero;stroke:rgb(68,138,255);stroke-width:421.29px;stroke-linejoin:round;stroke-miterlimit:2;"/>
    </g>
    <g transform="matrix(0.0109931,0,0,0.017495,402.875,84.5695)">
        <path d="M3592,9911C4470,7472 6445,5852 7862,6243C9279,6633 10623,12023 12095,12256C13566,12490 15104,7674 16690,7642C18275,7610 20247,11859 21610,12067C22973,12275 23558,11642 24504,9949" style="fill:rgb(160,9,117);"/>
    </g>
    <g transform="matrix(0.0109931,0,0,0.017495,402.875,84.5695)">
        <path d="M3592,9911C4470,7472 6445,5852 7862,6243C9279,6633 10623,12023 12095,12256C13566,12490 15104,7674 16690,7642C18275,7610 20247,11859 21610,12067C22973,12275 23558,11642 24504,9949" style="fill:none;stroke:rgb(116,5,84);stroke-width:133px;"/>
    </g>
    <g transform="matrix(0.00305643,-0.0017286,5.26102e-05,0.00400447,577.51,500.865)">
        <path d="M24272,4544C24272,2574 25873,976 27848,976C29823,976 31424,2574 31424,4544C31424,6515 29823,8112 27848,8112C25873,8112 24272,6515 24272,4544" style="fill:rgb(160,9,117);"/>
    </g>
    <g transform="matrix(0.407555,-0.230497,0.00701495,0.533948,577.51,500.865)">
        <rect x="0" y="0" width="554.839" height="374.147" style="fill:none;"/>
    </g>
    <g transform="matrix(0.00305643,-0.0017286,5.26102e-05,0.00400447,577.51,500.865)">
        <path d="M24272,4544C24272,2574 25873,976 27848,976C29823,976 31424,2574 31424,4544C31424,6515 29823,8112 27848,8112C25873,8112 24272,6515 24272,4544" style="fill:none;stroke:rgb(160,9,117);stroke-width:299.99px;"/>
    </g>
    <g transform="matrix(0.407555,-0.230497,0.00701495,0.533948,577.51,500.865)">
        <rect x="0" y="0" width="554.839" height="379.066" style="fill:none;"/>
    </g>
    <g transform="matrix(14.6709,-8.29727,0.25253,19.2215,657.863,480.005)">
        <g>
            <path d="M0.408,-0.367L0.55,-0.155C0.59,-0.096 0.619,-0.059 0.638,-0.044C0.657,-0.028 0.681,-0.02 0.71,-0.018L0.71,-0L0.426,-0L0.426,-0.018C0.445,-0.018 0.459,-0.02 0.468,-0.024C0.475,-0.027 0.481,-0.031 0.485,-0.037C0.49,-0.043 0.492,-0.049 0.492,-0.056C0.492,-0.063 0.49,-0.071 0.487,-0.078C0.485,-0.084 0.476,-0.098 0.46,-0.121L0.348,-0.291L0.209,-0.113C0.195,-0.094 0.186,-0.082 0.183,-0.075C0.18,-0.069 0.179,-0.063 0.179,-0.056C0.179,-0.045 0.183,-0.037 0.192,-0.03C0.201,-0.023 0.217,-0.019 0.242,-0.018L0.242,-0L0.007,-0L0.007,-0.018C0.024,-0.02 0.038,-0.023 0.05,-0.028C0.07,-0.037 0.09,-0.048 0.108,-0.063C0.126,-0.077 0.147,-0.099 0.17,-0.128L0.327,-0.326L0.196,-0.517C0.161,-0.568 0.131,-0.602 0.106,-0.618C0.081,-0.635 0.053,-0.643 0.021,-0.644L0.021,-0.662L0.327,-0.662L0.327,-0.644C0.301,-0.643 0.283,-0.639 0.273,-0.631C0.264,-0.624 0.259,-0.616 0.259,-0.606C0.259,-0.594 0.267,-0.577 0.282,-0.554L0.384,-0.402L0.501,-0.551C0.515,-0.568 0.524,-0.58 0.527,-0.587C0.53,-0.593 0.531,-0.6 0.531,-0.607C0.531,-0.614 0.529,-0.62 0.525,-0.625C0.521,-0.632 0.514,-0.637 0.507,-0.639C0.499,-0.642 0.484,-0.644 0.46,-0.644L0.46,-0.662L0.695,-0.662L0.695,-0.644C0.677,-0.643 0.662,-0.64 0.65,-0.635C0.632,-0.628 0.616,-0.618 0.602,-0.605C0.587,-0.592 0.566,-0.569 0.54,-0.535L0.408,-0.367Z" style="fill:white;fill-rule:nonzero;"/>
        </g>
    </g>
    <g transform="matrix(0.00611288,-0.0034572,0.000105221,0.00800895,577.51,500.865)">
        <path d="M12136,15328C12136,14343 12937,13544 13924,13544C14912,13544 15712,14343 15712,15328C15712,16314 14912,17112 13924,17112C12937,17112 12136,16314 12136,15328" style="fill:none;stroke:rgb(160,9,117);stroke-width:150px;"/>
    </g>
    <g transform="matrix(0.00305643,-0.0017286,5.26102e-05,0.00400447,577.51,500.865)">
        <path d="M1216,18792C1216,16817 2814,15216 4784,15216C6755,15216 8352,16817 8352,18792C8352,20767 6755,22368 4784,22368C2814,22368 1216,20767 1216,18792" style="fill:rgb(160,9,117);"/>
    </g>
    <g transform="matrix(0.00305643,-0.0017286,5.26102e-05,0.00400447,577.51,500.865)">
        <path d="M1216,18792C1216,16817 2814,15216 4784,15216C6755,15216 8352,16817 8352,18792C8352,20767 6755,22368 4784,22368C2814,22368 1216,20767 1216,18792" style="fill:none;stroke:rgb(160,9,117);stroke-width:299.99px;"/>
    </g>
    <g transform="matrix(0.00611288,-0.0034572,0.000105221,0.00800895,577.51,500.865)">
        <path d="M23424,9564C23424,8577 24225,7776 25212,7776C26200,7776 27000,8577 27000,9564C27000,10552 26200,11352 25212,11352C24225,11352 23424,10552 23424,9564" style="fill:none;stroke:rgb(160,9,117);stroke-width:150px;"/>
    </g>
    <g transform="matrix(0.407555,-0.230497,0.00701495,0.533948,577.51,500.865)">
        <rect x="0" y="0" width="554.839" height="374.147" style="fill:none;"/>
    </g>
    <g transform="matrix(0.0122258,-0.0069144,0.000210441,0.0160179,577.51,500.865)">
        <path d="M16464,7748C16464,7256 16865,6856 17358,6856C17852,6856 18252,7256 18252,7748C18252,8241 17852,8640 17358,8640C16865,8640 16464,8241 16464,7748" style="fill:none;stroke:rgb(160,9,117);stroke-width:75px;"/>
    </g>
    <g transform="matrix(0.00611288,-0.0034572,0.000105221,0.00800895,577.51,500.865)">
        <path d="M23424,22496C23424,21511 24225,20712 25212,20712C26200,20712 27000,21511 27000,22496C27000,23482 26200,24280 25212,24280C24225,24280 23424,23482 23424,22496" style="fill:rgb(160,9,117);"/>
    </g>
    <g transform="matrix(0.00611288,-0.0034572,0.000105221,0.00800895,577.51,500.865)">
        <path d="M23424,22496C23424,21511 24225,20712 25212,20712C26200,20712 27000,21511 27000,22496C27000,23482 26200,24280 25212,24280C24225,24280 23424,23482 23424,22496" style="fill:none;stroke:rgb(160,9,117);stroke-width:150px;"/>
    </g>
    <g transform="matrix(0.00305643,-0.0017286,5.26102e-05,0.00400447,577.51,500.865)">
        <path d="M26696,25808L26696,11184L26296,11184L26296,25808L26696,25808ZM26496,11184L27496,11984L26496,9984L25496,11984L26496,11184Z" style="fill:rgb(160,9,117);fill-rule:nonzero;stroke:rgb(160,9,117);stroke-width:1px;stroke-linejoin:round;stroke-miterlimit:10;"/>
    </g>
    <g transform="matrix(0.00305643,-0.0017286,5.26102e-05,0.00400447,577.51,500.865)">
        <path d="M29176,10224L29176,24848L28776,24848L28776,10224L29176,10224ZM28976,24848L29976,24048L28976,26048L27976,24048L28976,24848Z" style="fill:rgb(160,9,117);fill-rule:nonzero;stroke:rgb(160,9,117);stroke-width:1px;stroke-linejoin:round;stroke-miterlimit:10;"/>
    </g>
    <g transform="matrix(0.407555,-0.230497,0.00701495,0.533948,577.51,500.865)">
        <rect x="0" y="0" width="554.839" height="379.066" style="fill:none;"/>
    </g>
    <g transform="matrix(14.6709,-8.29727,0.25253,19.2215,657.836,584.578)">
        <g>
            <path d="M0.408,-0.367L0.55,-0.155C0.59,-0.096 0.619,-0.059 0.638,-0.044C0.657,-0.028 0.681,-0.02 0.71,-0.018L0.71,-0L0.426,-0L0.426,-0.018C0.445,-0.018 0.459,-0.02 0.468,-0.024C0.475,-0.027 0.481,-0.031 0.485,-0.037C0.49,-0.043 0.492,-0.049 0.492,-0.056C0.492,-0.063 0.49,-0.071 0.487,-0.078C0.485,-0.084 0.476,-0.098 0.46,-0.121L0.348,-0.291L0.209,-0.113C0.195,-0.094 0.186,-0.082 0.183,-0.075C0.18,-0.069 0.179,-0.063 0.179,-0.056C0.179,-0.045 0.183,-0.037 0.192,-0.03C0.201,-0.023 0.217,-0.019 0.242,-0.018L0.242,-0L0.007,-0L0.007,-0.018C0.024,-0.02 0.038,-0.023 0.05,-0.028C0.07,-0.037 0.09,-0.048 0.108,-0.063C0.126,-0.077 0.147,-0.099 0.17,-0.128L0.327,-0.326L0.196,-0.517C0.161,-0.568 0.131,-0.602 0.106,-0.618C0.081,-0.635 0.053,-0.643 0.021,-0.644L0.021,-0.662L0.327,-0.662L0.327,-0.644C0.301,-0.643 0.283,-0.639 0.273,-0.631C0.264,-0.624 0.259,-0.616 0.259,-0.606C0.259,-0.594 0.267,-0.577 0.282,-0.554L0.384,-0.402L0.501,-0.551C0.515,-0.568 0.524,-0.58 0.527,-0.587C0.53,-0.593 0.531,-0.6 0.531,-0.607C0.531,-0.614 0.529,-0.62 0.525,-0.625C0.521,-0.632 0.514,-0.637 0.507,-0.639C0.499,-0.642 0.484,-0.644 0.46,-0.644L0.46,-0.662L0.695,-0.662L0.695,-0.644C0.677,-0.643 0.662,-0.64 0.65,-0.635C0.632,-0.628 0.616,-0.618 0.602,-0.605C0.587,-0.592 0.566,-0.569 0.54,-0.535L0.408,-0.367Z" style="fill:rgb(160,9,117);fill-rule:nonzero;"/>
        </g>
    </g>
    <g transform="matrix(9.78059,-5.53151,0.168353,12.8143,668.163,580.297)">
        <g>
            <path d="M0.221,-0.442L0.188,-0.33C0.223,-0.371 0.255,-0.4 0.282,-0.417C0.31,-0.434 0.339,-0.442 0.368,-0.442C0.397,-0.442 0.421,-0.43 0.442,-0.407C0.462,-0.385 0.473,-0.355 0.473,-0.318C0.473,-0.246 0.444,-0.173 0.385,-0.099C0.327,-0.025 0.259,0.012 0.182,0.012C0.165,0.012 0.151,0.01 0.138,0.006C0.126,0.003 0.112,-0.004 0.096,-0.013L0.061,0.113C0.053,0.138 0.05,0.154 0.05,0.162C0.05,0.169 0.052,0.175 0.055,0.18C0.059,0.185 0.065,0.189 0.074,0.192C0.082,0.194 0.099,0.196 0.124,0.196L0.12,0.214L-0.11,0.214L-0.105,0.196C-0.075,0.194 -0.055,0.189 -0.044,0.18C-0.034,0.171 -0.022,0.146 -0.011,0.104L0.113,-0.323C0.12,-0.35 0.124,-0.367 0.124,-0.374C0.124,-0.382 0.122,-0.389 0.116,-0.394C0.111,-0.399 0.104,-0.401 0.093,-0.401C0.084,-0.401 0.071,-0.4 0.054,-0.398L0.054,-0.417L0.221,-0.442ZM0.107,-0.051C0.128,-0.027 0.155,-0.015 0.189,-0.015C0.206,-0.015 0.223,-0.02 0.241,-0.029C0.258,-0.039 0.275,-0.053 0.292,-0.071C0.309,-0.09 0.324,-0.111 0.337,-0.135C0.351,-0.16 0.363,-0.188 0.373,-0.221C0.384,-0.254 0.389,-0.287 0.389,-0.319C0.389,-0.345 0.383,-0.365 0.371,-0.379C0.359,-0.392 0.346,-0.399 0.33,-0.399C0.294,-0.399 0.26,-0.379 0.225,-0.339C0.191,-0.299 0.166,-0.251 0.15,-0.197L0.107,-0.051Z" style="fill:rgb(160,9,117);fill-rule:nonzero;"/>
        </g>
    </g>
    <g transform="matrix(9.78059,-5.53151,0.168353,12.8143,734.528,496.237)">
        <g>
            <path d="M0.221,-0.442L0.188,-0.33C0.223,-0.371 0.255,-0.4 0.282,-0.417C0.31,-0.434 0.339,-0.442 0.368,-0.442C0.397,-0.442 0.421,-0.43 0.442,-0.407C0.462,-0.385 0.473,-0.355 0.473,-0.318C0.473,-0.246 0.444,-0.173 0.385,-0.099C0.327,-0.025 0.259,0.012 0.182,0.012C0.165,0.012 0.151,0.01 0.138,0.006C0.126,0.003 0.112,-0.004 0.096,-0.013L0.061,0.113C0.053,0.138 0.05,0.154 0.05,0.162C0.05,0.169 0.052,0.175 0.055,0.18C0.059,0.185 0.065,0.189 0.074,0.192C0.082,0.194 0.099,0.196 0.124,0.196L0.12,0.214L-0.11,0.214L-0.105,0.196C-0.075,0.194 -0.055,0.189 -0.044,0.18C-0.034,0.171 -0.022,0.146 -0.011,0.104L0.113,-0.323C0.12,-0.35 0.124,-0.367 0.124,-0.374C0.124,-0.382 0.122,-0.389 0.116,-0.394C0.111,-0.399 0.104,-0.401 0.093,-0.401C0.084,-0.401 0.071,-0.4 0.054,-0.398L0.054,-0.417L0.221,-0.442ZM0.107,-0.051C0.128,-0.027 0.155,-0.015 0.189,-0.015C0.206,-0.015 0.223,-0.02 0.241,-0.029C0.258,-0.039 0.275,-0.053 0.292,-0.071C0.309,-0.09 0.324,-0.111 0.337,-0.135C0.351,-0.16 0.363,-0.188 0.373,-0.221C0.384,-0.254 0.389,-0.287 0.389,-0.319C0.389,-0.345 0.383,-0.365 0.371,-0.379C0.359,-0.392 0.346,-0.399 0.33,-0.399C0.294,-0.399 0.26,-0.379 0.225,-0.339C0.191,-0.299 0.166,-0.251 0.15,-0.197L0.107,-0.051Z" style="fill:rgb(160,9,117);fill-rule:nonzero;"/>
        </g>
    </g>
    <g transform="matrix(9.78059,-5.53151,0.168353,12.8143,794.575,510.994)">
        <g>
            <path d="M0.458,-0.127L0.412,-0L0.021,-0L0.021,-0.018C0.136,-0.123 0.217,-0.208 0.264,-0.275C0.311,-0.341 0.334,-0.402 0.334,-0.457C0.334,-0.499 0.322,-0.534 0.296,-0.561C0.27,-0.588 0.239,-0.601 0.204,-0.601C0.171,-0.601 0.142,-0.592 0.116,-0.573C0.09,-0.553 0.071,-0.526 0.059,-0.489L0.041,-0.489C0.049,-0.549 0.07,-0.595 0.103,-0.627C0.137,-0.66 0.179,-0.676 0.229,-0.676C0.283,-0.676 0.328,-0.659 0.364,-0.624C0.4,-0.59 0.418,-0.549 0.418,-0.502C0.418,-0.468 0.41,-0.435 0.395,-0.401C0.37,-0.349 0.331,-0.293 0.277,-0.234C0.196,-0.145 0.146,-0.092 0.125,-0.074L0.298,-0.074C0.333,-0.074 0.358,-0.075 0.372,-0.078C0.386,-0.08 0.399,-0.086 0.411,-0.094C0.422,-0.101 0.432,-0.113 0.44,-0.127L0.458,-0.127Z" style="fill:rgb(160,9,117);fill-rule:nonzero;"/>
        </g>
    </g>
    <g transform="matrix(9.78059,-5.53151,0.168353,12.8143,596.459,572.898)">
        <g>
            <path d="M0.117,-0.597L0.278,-0.676L0.294,-0.676L0.294,-0.117C0.294,-0.08 0.296,-0.056 0.299,-0.047C0.302,-0.038 0.309,-0.031 0.318,-0.026C0.328,-0.021 0.348,-0.019 0.378,-0.018L0.378,-0L0.129,-0L0.129,-0.018C0.16,-0.019 0.18,-0.021 0.189,-0.026C0.199,-0.031 0.205,-0.037 0.208,-0.045C0.212,-0.053 0.214,-0.077 0.214,-0.117L0.214,-0.474C0.214,-0.522 0.212,-0.553 0.209,-0.567C0.207,-0.577 0.203,-0.585 0.197,-0.59C0.191,-0.595 0.183,-0.597 0.175,-0.597C0.163,-0.597 0.146,-0.592 0.125,-0.582L0.117,-0.597Z" style="fill:white;fill-rule:nonzero;"/>
        </g>
    </g>
    <g transform="matrix(14.6709,-8.29727,0.25253,19.2215,587.408,576.457)">
        <g>
            <path d="M0.209,-0.626L0.209,-0.364L0.354,-0.364C0.392,-0.364 0.417,-0.37 0.43,-0.381C0.447,-0.396 0.457,-0.423 0.458,-0.46L0.477,-0.46L0.477,-0.23L0.458,-0.23C0.454,-0.262 0.449,-0.283 0.445,-0.292C0.439,-0.303 0.429,-0.312 0.416,-0.319C0.403,-0.325 0.382,-0.329 0.354,-0.329L0.209,-0.329L0.209,-0.11C0.209,-0.081 0.21,-0.063 0.213,-0.057C0.215,-0.051 0.22,-0.045 0.227,-0.042C0.233,-0.038 0.245,-0.036 0.264,-0.036L0.376,-0.036C0.413,-0.036 0.441,-0.039 0.458,-0.044C0.474,-0.049 0.491,-0.059 0.506,-0.075C0.527,-0.095 0.547,-0.125 0.568,-0.166L0.588,-0.166L0.531,-0L0.021,-0L0.021,-0.018L0.044,-0.018C0.06,-0.018 0.074,-0.022 0.088,-0.029C0.099,-0.035 0.106,-0.042 0.11,-0.053C0.113,-0.063 0.115,-0.084 0.115,-0.117L0.115,-0.547C0.115,-0.589 0.111,-0.615 0.103,-0.625C0.091,-0.638 0.071,-0.644 0.044,-0.644L0.021,-0.644L0.021,-0.662L0.531,-0.662L0.538,-0.517L0.519,-0.517C0.512,-0.552 0.505,-0.576 0.496,-0.589C0.488,-0.602 0.476,-0.612 0.459,-0.619C0.446,-0.624 0.424,-0.626 0.391,-0.626L0.209,-0.626Z" style="fill:white;fill-rule:nonzero;"/>
        </g>
    </g>
    <g transform="matrix(14.6709,-8.29727,0.25253,19.2215,785.606,513.078)">
        <g>
            <path d="M0.209,-0.626L0.209,-0.364L0.354,-0.364C0.392,-0.364 0.417,-0.37 0.43,-0.381C0.447,-0.396 0.457,-0.423 0.458,-0.46L0.477,-0.46L0.477,-0.23L0.458,-0.23C0.454,-0.262 0.449,-0.283 0.445,-0.292C0.439,-0.303 0.429,-0.312 0.416,-0.319C0.403,-0.325 0.382,-0.329 0.354,-0.329L0.209,-0.329L0.209,-0.11C0.209,-0.081 0.21,-0.063 0.213,-0.057C0.215,-0.051 0.22,-0.045 0.227,-0.042C0.233,-0.038 0.245,-0.036 0.264,-0.036L0.376,-0.036C0.413,-0.036 0.441,-0.039 0.458,-0.044C0.474,-0.049 0.491,-0.059 0.506,-0.075C0.527,-0.095 0.547,-0.125 0.568,-0.166L0.588,-0.166L0.531,-0L0.021,-0L0.021,-0.018L0.044,-0.018C0.06,-0.018 0.074,-0.022 0.088,-0.029C0.099,-0.035 0.106,-0.042 0.11,-0.053C0.113,-0.063 0.115,-0.084 0.115,-0.117L0.115,-0.547C0.115,-0.589 0.111,-0.615 0.103,-0.625C0.091,-0.638 0.071,-0.644 0.044,-0.644L0.021,-0.644L0.021,-0.662L0.531,-0.662L0.538,-0.517L0.519,-0.517C0.512,-0.552 0.505,-0.576 0.496,-0.589C0.488,-0.602 0.476,-0.612 0.459,-0.619C0.446,-0.624 0.424,-0.626 0.391,-0.626L0.209,-0.626Z" style="fill:rgb(160,9,117);fill-rule:nonzero;"/>
        </g>
    </g>
    <g transform="matrix(14.6709,-8.29727,0.25253,19.2215,728.857,603.006)">
        <g>
            <path d="M0.477,-0.662L0.708,-0.662L0.708,-0.644L0.695,-0.644C0.686,-0.644 0.674,-0.64 0.658,-0.633C0.641,-0.625 0.627,-0.615 0.613,-0.601C0.6,-0.587 0.583,-0.564 0.564,-0.532L0.404,-0.281L0.404,-0.115C0.404,-0.074 0.409,-0.049 0.418,-0.039C0.43,-0.025 0.45,-0.018 0.477,-0.018L0.498,-0.018L0.498,-0L0.217,-0L0.217,-0.018L0.24,-0.018C0.268,-0.018 0.288,-0.027 0.3,-0.043C0.307,-0.054 0.311,-0.078 0.311,-0.115L0.311,-0.271L0.129,-0.549C0.107,-0.581 0.093,-0.602 0.085,-0.61C0.078,-0.618 0.062,-0.628 0.038,-0.639C0.031,-0.642 0.022,-0.644 0.009,-0.644L0.009,-0.662L0.292,-0.662L0.292,-0.644L0.278,-0.644C0.263,-0.644 0.248,-0.64 0.236,-0.633C0.223,-0.626 0.216,-0.615 0.216,-0.601C0.216,-0.589 0.226,-0.568 0.246,-0.538L0.384,-0.324L0.514,-0.528C0.534,-0.559 0.543,-0.582 0.543,-0.597C0.543,-0.606 0.541,-0.614 0.536,-0.621C0.532,-0.628 0.525,-0.634 0.516,-0.638C0.507,-0.642 0.494,-0.644 0.477,-0.644L0.477,-0.662Z" style="fill:white;fill-rule:nonzero;"/>
        </g>
    </g>
    <g transform="matrix(14.6709,-8.29727,0.25253,19.2215,726.216,500.963)">
        <g>
            <path d="M0.477,-0.662L0.708,-0.662L0.708,-0.644L0.695,-0.644C0.686,-0.644 0.674,-0.64 0.658,-0.633C0.641,-0.625 0.627,-0.615 0.613,-0.601C0.6,-0.587 0.583,-0.564 0.564,-0.532L0.404,-0.281L0.404,-0.115C0.404,-0.074 0.409,-0.049 0.418,-0.039C0.43,-0.025 0.45,-0.018 0.477,-0.018L0.498,-0.018L0.498,-0L0.217,-0L0.217,-0.018L0.24,-0.018C0.268,-0.018 0.288,-0.027 0.3,-0.043C0.307,-0.054 0.311,-0.078 0.311,-0.115L0.311,-0.271L0.129,-0.549C0.107,-0.581 0.093,-0.602 0.085,-0.61C0.078,-0.618 0.062,-0.628 0.038,-0.639C0.031,-0.642 0.022,-0.644 0.009,-0.644L0.009,-0.662L0.292,-0.662L0.292,-0.644L0.278,-0.644C0.263,-0.644 0.248,-0.64 0.236,-0.633C0.223,-0.626 0.216,-0.615 0.216,-0.601C0.216,-0.589 0.226,-0.568 0.246,-0.538L0.384,-0.324L0.514,-0.528C0.534,-0.559 0.543,-0.582 0.543,-0.597C0.543,-0.606 0.541,-0.614 0.536,-0.621C0.532,-0.628 0.525,-0.634 0.516,-0.638C0.507,-0.642 0.494,-0.644 0.477,-0.644L0.477,-0.662Z" style="fill:rgb(160,9,117);fill-rule:nonzero;"/>
        </g>
    </g>
    <g transform="matrix(0.00611288,-0.0034572,0.000105221,0.00800895,577.51,500.865)">
        <path d="M24628,20240L24628,12928L24428,12928L24428,20240L24628,20240ZM24528,12928L25028,13328L24528,12328L24028,13328L24528,12928Z" style="fill:rgb(160,9,117);fill-rule:nonzero;stroke:rgb(160,9,117);stroke-width:1px;stroke-linejoin:round;stroke-miterlimit:2;"/>
    </g>
    <g transform="matrix(0.00611288,-0.0034572,0.000105221,0.00800895,577.51,500.865)">
        <path d="M25868,12448L25868,19760L25668,19760L25668,12448L25868,12448ZM25768,19760L26268,19360L25768,20360L25268,19360L25768,19760Z" style="fill:rgb(160,9,117);fill-rule:nonzero;stroke:rgb(160,9,117);stroke-width:1px;stroke-linejoin:round;stroke-miterlimit:2;"/>
    </g>
    <g transform="matrix(0.00305643,-0.0017286,5.26102e-05,0.00400447,577.51,500.865)">
        <path d="M9808,18824L10208,18824L10208,19224L9808,19224L9808,18824ZM10608,18824L11008,18824L11008,19224L10608,19224L10608,18824ZM11408,18824L11808,18824L11808,19224L11408,19224L11408,18824ZM12208,18824L12608,18824L12608,19224L12208,19224L12208,18824ZM13008,18824L13408,18824L13408,19224L13008,19224L13008,18824ZM13808,18824L14208,18824L14208,19224L13808,19224L13808,18824ZM14608,18824L15008,18824L15008,19224L14608,19224L14608,18824ZM15408,18824L15808,18824L15808,19224L15408,19224L15408,18824ZM16208,18824L16608,18824L16608,19224L16208,19224L16208,18824ZM17008,18824L17408,18824L17408,19224L17008,19224L17008,18824ZM17808,18824L18208,18824L18208,19224L17808,19224L17808,18824ZM18608,18824L19008,18824L19008,19224L18608,19224L18608,18824ZM19408,18824L19808,18824L19808,19224L19408,19224L19408,18824ZM20208,18824L20608,18824L20608,19224L20208,19224L20208,18824ZM21008,18824L21408,18824L21408,19224L21008,19224L21008,18824ZM21808,18824L22208,18824L22208,19224L21808,19224L21808,18824ZM22608,18824L23008,18824L23008,19224L22608,19224L22608,18824ZM23278,19024L22478,18024L24478,19024L22478,20024L23278,19024Z" style="fill:rgb(160,9,117);fill-rule:nonzero;stroke:rgb(160,9,117);stroke-width:1px;stroke-linejoin:round;stroke-miterlimit:2;"/>
    </g>
    <g transform="matrix(0.00611288,-0.0034572,0.000105221,0.00800895,577.51,500.865)">
        <path d="M16336,15412L16536,15412L16536,15612L16336,15612L16336,15412ZM16736,15412L16936,15412L16936,15612L16736,15612L16736,15412ZM17136,15412L17336,15412L17336,15612L17136,15612L17136,15412ZM17536,15412L17736,15412L17736,15612L17536,15612L17536,15412ZM17936,15412L18136,15412L18136,15612L17936,15612L17936,15412ZM18336,15412L18536,15412L18536,15612L18336,15612L18336,15412ZM18736,15412L18936,15412L18936,15612L18736,15612L18736,15412ZM19136,15412L19336,15412L19336,15612L19136,15612L19136,15412ZM19536,15412L19736,15412L19736,15612L19536,15612L19536,15412ZM19936,15412L20136,15412L20136,15612L19936,15612L19936,15412ZM20336,15412L20536,15412L20536,15612L20336,15612L20336,15412ZM20736,15412L20936,15412L20936,15612L20736,15612L20736,15412ZM21136,15412L21336,15412L21336,15612L21136,15612L21136,15412ZM21536,15412L21736,15412L21736,15612L21536,15612L21536,15412ZM21936,15412L22136,15412L22136,15612L21936,15612L21936,15412ZM22336,15412L22536,15412L22536,15612L22336,15612L22336,15412ZM22736,15412L22936,15412L22936,15612L22736,15612L22736,15412ZM23071,15512L22671,15012L23671,15512L22671,16012L23071,15512Z" style="fill:rgb(160,9,117);fill-rule:nonzero;stroke:rgb(160,9,117);stroke-width:1px;stroke-linejoin:round;stroke-miterlimit:2;"/>
    </g>
    <g transform="matrix(0.0122258,-0.0069144,0.000210441,0.0160179,577.51,500.865)">
        <path d="M15995,7722L15895,7722L15895,7822L15995,7822L15995,7722ZM15795,7722L15695,7722L15695,7822L15795,7822L15795,7722ZM15595,7722L15495,7722L15495,7822L15595,7822L15595,7722ZM15395,7722L15295,7722L15295,7822L15395,7822L15395,7722ZM15195,7722L15095,7722L15095,7822L15195,7822L15195,7722ZM14995,7722L14895,7722L14895,7822L14995,7822L14995,7722ZM14795,7722L14695,7722L14695,7822L14795,7822L14795,7722ZM14595,7722L14495,7722L14495,7822L14595,7822L14595,7722ZM14395,7722L14295,7722L14295,7822L14395,7822L14395,7722ZM14195,7722L14095,7722L14095,7822L14195,7822L14195,7722ZM13995,7722L13895,7722L13895,7822L13995,7822L13995,7722ZM13795,7722L13695,7722L13695,7822L13795,7822L13795,7722ZM13595,7722L13495,7722L13495,7822L13595,7822L13595,7722ZM13492,7772L13692,7522L13192,7772L13692,8022L13492,7772Z" style="fill:rgb(160,9,117);fill-rule:nonzero;stroke:rgb(160,9,117);stroke-width:1px;stroke-linejoin:round;stroke-miterlimit:2;"/>
    </g>
    <g transform="matrix(0.00611288,-0.0034572,0.000105221,0.00800895,577.51,500.865)">
        <path d="M22572,9652L22372,9652L22372,9852L22572,9852L22572,9652ZM22172,9652L21972,9652L21972,9852L22172,9852L22172,9652ZM21772,9652L21572,9652L21572,9852L21772,9852L21772,9652ZM21372,9652L21172,9652L21172,9852L21372,9852L21372,9652ZM20972,9652L20772,9652L20772,9852L20972,9852L20972,9652ZM20572,9652L20372,9652L20372,9852L20572,9852L20572,9652ZM20172,9652L19972,9652L19972,9852L20172,9852L20172,9652ZM19772,9652L19572,9652L19572,9852L19772,9852L19772,9652ZM19372,9652L19172,9652L19172,9852L19372,9852L19372,9652ZM18972,9652L18772,9652L18772,9852L18972,9852L18972,9652ZM18572,9652L18372,9652L18372,9852L18572,9852L18572,9652ZM18172,9652L17972,9652L17972,9852L18172,9852L18172,9652ZM17772,9652L17572,9652L17572,9852L17772,9852L17772,9652ZM17372,9652L17172,9652L17172,9852L17372,9852L17372,9652ZM16972,9652L16772,9652L16772,9852L16972,9852L16972,9652ZM16572,9652L16372,9652L16372,9852L16572,9852L16572,9652ZM16172,9652L15972,9652L15972,9852L16172,9852L16172,9652ZM15936,9752L16336,9252L15336,9752L16336,10252L15936,9752Z" style="fill:rgb(160,9,117);fill-rule:nonzero;stroke:rgb(160,9,117);stroke-width:1px;stroke-linejoin:round;stroke-miterlimit:2;"/>
    </g>
</svg>
