<?xml version="1.0" encoding="UTF-8" standalone="no"?>
<!DOCTYPE svg PUBLIC "-//W3C//DTD SVG 1.1//EN" "http://www.w3.org/Graphics/SVG/1.1/DTD/svg11.dtd">
<svg width="100%" height="100%" viewBox="0 0 850 850" version="1.1" xmlns="http://www.w3.org/2000/svg" xmlns:xlink="http://www.w3.org/1999/xlink" xml:space="preserve" xmlns:serif="http://www.serif.com/" style="fill-rule:evenodd;clip-rule:evenodd;stroke-miterlimit:8;">
    <g transform="matrix(2.31027,0,0,2.68928,3.3202,61.5629)">
        <rect x="0" y="0" width="364.893" height="270.35" style="fill:none;"/>
        <clipPath id="_clip1">
            <rect x="0" y="0" width="364.893" height="270.35"/>
        </clipPath>
        <g clip-path="url(#_clip1)">
            <g transform="matrix(0.00749944,0,0,0.00749973,0,0)">
                <path d="M4971,13701C5001,13421 5031,13141 4805,12675C4579,12209 3957,11513 3616,10906C3275,10298 2913,9709 2760,9031C2607,8352 2522,7556 2701,6837C2879,6117 3335,5280 3830,4714C4325,4148 5017,3731 5673,3440C6329,3149 7054,2968 7766,2968C8477,2968 9313,3173 9941,3440C10570,3708 11107,4128 11535,4572C11963,5017 12301,5520 12510,6106C12718,6691 12827,7427 12783,8087C12739,8748 12464,9524 12248,10069C12032,10613 11743,10949 11487,11354C11231,11759 10887,12215 10714,12498C10542,12781 10502,12846 10453,13052C10403,13259 10415,13622 10417,13736L4983,13701L4971,13701Z" style="fill:none;stroke:rgb(116,5,84);stroke-width:799.98px;"/>
            </g>
            <g transform="matrix(0.00749944,0,0,0.00749973,0,0)">
                <path d="M4872,14704C4872,14506 5034,14344 5232,14344L10304,14344C10503,14344 10664,14506 10664,14704C10664,14903 10503,15064 10304,15064L5232,15064C5034,15064 4872,14903 4872,14704Z" style="fill:rgb(160,9,117);"/>
            </g>
            <g transform="matrix(0.00749944,0,0,0.00749973,0,0)">
                <path d="M4872,14704C4872,14506 5034,14344 5232,14344L10304,14344C10503,14344 10664,14506 10664,14704C10664,14903 10503,15064 10304,15064L5232,15064C5034,15064 4872,14903 4872,14704Z" style="fill:none;stroke:rgb(116,5,84);stroke-width:133px;"/>
            </g>
            <g transform="matrix(0.00749944,0,0,0.00749973,0,0)">
                <path d="M4872,15704C4872,15501 5037,15336 5240,15336L10296,15336C10500,15336 10664,15501 10664,15704C10664,15908 10500,16072 10296,16072L5240,16072C5037,16072 4872,15908 4872,15704Z" style="fill:rgb(160,9,117);"/>
            </g>
            <g transform="matrix(0.00749944,0,0,0.00749973,0,0)">
                <path d="M4872,15704C4872,15501 5037,15336 5240,15336L10296,15336C10500,15336 10664,15501 10664,15704C10664,15908 10500,16072 10296,16072L5240,16072C5037,16072 4872,15908 4872,15704Z" style="fill:none;stroke:rgb(116,5,84);stroke-width:133px;"/>
            </g>
            <g transform="matrix(0.00749944,0,0,0.00749973,0,0)">
                <path d="M4872,16664C4872,16461 5037,16296 5240,16296L10296,16296C10500,16296 10664,16461 10664,16664C10664,16868 10500,17032 10296,17032L5240,17032C5037,17032 4872,16868 4872,16664Z" style="fill:rgb(160,9,117);"/>
            </g>
            <g transform="matrix(0.00749944,0,0,0.00749973,0,0)">
                <path d="M4872,16664C4872,16461 5037,16296 5240,16296L10296,16296C10500,16296 10664,16461 10664,16664C10664,16868 10500,17032 10296,17032L5240,17032C5037,17032 4872,16868 4872,16664Z" style="fill:none;stroke:rgb(116,5,84);stroke-width:133px;"/>
            </g>
            <g transform="matrix(0.00749944,0,0,0.00749973,0,0)">
                <path d="M8939,17278C9458,17297 9808,17208 9927,17391C10046,17574 9825,17648 9652,17777C9479,17906 9131,18041 8889,18164C8647,18287 8386,18428 8201,18513C8015,18599 7907,18661 7776,18676C7644,18690 7580,18674 7413,18601C7246,18528 6973,18349 6775,18239C6577,18129 6389,18041 6225,17940C6060,17838 5837,17729 5787,17628C5737,17526 5791,17380 5924,17328C6058,17276 6587,17316 6587,17316L8939,17278Z" style="fill:rgb(160,9,117);"/>
            </g>
            <g transform="matrix(0.00749944,0,0,0.00749973,0,0)">
                <path d="M8939,17278C9458,17297 9808,17208 9927,17391C10046,17574 9825,17648 9652,17777C9479,17906 9131,18041 8889,18164C8647,18287 8386,18428 8201,18513C8015,18599 7907,18661 7776,18676C7644,18690 7580,18674 7413,18601C7246,18528 6973,18349 6775,18239C6577,18129 6389,18041 6225,17940C6060,17838 5837,17729 5787,17628C5737,17526 5791,17380 5924,17328C6058,17276 6587,17316 6587,17316L8939,17278Z" style="fill:none;stroke:rgb(116,5,84);stroke-width:133px;"/>
            </g>
            <g transform="matrix(0.00749944,0,0,0.00749973,0,0)">
                <path d="M7776,1704C7657,1704 7560,1608 7560,1488L7560,272C7560,153 7657,56 7776,56C7896,56 7992,153 7992,272L7992,1488C7992,1608 7896,1704 7776,1704Z" style="fill:rgb(160,9,117);"/>
            </g>
            <g transform="matrix(0.00749944,0,0,0.00749973,0,0)">
                <path d="M7776,1704C7657,1704 7560,1608 7560,1488L7560,272C7560,153 7657,56 7776,56C7896,56 7992,153 7992,272L7992,1488C7992,1608 7896,1704 7776,1704Z" style="fill:none;stroke:rgb(116,5,84);stroke-width:133px;"/>
            </g>
            <g transform="matrix(0.00749944,0,0,0.00749973,0,0)">
                <path d="M2876,3731C2962,3645 2962,3506 2876,3420L2017,2560C1931,2474 1792,2474 1707,2560C1621,2646 1621,2784 1706,2870L2566,3730C2651,3816 2790,3816 2876,3731Z" style="fill:rgb(160,9,117);"/>
            </g>
            <g transform="matrix(0.00749944,0,0,0.00749973,0,0)">
                <path d="M2876,3731C2962,3645 2962,3506 2876,3420L2017,2560C1931,2474 1792,2474 1707,2560C1621,2646 1621,2784 1706,2870L2566,3730C2651,3816 2790,3816 2876,3731Z" style="fill:none;stroke:rgb(116,5,84);stroke-width:133px;"/>
            </g>
            <g transform="matrix(0.00749944,0,0,0.00749973,0,0)">
                <path d="M3433,13494C3503,13592 3480,13729 3381,13800L2392,14506C2293,14576 2156,14553 2085,14455C2015,14356 2038,14219 2137,14149L3127,13442C3225,13372 3362,13395 3433,13494Z" style="fill:rgb(160,9,117);"/>
            </g>
            <g transform="matrix(0.00749944,0,0,0.00749973,0,0)">
                <path d="M3433,13494C3503,13592 3480,13729 3381,13800L2392,14506C2293,14576 2156,14553 2085,14455C2015,14356 2038,14219 2137,14149L3127,13442C3225,13372 3362,13395 3433,13494Z" style="fill:none;stroke:rgb(116,5,84);stroke-width:133px;"/>
            </g>
            <g transform="matrix(0.00749944,0,0,0.00749973,0,0)">
                <path d="M56,8992C56,9112 153,9208 272,9208L1488,9208C1608,9208 1704,9112 1704,8992C1704,8873 1608,8776 1488,8776L272,8776C153,8776 56,8873 56,8992Z" style="fill:rgb(160,9,117);"/>
            </g>
            <g transform="matrix(0.00749944,0,0,0.00749973,0,0)">
                <path d="M56,8992C56,9112 153,9208 272,9208L1488,9208C1608,9208 1704,9112 1704,8992C1704,8873 1608,8776 1488,8776L272,8776C153,8776 56,8873 56,8992Z" style="fill:none;stroke:rgb(116,5,84);stroke-width:133px;"/>
            </g>
            <g transform="matrix(0.00749944,0,0,0.00749973,0,0)">
                <path d="M7496,2936C7496,2777 7622,2648 7776,2648C7931,2648 8056,2777 8056,2936C8056,3096 7931,3224 7776,3224C7622,3224 7496,3096 7496,2936" style="fill:rgb(160,9,117);"/>
            </g>
            <g transform="matrix(0.00749944,0,0,0.00749973,0,0)">
                <path d="M7496,2936C7496,2777 7622,2648 7776,2648C7931,2648 8056,2777 8056,2936C8056,3096 7931,3224 7776,3224C7622,3224 7496,3096 7496,2936" style="fill:none;stroke:rgb(116,5,84);stroke-width:133px;"/>
            </g>
            <g transform="matrix(0.00749944,0,0,0.00749973,0,0)">
                <path d="M3608,4576C3608,4422 3734,4296 3888,4296C4043,4296 4168,4422 4168,4576C4168,4731 4043,4856 3888,4856C3734,4856 3608,4731 3608,4576" style="fill:rgb(160,9,117);"/>
            </g>
            <g transform="matrix(0.00749944,0,0,0.00749973,0,0)">
                <path d="M3608,4576C3608,4422 3734,4296 3888,4296C4043,4296 4168,4422 4168,4576C4168,4731 4043,4856 3888,4856C3734,4856 3608,4731 3608,4576" style="fill:none;stroke:rgb(116,5,84);stroke-width:133px;"/>
            </g>
            <g transform="matrix(0.00749944,0,0,0.00749973,0,0)">
                <path d="M2472,8984C2472,8825 2601,8696 2760,8696C2920,8696 3048,8825 3048,8984C3048,9144 2920,9272 2760,9272C2601,9272 2472,9144 2472,8984" style="fill:rgb(160,9,117);"/>
            </g>
            <g transform="matrix(0.00749944,0,0,0.00749973,0,0)">
                <path d="M2472,8984C2472,8825 2601,8696 2760,8696C2920,8696 3048,8825 3048,8984C3048,9144 2920,9272 2760,9272C2601,9272 2472,9144 2472,8984" style="fill:none;stroke:rgb(116,5,84);stroke-width:133px;"/>
            </g>
            <g transform="matrix(0.00749944,0,0,0.00749973,0,0)">
                <path d="M4584,12728C4584,12569 4713,12440 4872,12440C5032,12440 5160,12569 5160,12728C5160,12888 5032,13016 4872,13016C4713,13016 4584,12888 4584,12728" style="fill:rgb(160,9,117);"/>
            </g>
            <g transform="matrix(0.00749944,0,0,0.00749973,0,0)">
                <path d="M4584,12728C4584,12569 4713,12440 4872,12440C5032,12440 5160,12569 5160,12728C5160,12888 5032,13016 4872,13016C4713,13016 4584,12888 4584,12728" style="fill:none;stroke:rgb(116,5,84);stroke-width:133px;"/>
            </g>
            <g transform="matrix(0.00749944,0,0,0.00749973,0,0)">
                <path d="M7464,13696C7464,13542 7593,13416 7752,13416C7912,13416 8040,13542 8040,13696C8040,13851 7912,13976 7752,13976C7593,13976 7464,13851 7464,13696" style="fill:rgb(160,9,117);"/>
            </g>
            <g transform="matrix(0.00749944,0,0,0.00749973,0,0)">
                <path d="M7464,13696C7464,13542 7593,13416 7752,13416C7912,13416 8040,13542 8040,13696C8040,13851 7912,13976 7752,13976C7593,13976 7464,13851 7464,13696" style="fill:none;stroke:rgb(116,5,84);stroke-width:133px;"/>
            </g>
            <g transform="matrix(0.00749944,0,0,0.00749973,0,0)">
                <path d="M11848,4600C11848,4441 11720,4312 11560,4312C11401,4312 11272,4441 11272,4600C11272,4760 11401,4888 11560,4888C11720,4888 11848,4760 11848,4600" style="fill:rgb(160,9,117);"/>
            </g>
            <g transform="matrix(0.00749944,0,0,0.00749973,0,0)">
                <path d="M11848,4600C11848,4441 11720,4312 11560,4312C11401,4312 11272,4441 11272,4600C11272,4760 11401,4888 11560,4888C11720,4888 11848,4760 11848,4600" style="fill:none;stroke:rgb(116,5,84);stroke-width:133px;"/>
            </g>
            <g transform="matrix(0.00749944,0,0,0.00749973,0,0)">
                <path d="M12888,8984C12888,8825 12763,8696 12608,8696C12454,8696 12328,8825 12328,8984C12328,9144 12454,9272 12608,9272C12763,9272 12888,9144 12888,8984" style="fill:rgb(160,9,117);"/>
            </g>
            <g transform="matrix(0.00749944,0,0,0.00749973,0,0)">
                <path d="M12888,8984C12888,8825 12763,8696 12608,8696C12454,8696 12328,8825 12328,8984C12328,9144 12454,9272 12608,9272C12763,9272 12888,9144 12888,8984" style="fill:none;stroke:rgb(116,5,84);stroke-width:133px;"/>
            </g>
            <g transform="matrix(0.00749944,0,0,0.00749973,0,0)">
                <path d="M10840,12728C10840,12569 10715,12440 10560,12440C10406,12440 10280,12569 10280,12728C10280,12888 10406,13016 10560,13016C10715,13016 10840,12888 10840,12728" style="fill:rgb(160,9,117);"/>
            </g>
            <g transform="matrix(0.00749944,0,0,0.00749973,0,0)">
                <path d="M10840,12728C10840,12569 10715,12440 10560,12440C10406,12440 10280,12569 10280,12728C10280,12888 10406,13016 10560,13016C10715,13016 10840,12888 10840,12728" style="fill:none;stroke:rgb(116,5,84);stroke-width:133px;"/>
            </g>
            <g transform="matrix(0.00749944,0,0,0.00749973,0,0)">
                <path d="M10960,23080C11522,23080 11976,23464 11976,23936C11976,24391 11555,24766 11016,24791" style="fill:none;stroke:rgb(160,9,117);stroke-width:599.99px;"/>
            </g>
            <g transform="matrix(0.00749944,0,0,0.00749973,0,0)">
                <path d="M8958,23070C8419,23113 7937,22726 7881,22204C7879,22181 7877,22157 7876,22133" style="fill:none;stroke:rgb(160,9,117);stroke-width:599.99px;"/>
            </g>
            <g transform="matrix(0.00749944,0,0,0.00749973,0,0)">
                <path d="M8952,23064L10991,23079" style="fill:none;stroke:rgb(160,9,117);stroke-width:599.99px;"/>
            </g>
            <g transform="matrix(0.00749944,0,0,0.00749973,0,0)">
                <path d="M3240,24792L11066,24794" style="fill:none;stroke:rgb(160,9,117);stroke-width:599.99px;"/>
            </g>
            <g transform="matrix(0.00749944,0,0,0.00749973,0,0)">
                <path d="M3296,26504C2735,26504 2280,26121 2280,25648C2280,25194 2702,24819 3241,24794" style="fill:none;stroke:rgb(160,9,117);stroke-width:599.99px;"/>
            </g>
            <g transform="matrix(0.00749944,0,0,0.00749973,0,0)">
                <path d="M3288,26504L15649,26504" style="fill:none;stroke:rgb(160,9,117);stroke-width:599.99px;"/>
            </g>
            <g transform="matrix(0.00749944,0,0,0.00749973,0,0)">
                <path d="M7864,22138L7864,17832" style="fill:none;stroke:rgb(160,9,117);stroke-width:599.99px;"/>
            </g>
            <g transform="matrix(0.00749944,0,0,0.00749973,0,0)">
                <path d="M15867,27608C15662,27608 15496,27443 15496,27238L15496,25755C15496,25550 15662,25384 15867,25384L17702,25384C17907,25384 18072,25550 18072,25755L18072,27238C18072,27443 17907,27608 17702,27608L15867,27608Z" style="fill:rgb(160,9,117);"/>
            </g>
            <g transform="matrix(0.00749944,0,0,0.00749973,0,0)">
                <path d="M15867,27608C15662,27608 15496,27443 15496,27238L15496,25755C15496,25550 15662,25384 15867,25384L17702,25384C17907,25384 18072,25550 18072,25755L18072,27238C18072,27443 17907,27608 17702,27608L15867,27608Z" style="fill:none;stroke:rgb(116,5,84);stroke-width:133px;"/>
            </g>
            <g transform="matrix(0.00749944,0,0,0.00749973,0,0)">
                <path d="M18158,27080C18111,27080 18072,27042 18072,26995L18072,26654C18072,26607 18111,26568 18158,26568L19219,26568C19266,26568 19304,26607 19304,26654L19304,26995C19304,27042 19266,27080 19219,27080L18158,27080Z" style="fill:rgb(160,9,117);"/>
            </g>
            <g transform="matrix(0.00749944,0,0,0.00749973,0,0)">
                <path d="M18158,27080C18111,27080 18072,27042 18072,26995L18072,26654C18072,26607 18111,26568 18158,26568L19219,26568C19266,26568 19304,26607 19304,26654L19304,26995C19304,27042 19266,27080 19219,27080L18158,27080Z" style="fill:none;stroke:rgb(116,5,84);stroke-width:133px;"/>
            </g>
            <g transform="matrix(0.00749944,0,0,0.00749973,0,0)">
                <path d="M18155,26344C18109,26344 18072,26307 18072,26262L18072,25931C18072,25885 18109,25848 18155,25848L19222,25848C19267,25848 19304,25885 19304,25931L19304,26262C19304,26307 19267,26344 19222,26344L18155,26344Z" style="fill:rgb(160,9,117);"/>
            </g>
            <g transform="matrix(0.00749944,0,0,0.00749973,0,0)">
                <path d="M18155,26344C18109,26344 18072,26307 18072,26262L18072,25931C18072,25885 18109,25848 18155,25848L19222,25848C19267,25848 19304,25885 19304,25931L19304,26262C19304,26307 19267,26344 19222,26344L18155,26344Z" style="fill:none;stroke:rgb(116,5,84);stroke-width:133px;"/>
            </g>
            <g transform="matrix(0.00749944,0,0,0.00749973,0,0)">
                <path d="M12881,3667C12796,3582 12795,3443 12881,3357L13741,2497C13826,2411 13965,2411 14051,2497C14137,2582 14137,2721 14051,2807L13192,3667C13106,3753 12967,3753 12881,3667Z" style="fill:rgb(160,9,117);"/>
            </g>
            <g transform="matrix(0.00749944,0,0,0.00749973,0,0)">
                <path d="M12881,3667C12796,3582 12795,3443 12881,3357L13741,2497C13826,2411 13965,2411 14051,2497C14137,2582 14137,2721 14051,2807L13192,3667C13106,3753 12967,3753 12881,3667Z" style="fill:none;stroke:rgb(116,5,84);stroke-width:133px;"/>
            </g>
            <g transform="matrix(0.00749944,0,0,0.00749973,0,0)">
                <path d="M12325,13430C12254,13529 12277,13666 12376,13736L13366,14443C13465,14513 13602,14490 13672,14391C13742,14293 13719,14156 13621,14085L12631,13379C12532,13309 12395,13332 12325,13430Z" style="fill:rgb(160,9,117);"/>
            </g>
            <g transform="matrix(0.00749944,0,0,0.00749973,0,0)">
                <path d="M12325,13430C12254,13529 12277,13666 12376,13736L13366,14443C13465,14513 13602,14490 13672,14391C13742,14293 13719,14156 13621,14085L12631,13379C12532,13309 12395,13332 12325,13430Z" style="fill:none;stroke:rgb(116,5,84);stroke-width:133px;"/>
            </g>
            <g transform="matrix(0.00749944,0,0,0.00749973,0,0)">
                <path d="M15704,8936C15704,9060 15604,9160 15480,9160L14264,9160C14141,9160 14040,9060 14040,8936C14040,8813 14141,8712 14264,8712L15480,8712C15604,8712 15704,8813 15704,8936Z" style="fill:rgb(160,9,117);"/>
            </g>
            <g transform="matrix(0.00749944,0,0,0.00749973,0,0)">
                <path d="M15704,8936C15704,9060 15604,9160 15480,9160L14264,9160C14141,9160 14040,9060 14040,8936C14040,8813 14141,8712 14264,8712L15480,8712C15604,8712 15704,8813 15704,8936Z" style="fill:none;stroke:rgb(116,5,84);stroke-width:133px;"/>
            </g>
            <g transform="matrix(0.0149989,0,0,0.0149995,0,0)">
                <path d="M14699,15188L18624,15188L18624,16711L20542,16711C20828,16711 21060,16943 21060,17229L21060,18020L12356,18020L12356,17229C12356,16943 12589,16711 12875,16711L14699,16711L14699,15188Z" style="fill:rgb(160,9,117);"/>
            </g>
            <g transform="matrix(0.0149989,0,0,0.0149995,0,0)">
                <path d="M9722,4876L23615,4876C24007,4876 24324,5194 24324,5586L24324,14519C24324,14911 24007,15228 23615,15228L9722,15228C9330,15228 9012,14911 9012,14519L9012,5586C9012,5194 9330,4876 9722,4876ZM10398,5677C10063,5677 9791,5948 9791,6284L9791,13082C9791,13417 10063,13689 10398,13689L22872,13689C23207,13689 23479,13417 23479,13082L23479,6284C23479,5948 23207,5677 22872,5677L10398,5677Z" style="fill:rgb(160,9,117);"/>
            </g>
            <g transform="matrix(0.0149989,0,0,0.0149995,0,0)">
                <path d="M13948,9628L13948,10717C13948,11229 15107,11740 16544,11740C17982,11740 19140,11229 19140,10717L19140,9628L16544,10550L13948,9628Z" style="fill:rgb(160,9,117);"/>
            </g>
            <g transform="matrix(0.0149989,0,0,0.0149995,0,0)">
                <path d="M13948,9628L13948,10717C13948,11229 15107,11740 16544,11740C17982,11740 19140,11229 19140,10717L19140,9628L16544,10550L13948,9628Z" style="fill:none;stroke:rgb(116,5,84);stroke-width:67px;"/>
            </g>
            <g transform="matrix(0.0149989,0,0,0.0149995,0,0)">
                <path d="M16548,10153L20596,8733L16548,7284L12500,8733L13020,8918L13020,10627C13020,10729 13104,10812 13206,10812C13308,10812 13392,10729 13392,10627L13392,9048L16548,10153Z" style="fill:rgb(160,9,117);"/>
            </g>
            <g transform="matrix(0.0149989,0,0,0.0149995,0,0)">
                <path d="M16548,10153L20596,8733L16548,7284L12500,8733L13020,8918L13020,10627C13020,10729 13104,10812 13206,10812C13308,10812 13392,10729 13392,10627L13392,9048L16548,10153Z" style="fill:none;stroke:rgb(116,5,84);stroke-width:67px;"/>
            </g>
        </g>
    </g>
</svg>
