<?xml version="1.0" encoding="UTF-8" standalone="no"?>
<!DOCTYPE svg PUBLIC "-//W3C//DTD SVG 1.1//EN" "http://www.w3.org/Graphics/SVG/1.1/DTD/svg11.dtd">
<svg width="100%" height="100%" viewBox="0 0 539 241" version="1.1" xmlns="http://www.w3.org/2000/svg" xmlns:xlink="http://www.w3.org/1999/xlink" xml:space="preserve" xmlns:serif="http://www.serif.com/" style="fill-rule:evenodd;clip-rule:evenodd;stroke-linecap:round;stroke-linejoin:round;stroke-miterlimit:1.5;">
    <g transform="matrix(1,0,0,1,-346.199,-142.245)">
        <g>
            <g transform="matrix(1.38293,0,0,1.49965,-133.517,-137.058)">
                <rect x="346.883" y="186.245" width="389.134" height="160.082" style="fill:rgb(160,9,117);"/>
            </g>
            <g transform="matrix(1.25742,0,0,1,-227.651,0)">
                <rect x="456.37" y="297.969" width="427.976" height="84.343" style="fill:rgb(45,62,80);"/>
            </g>
            <g transform="matrix(1,0,0,1,-29.102,60.5964)">
                <text x="484.047px" y="287.23px" style="font-family:'NunitoSans-Italic', 'Nunito Sans';font-style:italic;font-size:200px;fill:white;">f<tspan x="548.647px " y="287.23px ">s</tspan>lab</text>
            </g>
            <g transform="matrix(0.249216,0,0,0.249216,280.439,163.268)">
                <g transform="matrix(1.12052,0,0,1.12052,378.086,404.365)">
                    <path d="M0,121.492L121.492,0L121.492,60.746L60.746,121.492L121.492,182.237L121.492,242.983L0,121.492Z" style="fill:white;fill-rule:nonzero;"/>
                </g>
                <g transform="matrix(1.12052,0,0,1.12052,378.086,404.365)">
                    <path d="M78.102,121.492L121.492,78.102L121.492,164.881L78.102,121.492Z" style="fill:white;fill-rule:nonzero;"/>
                </g>
                <g transform="matrix(1.12052,0,0,1.12052,378.086,404.365)">
                    <path d="M256,121.492L130.169,0L130.169,60.746L190.915,121.492L130.169,182.237L130.169,242.983L256,121.492Z" style="fill:white;fill-rule:nonzero;"/>
                </g>
            </g>
            <g transform="matrix(1,0,0,1,19.44,21.6162)">
                <path d="M377.96,164.629C376.885,164.629 375.853,165.056 375.092,165.817C374.332,166.578 373.904,167.609 373.904,168.685C373.904,168.685 373.904,168.686 373.904,168.686C373.904,168.724 373.906,168.761 373.908,168.798C373.993,170.266 375.739,200.406 376.475,213.113C376.686,216.756 375.885,220.387 374.159,223.603C368.319,234.49 354.245,260.724 347.034,274.165C344.409,279.058 345.299,285.093 349.225,289.019C358.002,297.796 373.494,313.288 383.013,322.807C385.193,324.987 388.149,326.211 391.232,326.211C394.315,326.211 397.272,324.987 399.452,322.807C408.971,313.287 424.466,297.792 433.242,289.017C437.167,285.092 438.058,279.059 435.436,274.167C428.23,260.723 414.163,234.477 408.331,223.594C406.61,220.384 405.81,216.76 406.018,213.124C406.746,200.422 408.473,170.259 408.557,168.797C408.559,168.761 408.56,168.724 408.56,168.687C408.56,167.611 408.133,166.579 407.372,165.818C406.611,165.056 405.578,164.629 404.502,164.629C397.833,164.629 384.629,164.629 377.96,164.629Z" style="fill:none;stroke:white;stroke-width:9.69px;"/>
            </g>
        </g>
    </g>
</svg>
