<?xml version="1.0" encoding="UTF-8" standalone="no"?>
<!DOCTYPE svg PUBLIC "-//W3C//DTD SVG 1.1//EN" "http://www.w3.org/Graphics/SVG/1.1/DTD/svg11.dtd">
<svg width="100%" height="100%" viewBox="0 0 2481 3508" version="1.1" xmlns="http://www.w3.org/2000/svg" xmlns:xlink="http://www.w3.org/1999/xlink" xml:space="preserve" xmlns:serif="http://www.serif.com/" style="fill-rule:evenodd;clip-rule:evenodd;stroke-linejoin:round;stroke-miterlimit:10;">
    <g>
        <path d="M320.745,584.879L483.243,422.381L787.895,422.381L879.658,514.144L647.242,746.56L483.243,746.56L320.745,584.879Z" style="fill:rgb(61,18,68);"/>
        <g transform="matrix(0.571838,0,0,0.571838,320.745,249.223)">
            <g transform="matrix(0.0312477,0,0,0.0312489,0,0)">
                <path d="M4348,6934L6836,4445L9325,6934L6836,9422L4348,6934Z" style="fill:rgb(160,9,117);stroke:rgb(61,18,68);stroke-width:225.32px;"/>
            </g>
            <g transform="matrix(0.0312477,0,0,0.0312489,0,0)">
                <path d="M10892,6502L12701,4694L14510,6502L12701,8311L10892,6502Z" style="fill:rgb(160,9,117);stroke:rgb(61,18,68);stroke-width:225.32px;"/>
            </g>
            <g transform="matrix(0.0312477,0,0,0.0312489,0,0)">
                <path d="M12701,2468L14014,1155L15263,2404L13951,3717L12701,2468Z" style="fill:rgb(160,9,117);stroke:rgb(61,18,68);stroke-width:225.32px;"/>
            </g>
            <g transform="matrix(0.0312477,0,0,0.0312489,0,0)">
                <path d="M7852,1908L9661,99L11470,1908L9661,3717L7852,1908Z" style="fill:rgb(160,9,117);stroke:rgb(61,18,68);stroke-width:225.32px;"/>
            </g>
        </g>
        <g transform="matrix(0.571838,0,0,0.571838,320.745,249.223)">
            <g transform="matrix(0.0312477,0,0,0.0312489,5.68434e-14,0)">
                <path d="M12956,11206C12828,11078 12828,10871 12956,10743L18589,5110C18717,4982 18924,4982 19052,5110L19976,6035C20104,6162 20104,6369 19976,6497L14343,12130C14215,12258 14008,12258 13881,12130L12956,11206Z" style="fill:rgb(160,9,117);stroke:rgb(61,18,68);stroke-width:233.18px;stroke-miterlimit:2;"/>
            </g>
            <g transform="matrix(0.0312477,0,0,0.0312489,5.68434e-14,0)">
                <path d="M30171,22325C28767,23730 26490,23730 25086,22325L14617,11856L19702,6771L30171,17240C31576,18644 31576,20921 30171,22325Z" style="fill:rgb(160,9,117);stroke:rgb(61,18,68);stroke-width:233.18px;stroke-miterlimit:2;"/>
            </g>
            <g transform="matrix(0.0312477,0,0,0.0312489,5.68434e-14,0)">
                <path d="M28989,21143C28010,22122 26424,22122 25445,21143L18150,13848L21694,10304L28989,17599C29968,18578 29968,20164 28989,21143Z" style="fill:rgb(61,18,68);"/>
            </g>
        </g>
        <g transform="matrix(1.02302,0,0,1.02302,-42.8155,31.9363)">
            <g transform="matrix(1.12052,0,0,1.12052,378.086,404.365)">
                <path d="M0,121.492L121.492,0L121.492,60.746L60.746,121.492L121.492,182.237L121.492,242.983L0,121.492Z" style="fill:rgb(55,139,186);fill-rule:nonzero;"/>
            </g>
            <g transform="matrix(1.12052,0,0,1.12052,378.086,404.365)">
                <path d="M78.102,121.492L121.492,78.102L121.492,164.881L78.102,121.492Z" style="fill:rgb(55,139,186);fill-rule:nonzero;"/>
            </g>
            <g transform="matrix(1.12052,0,0,1.12052,378.086,404.365)">
                <path d="M256,121.492L130.169,0L130.169,60.746L190.915,121.492L130.169,182.237L130.169,242.983L256,121.492Z" style="fill:rgb(48,185,219);fill-rule:nonzero;"/>
            </g>
        </g>
        <g transform="matrix(0.285191,0,0,0.285202,869.659,723.687)">
            <g transform="matrix(1383,0,0,1383,0,0)">
                <path d="M0.087,-0L0.087,-0.705L0.523,-0.705L0.523,-0.636L0.168,-0.636L0.168,-0.393L0.503,-0.393L0.503,-0.324L0.168,-0.324L0.168,-0L0.087,-0Z" style="fill:rgb(160,9,117);fill-rule:nonzero;"/>
            </g>
            <g transform="matrix(1383,0,0,1383,756.127,0)">
                <path d="M0.24,0.007C0.158,0.007 0.093,-0.014 0.045,-0.056L0.072,-0.116C0.098,-0.095 0.125,-0.081 0.152,-0.071C0.179,-0.063 0.209,-0.058 0.243,-0.058C0.279,-0.058 0.307,-0.064 0.326,-0.077C0.344,-0.089 0.354,-0.107 0.354,-0.13C0.354,-0.149 0.348,-0.165 0.335,-0.176C0.322,-0.187 0.301,-0.196 0.272,-0.203L0.19,-0.222C0.149,-0.231 0.117,-0.247 0.095,-0.27C0.073,-0.293 0.062,-0.321 0.062,-0.354C0.062,-0.397 0.079,-0.432 0.113,-0.459C0.147,-0.486 0.192,-0.499 0.249,-0.499C0.283,-0.499 0.315,-0.494 0.346,-0.483C0.377,-0.471 0.402,-0.456 0.423,-0.435L0.396,-0.376C0.351,-0.414 0.302,-0.433 0.249,-0.433C0.215,-0.433 0.189,-0.427 0.17,-0.413C0.151,-0.401 0.141,-0.382 0.141,-0.359C0.141,-0.34 0.147,-0.324 0.159,-0.313C0.17,-0.301 0.189,-0.292 0.215,-0.286L0.298,-0.266C0.343,-0.255 0.377,-0.239 0.399,-0.218C0.421,-0.196 0.432,-0.168 0.432,-0.133C0.432,-0.09 0.415,-0.056 0.381,-0.031C0.346,-0.006 0.299,0.007 0.24,0.007Z" style="fill:rgb(160,9,117);fill-rule:nonzero;"/>
            </g>
            <g transform="matrix(1383,0,0,1383,1420.3,0)">
                <path d="M0.087,-0L0.087,-0.705L0.169,-0.705L0.169,-0.07L0.522,-0.07L0.522,-0L0.087,-0Z" style="fill:rgb(160,9,117);fill-rule:nonzero;"/>
            </g>
            <g transform="matrix(1383,0,0,1383,2167.04,0)">
                <path d="M0.273,-0.499C0.335,-0.499 0.381,-0.483 0.411,-0.452C0.442,-0.42 0.457,-0.372 0.457,-0.307L0.457,-0L0.378,-0L0.378,-0.083C0.365,-0.054 0.346,-0.032 0.32,-0.017C0.294,-0.001 0.264,0.007 0.23,0.007C0.199,0.007 0.17,0.001 0.143,-0.012C0.117,-0.025 0.096,-0.042 0.081,-0.065C0.066,-0.088 0.058,-0.113 0.058,-0.14C0.058,-0.177 0.067,-0.205 0.086,-0.226C0.105,-0.246 0.135,-0.261 0.178,-0.27C0.221,-0.279 0.28,-0.283 0.356,-0.283L0.378,-0.283L0.378,-0.316C0.378,-0.357 0.37,-0.386 0.353,-0.405C0.336,-0.423 0.309,-0.432 0.272,-0.432C0.216,-0.432 0.16,-0.415 0.105,-0.38L0.078,-0.439C0.103,-0.457 0.134,-0.471 0.17,-0.483C0.205,-0.494 0.24,-0.499 0.273,-0.499ZM0.241,-0.057C0.281,-0.057 0.314,-0.07 0.34,-0.098C0.365,-0.125 0.378,-0.159 0.378,-0.202L0.378,-0.231L0.36,-0.231C0.301,-0.231 0.257,-0.229 0.226,-0.224C0.195,-0.219 0.173,-0.21 0.161,-0.199C0.148,-0.187 0.141,-0.17 0.141,-0.147C0.141,-0.121 0.151,-0.1 0.17,-0.083C0.189,-0.066 0.212,-0.057 0.241,-0.057Z" style="fill:rgb(160,9,117);fill-rule:nonzero;"/>
            </g>
            <g transform="matrix(1383,0,0,1383,2899.61,0)">
                <path d="M0.32,-0.499C0.363,-0.499 0.4,-0.489 0.433,-0.468C0.466,-0.447 0.491,-0.418 0.509,-0.38C0.527,-0.342 0.536,-0.298 0.536,-0.248C0.536,-0.197 0.527,-0.153 0.509,-0.115C0.491,-0.076 0.466,-0.046 0.433,-0.025C0.4,-0.004 0.363,0.007 0.32,0.007C0.282,0.007 0.249,-0.001 0.221,-0.018C0.192,-0.035 0.171,-0.058 0.156,-0.089L0.156,-0L0.075,-0L0.075,-0.705L0.156,-0.705L0.156,-0.403C0.171,-0.434 0.192,-0.457 0.221,-0.474C0.249,-0.491 0.282,-0.499 0.32,-0.499ZM0.304,-0.06C0.351,-0.06 0.388,-0.077 0.414,-0.11C0.44,-0.142 0.453,-0.189 0.453,-0.248C0.453,-0.306 0.44,-0.351 0.414,-0.383C0.388,-0.415 0.351,-0.431 0.304,-0.431C0.257,-0.431 0.22,-0.415 0.195,-0.383C0.169,-0.351 0.156,-0.305 0.156,-0.246C0.156,-0.187 0.169,-0.141 0.195,-0.109C0.22,-0.076 0.257,-0.06 0.304,-0.06Z" style="fill:rgb(160,9,117);fill-rule:nonzero;"/>
            </g>
        </g>
    </g>
</svg>
