<?xml version="1.0" encoding="UTF-8" standalone="no"?>
<!DOCTYPE svg PUBLIC "-//W3C//DTD SVG 1.1//EN" "http://www.w3.org/Graphics/SVG/1.1/DTD/svg11.dtd">
<svg width="100%" height="100%" viewBox="0 0 827 827" version="1.1" xmlns="http://www.w3.org/2000/svg" xmlns:xlink="http://www.w3.org/1999/xlink" xml:space="preserve" xmlns:serif="http://www.serif.com/" style="fill-rule:evenodd;clip-rule:evenodd;stroke-linecap:round;stroke-linejoin:round;stroke-miterlimit:1.5;">
    <g transform="matrix(1,0,0,1,-250.653,-1074.2)">
        <g transform="matrix(1,0,0,1,222.955,0)">
            <g transform="matrix(1.07446,0,0,1.11504,-844.931,508.952)">
                <rect x="812.154" y="506.932" width="769.475" height="741.473" style="fill:none;"/>
            </g>
            <g transform="matrix(0.801758,0.801758,-0.801758,0.801758,1162.13,-452.652)">
                <path d="M864.897,1679.01L864.897,1635.83C864.897,1552.48 831.787,1472.55 772.852,1413.62C765.322,1406.09 760.531,1401.29 760.531,1401.29C760.531,1401.29 755.752,1406.05 748.236,1413.54C689.028,1472.51 655.746,1552.63 655.746,1636.2L655.746,1679.01L595.711,1740.34L595.711,1827.26L618.377,1827.26L699.547,1778.28L821.096,1778.28L902.265,1827.26L924.932,1827.26L924.932,1740.34L864.897,1679.01" style="fill:none;stroke:rgb(61,18,68);stroke-width:11.02px;"/>
                <g transform="matrix(1,0,0,1,129.134,163.358)">
                    <path d="" style="fill:rgb(61,18,68);"/>
                </g>
                <g transform="matrix(1.00949,0,0,0.978895,-17.7766,34.522)">
                    <ellipse cx="770.786" cy="1604.35" rx="38.288" ry="39.484" style="fill:rgb(67,138,254);"/>
                </g>
                <g transform="matrix(-0.891242,-1.09146e-16,9.41085e-17,-0.768454,1437.95,3186.47)">
                    <path d="M681.708,1827.26L699.547,1862.17L821.096,1862.17L838.935,1827.26L681.708,1827.26Z" style="fill:rgb(61,18,68);stroke:rgb(61,18,68);stroke-width:4.42px;"/>
                </g>
                <g transform="matrix(-0.800008,-9.79727e-17,1.70411e-16,-1.39151,1266.09,4290.61)">
                    <path d="M632.202,1707.17L691.681,1785.98L572.722,1785.98L632.202,1707.17Z" style="fill:rgb(160,9,117);"/>
                </g>
            </g>
        </g>
    </g>
</svg>
