<?xml version="1.0" encoding="UTF-8" standalone="no"?>
<!DOCTYPE svg PUBLIC "-//W3C//DTD SVG 1.1//EN" "http://www.w3.org/Graphics/SVG/1.1/DTD/svg11.dtd">
<svg width="100%" height="100%" viewBox="0 0 827 827" version="1.1" xmlns="http://www.w3.org/2000/svg" xmlns:xlink="http://www.w3.org/1999/xlink" xml:space="preserve" xmlns:serif="http://www.serif.com/" style="fill-rule:evenodd;clip-rule:evenodd;stroke-miterlimit:8;">
    <g transform="matrix(1,0,0,1,-255.689,-118.105)">
        <g transform="matrix(1,0,0,1,261.605,159.004)">
            <g transform="matrix(1.07446,0,0,1.11504,-878.545,-606.148)">
                <rect x="812.154" y="506.932" width="769.475" height="741.473" style="fill:none;"/>
            </g>
            <g transform="matrix(0.797499,0,0,0.797499,82.5132,75.4291)">
                <g>
                    <g transform="matrix(0.0312477,0,0,0.0312489,0,0)">
                        <path d="M10328,6774C10328,6245 10757,5816 11286,5816L24299,5816C24828,5816 25256,6245 25256,6774L25256,17499C25256,18028 24828,18456 24299,18456L11286,18456C10757,18456 10328,18028 10328,17499L10328,6774Z" style="fill:none;stroke:rgb(68,138,255);stroke-width:400.02px;"/>
                    </g>
                    <g transform="matrix(0.0312477,0,0,0.0312489,0,0)">
                        <path d="M15256,11616C15256,11232 15568,10920 15952,10920L19648,10920C20033,10920 20344,11232 20344,11616C20344,12001 20033,12312 19648,12312L15952,12312C15568,12312 15256,12001 15256,11616Z" style="fill:rgb(68,138,255);"/>
                    </g>
                    <g transform="matrix(0.0312477,0,0,0.0312489,0,0)">
                        <path d="M10328,8952L25252,8952" style="fill:none;stroke:rgb(68,138,255);stroke-width:400.02px;"/>
                    </g>
                </g>
                <g transform="matrix(1.25392,0,0,1.25392,-431.497,-293.96)">
                    <path d="M364.652,447.13L364.652,405.145L452.634,405.145C455.4,405.145 457.645,402.9 457.645,400.135L457.645,390.114C457.645,387.349 455.4,385.104 452.634,385.104L364.652,385.104L364.652,343.119L470.087,343.119C472.852,343.119 475.097,340.874 475.097,338.109L475.097,328.088C475.097,325.323 472.852,323.078 470.087,323.078L364.652,323.078L364.652,294.268C364.652,261.995 385.51,235.828 411.203,235.828L788.615,235.828C814.308,235.828 835.141,261.995 835.141,294.268L835.141,332.297L576.247,332.297C558.903,332.297 544.848,349.941 544.848,371.722L544.848,691.283C544.848,713.064 558.903,730.708 576.247,730.708L835.141,730.708L835.141,768.738C835.141,801.01 814.308,827.152 788.615,827.152L411.203,827.152C385.51,827.152 364.652,801.01 364.652,768.738L364.652,467.171L437.626,467.171C440.391,467.171 442.636,464.926 442.636,462.161L442.636,452.14C442.636,449.375 440.391,447.13 437.626,447.13L364.652,447.13ZM410.106,732.453C410.106,714.51 424.659,699.956 442.602,699.956C460.569,699.956 475.097,714.51 475.097,732.453C475.097,750.421 460.569,764.95 442.602,764.95C424.659,764.95 410.106,750.421 410.106,732.453Z" style="fill:rgb(160,9,117);stroke:rgb(61,18,68);stroke-width:4.17px;stroke-linejoin:round;stroke-miterlimit:2;"/>
                </g>
                <g transform="matrix(0.0312477,0,0,0.0312489,0,0)">
                    <path d="M2648,19984C2648,19264 3232,18680 3952,18680C4673,18680 5256,19264 5256,19984C5256,20705 4673,21288 3952,21288C3232,21288 2648,20705 2648,19984" style="fill:none;stroke:rgb(67,138,254);stroke-width:501.6px;stroke-linejoin:round;stroke-miterlimit:2;"/>
                </g>
            </g>
        </g>
    </g>
</svg>
